<mxfile host="65bd71144e">
    <diagram id="2U_sDDRC4R_ceGpeaTCA" name="Page-1">
        <mxGraphModel dx="2506" dy="747" grid="1" gridSize="10" guides="1" tooltips="1" connect="1" arrows="1" fold="1" page="1" pageScale="1" pageWidth="850" pageHeight="1100" math="0" shadow="0">
            <root>
                <mxCell id="0"/>
                <mxCell id="1" parent="0"/>
                <mxCell id="2" value="" style="shape=image;verticalLabelPosition=bottom;labelBackgroundColor=default;verticalAlign=top;aspect=fixed;imageAspect=0;image=data:image/png,iVBORw0KGgoAAAANSUhEUgAAAb0AAAGcCAYAAABN3n7XAAAAAXNSR0IArs4c6QAAIABJREFUeF7snQncReW0/7f/nUfXELqlASVKJQ0ypKSiQaMhkdKsQYMSRUpXQhEpKSkVKZQGiuaIMkRJkQxFMtzM7nz9P9+H73tX29lnes981vl8zue87zl7P/t51rP3+j1rrd9az4N+9rOf/b7KV0ogJZASSAmkBOZAAg/6/e9/n6A3BxOdQ0wJpARSAimBqkrQy7sgJZASSAmkBOZGAgl6czPVOdCUQEogJZASSNDLeyAlkBJICaQE5kYCCXpzM9U50JRASiAlkBJI0Mt7ICWQEkgJpATmRgIJenMz1TnQlEBKICWQEkjQy3sgJZASSAmkBOZGAgl6czPVOdCUQEogJZASSNDLeyAlkBJICaQE5kYCCXpzM9U50JRASiAlkBJI0Mt7ICWQEkgJpATmRgIJenMz1TnQlEBKICWQEkjQy3sgJZASSAmkBOZGAgl6czPVOdCUQEogJZASSNDLeyAlkBJICaQE5kYCCXpzM9U50JRASiAlkBJI0Mt7ICWQEkgJpATmRgIJenMz1TnQlEBKICWQEkjQy3sgJZASSAmkBOZGAgl6czPVOdCUQEogJZASSNDLeyAlkBJICaQE5kYCCXpzM9U50JRASiAlkBJI0Mt7ICWQEkgJpATmRgIJenMz1TnQlEBKICWQEkjQy3sgJZASSAmkBOZGAgl6czPVOdCUQEogJZASSNDLeyAlkBJICaQE5kYCCXpzM9U50JRASiAlkBJI0Mt7YK4l8Pvf/76M30/+/n//7/8tyITveT/oQQ8qb4/lb3/z4HhMN0L1mvW2vL7XjW3Fc7q5Rh6TEkgJPFACCXp5R8ytBP73f/+3AFcEOb77n//5n+ov/uIvWoLcf//3f5fjeQtWEfT8W0AUpLwWv//Zn/1ZefPie8EyAjB/cwy/8/aatm8/OaYdSM7t5ObAUwINEkjQy1tjbiVQByYAJFp2CAYAFIAAF0GKz//6r/+qAEE+//M//7Mcy+fvfve76te//nX1m9/8pvq3f/u3hd8FtT//8z+v/uqv/qr6y7/8y+of//Efq3/4h3+o/uZv/qa8//qv/7r8xrX4XWsvgmy0SgFM+sAn/dcandtJzYGnBDpIIEEvb5G5lUDdCtP64vtogWmRAS6A2i9/+cvqF7/4RfWv//qv1c9+9rPqxz/+cfXTn/60/P0f//Ef1b//+7+XN2AoaPK31wPAAD7fgBuA9+AHP7h66EMfWj384Q8vYPjoRz+6+qd/+qfyP8AIGHIO/aB/WKP2U0B2DHM7qTnwlECCXt4DKYHWEhAwBDXdhACVrkXACovt3nvvre66667yyRvAu//++4tVB8ABhrx1O/KpKxPry/+5Rj2OqJUmGAJuvAE+QPARj3hEAT5AcPnlly9/8z2gR18533YT9PJuTwm0l0BaenmHzK0EdB0CSAAWIAJ4AGQAyXe+853q5ptvru64447qRz/6UbHu+A2XJRad1lur+B5CFYz4m2MjOEUSDECFBVcHTI6JLk9AcIkllqge9rCHVSuuuGK1+uqrFyDkGM73mnM7oTnwlEAXEkjQ60JIechsSkDrS0IK/+Oq/OpXv1pdeeWVCy5LgM54XQQv42e2E6UUmZ7GBKOFF2NvElkiaSXGF6MLE4AFnAFA3KFYfs961rOqNddcs3yXcb3ZvFdzVIOTQILe4GSZLY1RAsS5VPiR6GGXYjxNK0uQ0X35pS99qfriF79Y3XPPPQXwaDOmDUTrrBXjspWlVb9uJxG1So+oj0dXJt8T6yPuB/g9+clPrtZYY41i/f393//9Qt911cbz7Gv9ep36l7+nBKZdAgl60z6D2f8igeiqrOeyAVBYarwERuJwxOXuvPPOCrDDhfmDH/ygfBdjfZMqXlMtiP0xFgCN2N+SSy5ZrbzyytVaa61VXKDE/hgzx2Ah8jfWqrKwnWR9TupMZ78GLYEEvUFLNNsbiwRi+kE9SVxiisfgrsSi+8IXvlB961vfqu6+++4Sq+OFdefxYxlIFxc1higzVKuNcQNsf/d3f1c96lGPqp70pCdVT3/608sn39XTMWIKRYJeF4LPQ2ZCAgl6MzGNOYio0GVLRvDid6yd22+/vbrsssuqW265pRBTfvvb3y7k2MmEJFcO8JvklyDlGAFCyDiQWiDaMAZcn7g5n/rUp1Ybb7xx9bjHPa78zrGOj7+T8TnJM519G7QEEvQGLdFsb+wSqBNLYFoCcIDdpZdeWuJ1fAc4yKiMij+mGIx9MC064PhkfOrajQDoMbg/sfJwc26yySbVs5/97GqppZZaqOISz5nEsWafUgKDlkCC3qAlmu2NRQIxmRwrBkAgdgUbk3gdgAcrE2vPdANLjRnvM09PUsxYBtLHRQU4ktytFANwIwMAkfHxN/l9q6yySvWc5zynkF6wAmWDxlJsfXQhT0kJTI0EEvSmZqqyo3UJRJdmZCECWsTobrvttuqzn/1sdcMNNxTrDsDDorOiST2/rl7DMqY0aP1J/LAvMemc72LxaPskazLGzeoJ6rYX45GxrXoKhP9biYV+yNJsdad4vb/927+tlllmmUJ0Id73+Mc/vqQ62Pc4HhcPeeelBGZJAgl6szSbMz4WFDeK2EokWjCCCpYdf1P38oorrijWHZbefffd9wDJ1FMAWpE4aEeiiMWeAQRBT8D0uwhaApHnxyR1j2vqQwTy6KaNbcRz68BYT7GIYCmoY/UR78Pqe8YznlFtsMEGxQXK9zJdf/WrX5U8wIz3zfhDNYfDS9Cbw0mf1iELesayYlK3lsr3vve96rzzzivWHekHEFWsVtLLuCNwSfbQ2gNco0XkTgemAsTr2UeJI4KXn14Hl6tEGotRQ0yJLlfdrrGUWS9jEiC1dnGHkuLwtKc9rdp+++2rf/7nfy59MH+R6+ECzVdKYJYkkKA3S7M5B2OpWz9u9UOCOYzMiy66qACeeWmQVbAM+31xPYFHq6nu6vT/aDFGsomxtej+9PeYAO91AJ6YV6jbMrpw65Zip/EJeLpBtehoG6tvtdVWq3bcccfqsY997EJha0AXFmi+UgKzJIEEvVmazTkYi8pe0AAc2N3g2muvrT7zmc9Ut956a7FUUObW0+wVIBCjYBdTAxSvIKar05qduANxExI349Ptgvhd609rFcvOHRmwRgFtPgFpyTacE7c2isDVyiXbafoFuhjL9DssOpLZN9100+LyNKm9n+t06kf+nhIYpwQS9MYp/bx2XxLQCkIhf/e7360uueSSAnrsfgBw4B7U+gJw+sm5i4QV42zR4gPYKP/1yEc+shBD3AnBmpiAHlYSLsQIHAIXfeIN8EG6IaWCNzs3MA6IN7hqGQ9vxqybVUZmL8IT+CNRhvO1HukLfV1uueVKWsNmm21WEtz7cQ330q88NiUwagkk6I1a4nm9RUkgkklIND/nnHNKGbGf//znC8CgGzEWcO71ooJDtLQAMXY4WHXVVUuiN/Uuse54A7T8DsgKdDF+Z0pF3eoUwNyWiE+tvp/85CfVD3/4w+rrX/96SaqHkOOGsb2OJ7pWIxlHJiu/S2RhPJBbXvziF1ePecxj+rlUnpMSmFgJJOhN7NTMd8diTCtWD/Fvyoide+65JffOEmICVQQW/o47FsS4mFZXtBzrFUo4HqsNav96661X6loCfLovJbEIKvEzMimdzWhxxRmu9xmQpF+4OmFSYvkRsyQF49vf/nZxg+qCFdxpA/B1F3e3LNJS9Rr12GC91ihywYpddtllq3333beAPG0C5rywTnHd5islMI0SSNCbxlmb8T7DgoxAZQwKxYvCZY+7j3zkI6V2JorYOFm38adI40eU9W18uD7WDi5LQI5te4h34e5D2QMso3gxLmOX/O1uEIDel7/85ZKHSEoGctEC5NP+mcLh+OqVaupjiCAt+K+99trVdtttV5LZcekiO8lDmc4wirsgrzFoCSToDVqi2d6iJRBz32I+HNbNNddcU1144YXF5SfYRdddq4sbD4vxLBW87kuAgr9xURLXQtk/4QlPqFZaaaXqIQ95SAFGd2gYVZwrukSjlQbwQ95xk1vcu8T/6L95jFqK3VSZqS8ClKHVWrD0XvCCF1TrrrtukU+0FBc92dlASmDEEkjQG7HA83KdJYCFYi4eyps4GTl3N910U/XhD3+4bAeE2w8F7KauEldatV535+nuM+amtQchBcVOtZIVVlih5Khh2QmMxry6tSg7j7T9ERHoPFJLSysQ8ss3v/nNsmvE5z//+bI9ErKhrwA58lGeTVeLlWg4Rvm4mEDOuHdf8pKXlCoulm/L0mWLneE8fxwSSNAbh9Tzmm0lYPxI5YsSp8LKmWeeWZS6Cl9CRp0cUm/cZO4mEgmWHIzFDTfcsJBTiGfF/DTP0wJdTN5fr1Mfx8q5sTQaFh+xRS0/Nr+lCo0b4RqDc+HQ5N6sMzodZ1wsYOUim5133rns1C5Dttfx5PEpgXFLIEFv3DOQ1/8TCaBsjesRx8KlSZWVb3zjGwv1JY1b4fLkeK2wVuKM9SktKYYSpw1idc973vPK9jvkpplzF5PSBR4tvFFZOMpAwo1js/KLrl9Aj7HQZ2J8JOeTsyjhxWT3djG4uuvXBQdyNV7IYoQY5y677FJy+TJxPR/eaZRAgt40ztqM9LmJyRgB7/rrry+kla997WuFSIHi1ZUp2OmSi58Ck3ExP3Vp4sokboeFh+sOV6ZuQC1DryPYCT6jcm/GWGRks0Zyi2OWrML/pG+wOe5VV11VyD7k/emq1HoT1OJ5Efi09oxzIncBcPXVVy/VW5Afc2J/otxm5BbNYcygBBL0ZnBSp2VIdQq9/wM+WBdYLFh4UPWN4Wl1RKUdx2sbdQKH1VmwiCCnPP/5z6+e8pSnFIamMaoIjLYZGY3jlGurBUL9O/43/oicyOsjDvrpT3+65PmR2qFrtr7BbtPYrG7jp+xQgO+FL3xhqdtp/FUATVbnOO+UvHYnCSTodZJQ/j4UCegyREECcu6cYJzuuuuuK4nnWHgCVj2frAnstMgiYYXvqDHJXnJspopbk3jYqFyVQxFii0ZxdZrGgbxwD7tbPDl+VHxhzByj27Mfy5X5YpcGXJ3rrLPOA6y9ftoblXzyOimBBL28B8YiAUEvgo5xNCj4H/zgB4trTssOJQv4NVkRtsdgYpvW4Fx66aWrbbbZptpoo41Kvh0vXXdjEcCQLmqius0b//vRj35UXX755dUFF1xQ8TeAX8+H7KVLLiyw9Pbaa69iPTt/CXq9SDKPHbUEEvRGLfG83oIETHJGSRozIhZ16qmnVp/73OcKKxGLROWsRdhKhDH+xt8x/46dA7bccstSWoukc16C5yy64uICwEUAsqOqCzFSdqLA+kNOMabXy61pPiDnYzm/4hWvqJZYYolCqJlFmfYimzx2siWQoDfZ8zPTvYskEwCOWpPk4WGRUHqLl+QKrDdBskkoxp1U+qQiQLN/0YteVCqKAHgSWSRfjCrRfFQTWc+xU8ZazLg7b7zxxurjH/942ZHCPfs6pX3U++/xyA+r8bnPfW710pe+tBTgTtAb1WzndfqRQIJeP1LLcwYmATdOZbfzs88+u7r00ksLAcPEapSrm55KmGi6uACJVYMiJp9s4403LoCnBRL3rOP4WQM9ZKNMGat/R5IOuzYQK8XiAwABwn5cksqbttmAdquttipFqmF05islMKkSSNCb1JmZoX6ZCqALUuDhe0ANFyZpCWeddVax9nRjxmRq40X8ZiUWRETFFKwVLRYAku/WX3/9UjOSXQIAQK1GPiPrsR9lP+lTE8cXGbIx2Rw2LK5k2LFXX311icfJkFWWMVexPmZdyM4Hc4qsqdqy+eabl7acGxmjsyjrSb8Xsn9/KoEEvbwrhi4BrYyY5K0bDmVJ/I443l133VWUZb1CSL2D5q9p1fAJcJpbhtLF1bbUUksVgJw1hma/Exbz6UjqZ4FASTdcyuxJ6N6DWL/8ZjmzVtdzjrQkAT/mgHql++yzT7GuBU3abcrJ7HcseV5KoF8JJOj1K7k8rysJqPhi+oB/ozDZBPb4448vuwagbLUymhoHwCS9SIBxRwAsOiw8XGyQV/h+Ft2XXQm+xUFuy4RMADTTRAC+D3zgA6V2pztZ4KIkr89SZvXmmFerwDgfJtAzBwceeGAhtli0ulUOZL/jyPNSAouRQILeYqSX53aUAIrW3Qm0zFCAKF6o86effnohrkBkkajSLiE8uuhoTzcb9TIFPKqtSFhJ0Pu/KXLD2DgfJrSzS8MZZ5xRrG7iq4KaQNYK9LQMsfJwZXIOx7N7PGzZl7/85SU3Uksv3ZsdH5c8YAQSSNAbgZDn+RIq1XpZMCwNiBTk47FTAApTK69JOfo9ShYrg7YBS1ia0Oa33nrrsqO55Bflnu7NP0hCAFM+xlh1F7NbA3FV0hrY1YLNcpmndla3u1wApNYARd6cu9tuuxUiEYCYczDPWmCyxp6gN1nzMZO9QXECUlp9KF1YgyeffHIpisz/uNJ0l7UDPZQn8Sjcb8aRqLJCSSz2wcOysIyZe+SNcleESZ1Ak9ZNJ0DG0fIzJYT8vfe+971lR3rmrQmsrJzDeG1T8oolztie6YADDiiVW3IOJvXOmL9+JejN35yPfMSyAo0jsQHqCSecUHZPkCwhIJqeQCfrLEutRt1lgBslsEiMXm211YrL1KLHnG/eXloZ/ydLrT1k5d8x9QBrjQ16AT7SGuoLECuxMBfMAzJ27gQ763Myl+xgsffeey/kSNbba+fKHvmNmhecCwkk6M3FNI9vkFEp0gtAjvQE6mr+8pe/XNiF2x6qVHW9SYSJ2wNpNbA7Avu7AXxYfp5LW/X0iPFJYLKu3CqdgR4CVAChLmPqdJ522mlld3aturgZbTxe4PIT8LP+J5b3nnvuWW266aYLuZL2IeYR5sJksu6TWe5Ngt4sz+4EjM0SYrL32Dnh6KOPLoAnm7DezTrQRTKFjEzIKhQ7ZidvtgVKksTiJtuNe5U1CevXXnttYXVCcmGhoVXO38xrE1BJLuI4XNG4N/fbb7+yFZELE66jpdgpRWVxI8uzUwIPlECCXt4RQ5WAOyRwEXY9P+aYY6qbb765kB46re5VkBEEUZZU/9hhhx2K9QDgdWpnqAOckcYtCMBCREBiX76LL764WOW4pK2So9XdtNDAyqPqixv9MtcU+8YqZ7FivqDgSHs5hzNyI03BMBL0pmCSprmLKDzzwigzBluTF8SVphqNbjeEG8wd0bUUYQJCh6fyB7slSJ6YZhmNu+/GSnVvGpvje9JKYHSyO4PuS/PydFO26r+FApgv6qguueSSZaEC4Yjvoitad/S45ZDXnw8JJOjNxzyPbZQoP6wIrLt3vOMdxdqDDk9eXZN7Myady8CUHLHeeusVi4GSV/6GlZDuzcVNcYzL2RIyZe7uuOOOQmwheb2bXRmYK2J5LGy0Cml/jTXWKNsQQToSaKmYozcg53Bxc5hndyeBBL3u5JRH9SkBQO/HP/5xKTPGDt4oONmcsbZmbF7Qk41p8vOyyy5bvepVrypKExeaSlLXWCrN/iYpVs2R8apljdWHtc7ehieddFIhtrjdUzuXJMcw17wkrACEW2yxRfWyl72s5PHRtizSTGnob+7yrN4lkKDXu8zyjBYSiEWl+TkC2kc/+tHi1qSYNIrQ1X07pWlciU/aIo630047VZtttlmx8LQguFZuZbO4WzIWlo4AaC4fc4DVdtlll1WnnHJKKSag29nEdubAOpxx/p1jE+Kph7rHHnuUpHVzB01/yEXL4uYxz+5OAgl63ckpj2ojActPyepDIcraxJ35tre9rbrpppuKkou7JLRj/3k52ZrsmADoUX2l7opLZbm427NdrpzAhIwhs7z//e+vLrzwwgJwAp0pDZaXM57XKicPC3CttdYqhCbON46Ylt7i5jDP7l4CCXrdyyqPbJCAG5QCUJEFyOHvec97CgPw/vvvf4ArC4uvyUKjPeo3YlFQRHrNNdcslHdKjCXAjfY2jKCH7NkJ49hjjy0xWlMNmC+Br92ehxJfyKnE2qMwOC/aSWt9tPM6z1dL0Jvn2R/Q2HVraTGYGH7LLbdURxxxRCGvSEtHiWoRNl2e9nCBokyXXnrpUtHjGc94RnFrJugNaNK6bIY5ZSHDC0BjTj75yU+W/L277757Aaz4nnl17ls1H5PRcVdDbCJOmykLXU5GHjYQCSToDUSM890IijGWCAPYsNIgPuAKM56j28uk5CYii8WLH/zgB1fbbrttobo/9KEPXbAm5lvaox29rmtrc+KeJDZLjBYLniIDsa6qJcla9bJeMQdLD4uPFIa09EY7r/N8tQS9eZ79AY5d4EM5yvZ7+9vfXt1zzz0LxYYFOfPvmkBPl9eqq65aHXzwwWVvPLcISktvgJPWRVMmqwNskFks9I0VT3yPrYgkJlk3td12Tsw9x1OphXk95JBDqtVXXz0LUncxF3nIYCSQoDcYOc51K8b0TCpn9f++972vWHmyOmVjIihAMe6mXReehAjIDpQZQ4nyduuauRb2iAcPSJmMzqWN3QFa7LgO8DmnnXL4TIPgeF2hVGrZddddS95mLmhGPLlzerkEvTmd+EEO25iejE2KFR933HElPy/G+2Rr6ubUpRUre/AdFsXuu+9e2Jr1vdiyXNUgZ667tgSr6J5krikyQFzuyiuvLO5J63c2WfB+j9UIaGLxEbPFmofRGVMn6JkxwHR9djdPeVR3EkjQ605OeVQbCUhgQRFSc/Hd7353dckll7QtSqzV4KpfhUkbK6+8cnXQQQdVuDe1LKTI50RMhgRkdbLv3r/8y78UN7YklnYWG/PIQob7hPggFvxWW21VvfKVryxM3Zg+kaA3GXM9a71I0Ju1GR3DeGLeHFbeW97yluq+++5rSzyRGMEnri43kZXOvvnmm5dSVlqBsgPHMLy8ZIMEAD5cztRUxc0py7MJ9JhrFjeWj3NusfZe97rXlV0YTHY3HaJdDmFOTEqgHwkk6PUjtTznARLQhQlwser/zGc+s5C43E5UKE2Zf4AaSvGZz3xmtf/++xcqu0rRyiBWAUnxT4YEBKhvf/vbxZ1NAYJ2cT1reWLh8TKnk3nfZJNNqiOPPHLBHc53EmcmY7TZi1mRQILerMzkGMdhzIf6jLDx3DaIVX1TDM5zUIDu00Y9RnLyUIASXXLFP8aJ7XBpQY95vuiii0pRarYjaldpx9qeEmSsocoWUZxPAQJetEHaCwSXfKUEBimBBL1BSnOO24Kxefzxx5ctaIjNsIqvExOieIzV8R3Hofw23HDDQmBhzzUVqudIokiG32TcZJJS3NqJQtQnnnhidf311zd2sO6qdOFj7G777bcvsT1c3MxzsnUnY65nrRcJerM2o0McTysQMz+PbWdwbbL/mhX227HuIojR7hJLLFEdcMAB1frrr1/OFxSjizPjO0Oc3B6bdi4APXP4rrjiiuqEE04o++c5v6afxGLUzm0kvnCvPPzhD6/e/OY3FyJTXNwkY7fHycnD20ogQS9vkK4lIOhFsgGrcdxbbB30kY98pJSpMl/PyivtLmD1lec+97kllveIRzwid9HuekbGd6BWmtYY9wSVWt761rdWV199dUlH4Dvepii4mKlb7/xv4elddtmlbD3E+fG48Y00rzxrEkjQm7UZHeJ4tLriNkK//vWvSw1GihDfeuutD9hyph2pIa72obBjJT71qU9dqLwyxGFk0wOQgMQjPgUzAO6aa66pDj/88IV0FV3X3Ce4vTmm1ctSdaussko5/9GPfnRWaRnAPGUTfyqBBL28K3qSQNw2BrcT+Vaf+MQnym4K/O2KnUb5PSae1y+EC4tjnv3sZ1evf/3rF1b36c7qaUrGcrCgV3d5A25vfOMbi7VXd1PrCm/VYe8V6q3us88+1XOe85wKckvmZ45lemf6ogl6Mz29gx+cK3VjNcTwcGldd911C3T1SFBoAj3jOY961KNKjtbTnva0QmixLufge54tDlICurgj6Pk398Ib3vCGUnXFTYABMzefbdUPY3i4xInr4uomxqcFOMi+Z1vzLYEEvfme/55HH4tGszq/6qqryiaxlKRCcUX3VTumJcoMS4AdtA888MDi+tLCS0uv52kZ+Qmx1FgsL2eqwZve9KYKchPAh1XILhmAXtNmsaYycM+w7dBhhx1WKvKY0jDyAeYFZ1YCCXozO7WDHxhA5cpdNyaxOPZX4wWpgReKyuOaAIy2IK1Qd5GEdEEw1nkc/AiyxUFKADBz09hokfH95ZdfXlJYcHca9yMW3LQQcsHEJ8AImeUVr3hFKVmWr5TAICWQoDdIac54Wyg2i0qjnL73ve9Vhx56aHXnnXcuKD9EYHxGIKOyBmw8AA0wpA1KjLExLG6sJZdcsvyme4zzJyUfzziUSfKMr546EdMq+L0e9/S2qMe0YpvxGP9WBvG8uIholfc2SivZ69fHz/zi9mZrKQoWsBiyCku7GK+yA0hJUn/Xu95VUbDAly5VxpiLoxlXNkMcXoLeEIU7i02jbFzhk6Jw8sknl9V8U04eCgyCC6QElKFbDJGATCI6xYb5W0Dl+FEq7qY5Mq8sgm8dfGKuYT2fsK7cHVP8XusmuvaagC66E+t9Fnxageg47kH6CtCde+651Zlnnln95je/eUBNzVZ9EsissQpIEhekOk+rBQHfTcrCaBwyzmv2L4EEvf5lN3dnaokZp2EnhC9+8Yttd71GmZHADLCRz8eLvK3HPOYxhZq+4oorLhBgJqmodCRqqGBbgZSpF4JS3SLUMqwDuQqb69hGBMZIEKkDal3hR6tnUoCAPpPCQvHxH/7whyXmyz3QBN7223qc3AsbbbRRddRRR5X7RRkx9pgnOncPYQ540RJI0Fu0COenAa0fFNfXvva16lWvelUpCmxcp2kFH7cNIl4DCO6xxx7VzjvvXNxeKHtX+pNg5TETw2ANAAAgAElEQVSOSMl3XIJeBCnTLqIbFMXtO7ptYzu6cJEHVrJgqSyiRVh3H3qt6A6ObU/CHUnf3GaKmC/eAOJzyLXVi3sLFzgWol6DhzzkIaXCy0orrfSAknaOe1IAfhLknX3oXgIJet3Lau6PNFaF0sWtyXYyAF67l5uLGucT5CguTCKyrtJo5UyCMqvH3+IY+Q0lDeDff//9JX5FNRL+BuCxhPmNvyX0aOUKdsiFvwECLBmsIIorE8PiDZuVLXeQlwzGCKz2R9fmpCwW7JeLBmpxUoScOW1HZHGfPWu2shhAjvvuu29FlRat22gpToo7d+4Vw5QJIEFvyiZs3N1F6fzgBz8orsnbbrttoTudWHkxUZ08LNxWlprSyrOCyySAHkpbyw7A+tnPflbA7ac//WlFcWVAjr+JV3EsbyxY/+ZTC60e39M6jIQdWYsAIHJB6QOE1CSlOgkAyBs6P79zLr/XY4WTAH6M1zglbs1Xv/rV1R133FHk0xT7pd8ugARMAHCdddYp1XpIeeBcj6lbv+N+LvL60yOBBL3pmaux91RldOWVV1bHHHNMWYnz7mTtWVUDRcWxVF/ZdNNNF1bvWgFNOVz9DLydUowxMK0nQRn3GmMC1FDY3/3ud6vvf//71b333lv+x4LDbccxWm/0PzI2W/W3FQDWAUurTauGdgE43oDhP/7jPxYQBPiWW265aqmllirMV9yAWIaSgCIZpulv+zMMkJThq0X88Y9/vKQv1K00ZQaY0XddoJzHvca4ATsILWussUaxeG17GP3u5z7Lc6ZPAgl60zdnY+uxridKjp133nnFEuoEehaU5hMlh0uTlTvbB0UlH/9ezABtRwUb6e1NwAMoA2SkYJB+QS1RNkZluyRclvwm89S4ZivQ8NrRNVoH3zob1LG2s5QjMAMOACAgByP2kY98ZPXYxz62WmGFFSqq20D1xwI0jzISZqI7MMZndbUuRu7xXBYDsdj4j3/842q33XYrCwlexkQl8QBmsoLjQoC/AT5iv2w7hCvYGGmnhdagxpLtzJ4EEvRmb06HNiJW3/fdd19h5JF/xSuCSzsLh+NQhC9/+curHXfcseTpDfoVAaYOcCp5XWQoVPPJvvKVr1Rf//rXC8sQNyYWB25LFbQWif2NcTSvUz+mfmyrvDLbaZWmwPm6AuM1tAL5zYUEciXRXwvwCU94QtmeB0DUhSzjMQJydCsP0qUsAzMuENgy6OKLLy6Ap6wk7ejabHU/MEZqs5LPyXhicQRlMej7KNubbQkk6M32/A50dCirm266qex5BkCggNw7r2nljQL0GFxzAOaTn/zktmkO/XS6bjXahsnwWEcSKQCJb3zjG2VHAOKSjIUSWRwLsOPijOOpK+mYniAwugBo5aKM1hzgIvB0Ar0IrsYBdaVqJdFPY6GMDwsQS2/55Zcv9Uyf/vSnl78FTvsSxzBoV2EEafvNXnvEcfEMuOCgL/Tf0nVNwEt6C2XJVltttQX2p/HQQYJ1P/ddnjN9EkjQm745G1uPcVvh1jzllFMWigl32jA2KkDiMgCmK/Z2m8z2OsiYu6USFQxU8MTjiNHdcMMNJb+Qv/lOIGF8ut5UxnXgMU4VLVzdgxHMBEPHH0HU4+rWYV2RR2u1DlrRVRmBlusyJ1wPcAfwIA495SlPKS5lwF/XZ3SbDhI8aFfCCf1Brrg4KSx+++23LwCd/TYFoclTgFcAS2+zzTZ7wGIp2Zu9PiV5fPEO/L7+NKVcUgINEvj5z39eiktTZBpFJqjUlW48XQYk1seLXvSiUk8RayQqxUEIPIJetGK4Dv+jbHHJfulLXypghwvT49z4FjCgv+aS+WhES0g3JX0WpHTTeT7/6340By+OURefoMcn/dfStM9NIBCVvTEu+6Al6SffkwoB4GH5sfAg7hf3toss0kHMBW3o4uRvLGf+J83lYx/72AIZhd8iyalJFSHDLbfcsmw5BJnHBcUggXpQ4852Jl8CCXqTP0cT00Oo+uRckbJgaTEspfqO2HUFz/+QLKCuU1zaZPZButW0FgQU8wNJK8CNScV/aPO41ySlREtQIBGkaUfgklABccQ3II4C5pPxc6wMStmIuh7r44ygJ9jRJ8ABWj+fAB/AzN/EF3/1q1+V/+m/IFJ3C2qlRhAXQLHwYHk+/vGPL+C37rrrFuan4xwkgNRZmo6XItQnnnhiSf1ANrxZPEXLs36zOx9PetKTCgGKtI04xxPzcGRHpkYCCXpTM1Wj62h0O0WSxbXXXruwKzbKGaUP6HXaIZ321l577VKcGpo9brdBWHpaBrono4QAh5tvvrkivQJXJukG9Nm0CNMvTFWgLX5jTLxxwRKDBBigzQN2AIfMSYDO/wW1enWVOpAW18qDHlTedddltPb8G0Aw/8/0ED4BPwg35goyNlimsE0legi8uhq5pikNuAvXWmut4i5k+x7AOlpZrSzcXu6+uACJ9883v/nNUoSauDCLBQG50+KH/tBn9m1cffXVF0ByGBZqL+PMY6dTAgl60zlvQ+21oBdBhb9xT51++unFrYdCRlmashBX97Fzgsq2225b7bnnnkV5xSTjXgfSFP+JShvlj3XHju4wM6G6G7+KBBBAi41KiXtB+4f9CAsS0KOfxsboL4AWK6MIXroyo4vXa0XrKf7t74KgMmplIXusrtCY/I7FZ94gRBysQVIuIOaYQA/Q6/o0x415oz+4PLfYYouySzmbvNpHU1MGvZcdQM3OCZ/+9KcL4LlY6WRl+vsBBxxQcR+5cMmYXq9PTx5fnrmM6eWNUJdAXKnrMgPkiKkAIlLMAQ1AD1p8U01FjgV0qNO5+eabLygs2+1V+tFCihYT/eNapFRQ6/Gyyy4rCeXS8gExYlu4+LA2iWvxSckvQU7LTdKJ7dfBv26x1ZVvBDXHV1fssU2O8Zx4brRktIaia1QwM8cNGeB2BggBQVy799xzT4lhQiQxHQNQw1qkTzAjKRQA8FH5hTa0CjkOmQzqRdsf/vCHq3POOafME/eFLtp219DFSeoCRRGMk3YCy0H1O9uZLQkk6M3WfA5kNNFSEZyI4+20007FhSaZA0sAJQvoNSkvzicOw07axGV0a/arsCJJJYIS7eI+o/oH7jPiYFhxWG+8Abhll122uCwBOawdlG69igkCjGSVVgsCrisIaXkxfqwqySh+RgtNcIxKG6uFN+0ZA5QNao5dK8CMoOnvysbf6AOLEuZMELS6DKCDRYhblAUBO9gDfsyVoD/opHX6deONN5bYHAsS/m/nGq9bvricP/ShDxWrtGkxMZAHIBuZaQkk6M309PY+ON10kiFUoJAQjjzyyKKocKuhqFGOKHqJCK2uhuIlV+yII44oVpXbDEV3YC+9jIAs6NFX2Jmf+tSnyu4PlOiyQgnWCzE5AA4Q0WUX0wUEdlMoIoBzHBYK1hPuQ97E0JABgI/FZHFpC0y7wwL90p1qonZkWUbWJ/K05JhuVcCZfqPktVIBKKwvC3e3ska1RP2MrFBAkDnA6qPyDOCjJYjMttlmmyI7X4OufALYEttlgcLCxCorTfeA8+3cUA2I+LALk34XT73cc3nsbEkgQW+25nPRo5H6L+UcpcPfJJVTUUNXUz3Xq0n58P2uu+5aKrGgrGl/sYpUFx9tAywocvZuI6UCSw6LAJAQmGNsKlpFdcIF/9MG1g+WLeAG0xDXIJYSIGchaUDPt0I3Fqa7Msb9mty/9kcAjKCIvIwlWn6M7wBBYo+8Idrw6ZgBXgtS0w8tUWQmY9I4nztCANyAEeOlLeKbLBSiRbvoG+uPDTBXxIZxc3IvWK4sxmTr13JRwvxQzQdXeYLeoGZk/tpJ0Ju/OW874gh6ghMrcva/Y3VuvMc4Ekorlpuqgx8KGHcW1h4v3YKLISFEF6egjLVF27ACo1suKlP/BghQ+Ch/FD01N3mj+GFEAnwAHL+7c4JA2yr2JsjFuFu0ZGPs0WPjJDQtGARlz+dThihzg5XEmzETq+RNjA5XLm5KLVzBn/NtUzKSIKt7lt8tcD0MK4qFAsUB9t5779JfGZztQE9Z0R/Ypu973/sW7qVh9DFVwmxLIEFvtue359GpfKIVRPFllBQWkGCl8lfR68YTBCWQYHmddtppJa5m2/zWzuJrpwBjtRWtTt14KkCVu4PnHKwZAI43sSxiW1hx/E/MC7clwKkSruea2XZ0r0bh9uKujeNrp7Rj3M72ozszjtcUBVyiWLa4QZE9rl7eWHD8r6vU+WGcMYE+XrOeSlCPp/Z8c/0xXorlTPwQcMU67vRyzPQTC/6ss84qn4wzXymBXiWQoNerxObkeJUfn+S6Ec/D6ml66YLi90hWWXPNNQvjzkoagp2VOFq11wR6fK8lWrekIhigrOkrVhvAJnmDT74D5AA43ZEmiEcrqCkFYxqmX/kBCliBkHZ44wpl8UGKBn9rDQI+EUC1Rt3xXhYpMoluxU75dU2ywoqmMg+xRGOr7cAfsHPeGRO7qVOHc7Fu8mmYy+zj4CWQoDd4mU51ixFMVPzU2jzzzDMb0xI4R5ciQGIbfLf77rtXL3vZyxao7wJiO8uoHehZwNq+RVo/ihGCBpVXbrnlluquu+4q1infcR5AyKcEEyYqnq/FqNKfxomMeYzRrcrfJtQDhLg+IflQKYcdGcxT1O1p1RyZpcokgl6vrsXoXga4iOt1akPPgqDH/1T22W677RZc5dM4T9nn8UkgQW98sp/IK0eliZICINj0lWTvJjIGx0lIENQEJ0gL7KqgcovKq53V2PSb1gbtQOrg2gAb8UZyCIkX4T6zNBpuTUFO1yV9NWGdGFOML2p59GvFjHtSTXRXTgJ5dEPr0qTKDG5QQBBmLSkllChbccUVy3eQTvi0ygty073rgqHX8Xo+9Vtf85rXLBT4bmqnDtz0/YUvfGEBvkEWLO91HHn89EogQW96524oPY8reZQdrMWDDz647DfXzuVnHUXJFlhV5lWhUH3VY4GtBtGJ1GA9SpKv6deXv/zlsumrVUms9kFfTL1Q6QsGumOjpWffoqt2KEIeYqP1eGEEbxcc0ZJ1zMwfAEfcj5QFdmVgXz5igQCjVVCsldmqkHY3w9LCxwqH1UsstZO153xwHIup9dZbr+R96jLv5rp5TEpACSTo5b3wAAlEUELBwGp87WtfW8patbN+UJruQ6eLjHgeeVVaXSqvaE32AnqcR3++9a1vlRQF3JikFliEWRZpJJ0I4lo8kYgTr90JaKflNolElLjQUCb1uFyd0akFDdjh+nziE59YrbTSSqVQNf+bRN+PpRfvLeKquL4Bv27uB92tgC4MTkAPgk6+UgK9SiBBr1eJzfjxgoTWEtvxkHIAnb+dO0kwUYEBmGwlhJXoea7y28XzWokX0gnKkY1fsepIqqY/MZ2gDmCRfBFdZH4fWaD0px4jlGFaJ7dMCjgyJhmYjsXvWvUxyqCVxa5clIX1RiHAYLFDfsHy440liFUYXaZe2/vGOY+MT/vFeZBZjj766FKH0wVJ06PlHAB83AvEH1mIUTS7k5U4449rDq8PCSTo9SG0WT5FBWPVlYsuuqgUCcZ12GTpaS1g0WF1EWujnQMPPLB68Ytf3KiYBL8IOFYPoQ36ANABvMTrADurn6hcF1wWf9y9gO+lwVvWi0/jeSpYASOeH//m2m4ZZIUVk7snAfhknApO9D1W0WliWkbQ1/JuNx5jtG5NRM3SVVZZpbg/AR9cjHWXMX2hX35vLmC09LhPPvjBD1annnrqA3adaLL8Odf7C4uTBPXnPe95CXqzrIyGNLYEvSEJdlqbjXEtFB7Fgcmzk/DRalxxtY31hXVADAgLkfhLu5eWheQK/gdkoLNDdmDTV8COBPlYHqzepq5NY00qdP7HqtAS8VPCB+3U42B81yr+ZdtNhJ5RzbmLBaviWCVG12MEoThujnMerdriWJospkjy4brMKwQYEuCf9axnlULVMEFNmjclRcsyAqsLKn7jOAqDv/nNb14oct3pPjFGS4xxt912q3bYYYcks4zqppuh6yTozdBkDmooWgwADTE5drtuZw3wm9sFcS6gR/LwcccdV2JCrV4oQK0VY35YcQAcG74Ss8PKg+gACEqQaccgVcEKBlp8UfELGJHYEt1u0b0na5H+ayFp1Q5K1otpJ8YutWAjIAroWrlaXFqFzlu7PgheERQ9D/CB6Qn4Eb8lBxCLsB43VWbMedxAmOLTr3vd64oXwf439SWSkmgD1zkFEzJBfTF30Hyem6A3n/PedtS6tGBHsnEn6QrtlL1go5uSVT/lsEhKZ2eDJtDjOipitsAh3YANX0k/oBQYoIWCA3zcC66TUhQctXboC+QH3HCwSLFKKH9FZRLTLGgba5BrEiskr8/6lAKHYzTWN87bRjkbN8Nqs+YoYwMI3KFBpisLGFI5SM4njSNahe0Ax8TwGNt0YYCsuQ4yJc73jGc8oxSDxv0Y47hRVpxjXVeISIcddlghJ7WLzQnk3AeySHFtHnTQQcngHOeNOKXXTtCb0okbZrdVcFQwgSWH1VWPobUDH35DAUI2gAXY6qWVR2yHrYAAVnZKoIIK36E067seGCdq1Z4xOt2WKHusDkgYEB6wQgBgthvCQtG9J5i7BQ/AwJs4IjsQABJavvZZxTvMOWjXtm5exgKxhN3EGRvWdSy0TRvuBuH4WFxgQQM4LGo6uWp1d9NWnZxiRRTaQNYku0N4YaNX/qZ/WnbRTeqiCqse9yYu7E6v6BrlWPIJub8A2HylBHqRQIJeL9Kag2Nlb/IJY/INb3hDKeOF67FJ2Qs0KjZW8lTMYNPZplwqlCntsv/dddddV2pgujWP8T2VuxuZukt70zRoEdAPlD/Ai0UA4FmcWUXNp9YF19N6oQ+8AQRAmBJs5AKaTxZZkOO6HQDtNdZYo8TTsLAEOndlqFtNujf5ZGyMBeuKhQZv/u8mGT8yPCO7VYsZeejaprYme/RR6sy2nR8tS2R8/PHHFwZnO0tP1yYWrK5uypAdfvjhxaOQr5RALxJI0OtFWnNwrIoJ5XjbbbcV9xOAhLJpx95UCQJUKL7tt9++2nnnnQu1nVekrlNBhbYvuOCCUi4Mt6IWQVSMxtq0MHSHtpoGFCNWDdfjWgDBIYccUnZ3kE1qbI/z63E8FbG/0QaxJt5YIhdeeGFJgI+xQN10nGPf2invXm8fZKlbVUsL5iSAghsRSwowj3G3GOerx+GcQ2X12c9+tmwZBeh186qPTSvQjWCjNcZiB4bn5ptvXgDaeeE6LpJwKcMMhiHswqNpbj1PAAfsuTfJ2Yt1XAcp/25kksdMnwQS9KZvzobaYy09lAtuR1bTxIP8vtXF+U1CAYqMuBLVNgA+a3KiIAFS3JdXXHFFde211xZLz/iSRJhoTfQyUM6LG9QConvuuWchPPBbPVfQtpuUpDFE5AAoANKXXXZZdfPNNxcr0PYikPTS326O5RqMCVcsMn3qU59aAI+0AUBdoO5G0SP/yEg1ZYC0Aealmza66TPHcB3rfOJ23WijjaoNNthgIbmda3nND3zgAxXvdu5zQV2w5Fjcp4Ae4B9BLy5euu1vHjdfEkjQm6/57jhaFSOfpAywuwIWVLuXgIhSQplRwR9mHa5FV+gob3Y1x5UFWYW4mS5F3WOcaz3NdmzRJmvAfgigxPJQjG5rJKB2Ajx+j3luxvIA6auvvrqMgb/N/5NsE62yjoLu4gCBiMojgB1xLJR93BWhm7F4jGkdADXW9f77719SQ9qlgnTRzT85BDkDTG7eS4oDoAf4weal/1rGH/3oR6uTTjqpxHGbXsZd+bTyD6Qk5hbmaEyLiADZT9/znNmXQILe7M9xTyPURYUixP0Ie1MAagIiGXkyMSGP7LffftWGG25YrCwUGkBBXhaxJFyG5nMZv+NTwkhPHQ4HW/9TcANA3bXdvht3jP+3uh59VmkLgMbDPvWpT5XEauKc0QKOrtl+xxDPY7GBpfTSl760KHdYkrwAddMy6tdpZ7HpQmRs7HCAheWuGIPobwRXFjLeF/SXvhN/22qrrUruJnPDtS+//PLq3e9+dwHhTqDH75xH/3HrAnomqEdg9J4a5JiyrdmRQILe7MzlQEai4kYhsVkneXpaMu0uwPHGl1BwMOuwTGiPqhtYSGzeijtThUh7EhPqVlivg+E6VnFB6dEX3JJsm0NsD+KDiepYHlqZTaXVYrqEQEm7MDrPPffc6hOf+MRCHAor1h0Ieu13u+O5HrEwgILtmUiz0I0cySG0EWOUrdqMaQZY2oceemhxW/t9N0SWbsfGPLCw4ZN50IXNWAC+Lbfcstpkk01K7Bc399ve9rbiMm4HesYPGb/ypsTd1ltvvbCvnguQQVvc3Y47j5sOCSToTcc8jbSXKA+UPvvonX766cUdhdXRBBDGi1BinIc7jlU4cSjAAXbmnXfeWRS2Fh0K0UoiKqm4Wu83xqRyBKgFrvXXX79U7wAABedIwmglXGWgRcX4yR+89NJLC+MRco+J2O48YJuDmixjWLA1sWhIBcCKRs7xFa/bDrwYA4zUM844oyxCZMW2Iwj1MxZz+5zD6D6lf4yB8nS4bCkejjeBVIp2oMdv5ukpb0qRwRI2J9EF26At7n5kkOdMrgQS9CZ3bsbWM6nt73znO6vzzjuvgBWr66bqF9H9CViwfx57ngkSrPRRVFpzkckZUwBU3lpWvQogEhpoC+ULyGHZQe9//vOfX/LarAAjQET2o1YT/TXWSPwR6wi3JjlulvKqV3zRfWg6hDlwdUu5Pv5O1h79BPjY7464GGxI4qbmJnK+AOOn13CMuAQBPKxUrCtfMkT7XWS06nu0jGNZMq9F35ZZZpkC5KQ0nH322SU9ph3o0WaMNzO37L6+0047LSw+nLtBWq293oN5/ORLIEFv8udo5D1EWaPQqZ1JHA4lEun59Q7J1gMMOBaFhrUH6FHdpBXzs2k1vphVejxX69H4DqABGJM7BpUeKzQChSSPyBAktYKUClispC3gnlWx8hnBi/9Nu9CyERQBTxOytRy7sQpR7BF8OYctfnDVrrPOOqX0Fy5DLWZ3OdfydiwwZmGfAtrsUsEihIUACxljuMO6yZwTZU1f7SdzALGFPEjuk26B1zax8iDjWFhcYGzySAxrjNnudEkgQW+65mskvUVpo2yPOOKIkpyNMlFpt+pALA8lcw/FptIfSafbXESAwS0Ik5P94Yg34u4k103GKE0wbkABawjQphoNlh6kFS0Nwa5+yQiYMg2jIpYQY38E5naWCecYAwWkUOgAFpVI6D8MVWj7pDA4D6YEUE0G646xAHYAS4ztRSu7W8BZ7FwyHt3CyJk4pUUJeu3DZpttVmLHEfSGDeKLHX+eP34JJOiNfw4mrgcoDhQsCuVzn/tc6V89F6pVpy1HFa2mQdPh+xEWoCH5QasVtxoWKWBhkjcgDTBgGVEiC6XMeYJD3bKr94XzcZ2ausHvgh6EDuSjbOJuELqH6+1FC9mybBzrAoRYFu3i6mQ80Pi5PhY3gEecjNgjgM04fOHqpB3OHYZ7s90cxZirVjPy6uc+wdVLxSBlXndT93Ov5DmzL4EEvdmf455GqOuIJHP2w8NC4NVuBW1syXw261oax+upA0M4mH5pzUW2KP0GECVCMEYAA5CwyohWmMnquipbdTOyBgUsyTkCoNZM3eJq1Z6xMauQ6BbU4tQCp4+MQeXP726w69xFS72XPgxyOpQPn9wbgK5x0H6uQxoHtWG93/ppI8+ZPwkk6M3fnLcdseAGnZ3amcRbOsXZtFRQupwHwJgg3qvLahjTIaFFl6PgzP+CmxVBLGrNWCSi6LKVHNPUx2jhyVRFnrjf3JBWhW9+XCfSTgSoJkswHqOL03HULTnHzPV5R+bjMGQf29RbgDzcxUJyU5O1265P6667bnXssceWuKbnT8L9Nmw5ZvuLk0CC3uLkN3NnC3q49vbYY4+SauB3TYpJiwMFiuuMz8hsHLeQIqNRa0O3o6AT3Y5aUtFyk9bfLmdR4gmKXDBld3HiblRS0fX4ne98p1SnoRoKFk8T8UIQ1SKlXxJzkKn9NJbId7oKI4EkuknjHNZJJsOeJ92PMjq9Xj+Ax7nEMt/+9rc/APT4Ps7bsMeU7U+fBBL0pm/OhtpjFSkWG6BHkWVBr4nAERVNPHaSVt0q3DoY0Pd6LKiVZRu/s8SWrjkBjrawcmVHkodGwWVIJ1gjAi3uU+KGbM5LzBRZ+5sA59ZIWEQALe26A0S0UAXtaOkYN2uSfxxLJyt+kDdbqznoF/DoFwxWEtstah5BdJLuvUHKMNtavAQS9BYvw5lqIVp6e+21V2EwCgztQG+mhNBmMMb4ACViUvxP/BPgkzBD1RFyAok5QZaJ8UFdpih7FhSUZ2O3A5K0OQ4rOZJnouxlPuqunReZN42zCfTmXS45/vYSSNDLO+QBEnDlTwmvfffdt8T0WDXHROh5Fll0ldatLKyxFVdcsYJKz15+sCnNy9OlJ4FF4IJlef3115fKNbg9oxvV3EjATndx5qD9393HrhPE9GKFmlFarvP8HEzz2BP0pnn2htR3FAcuuoMOOqgkZUd6/ZAuOTXNRtKICwE+2T8OoMO6YydzkuF1QxovjHFDXcIA2i9/+cuyuLjkkkuqr3zlK8VyxAUay4RxvOQYXdBTI7QhdRR5s/O67k3dulmRZUgCn5FmE/RmZCIHOQwUMUr3da97XbFCrDSScZI/kCQi9R65UyWFAspsWEv8LloexrE4rhXo8T3yBujuu+++6vOf/3x18cUXlzw75kBr0sR2jk+l/oe7ndJyFFBgcaBMMjl9kJpgNttK0JvNeV3UqKy9edRRR1Wf+cxnFmpYpmvtD6QX5cBuElgblDaDpYklptXhNkkmwwOU1uQUCGMun6kMkFpgzLLlzhe+8IWSLK9rNNbyXAwBZFE3xwSdvMUWW4er3wYAACAASURBVFSvec1rynzwjpb3BHUzuzJhEkjQm7AJmYTuoFx5Ey/B6jBPbRIsjGg5RVnV6fd1NmM7uUYAiXG6eo4cihVgo5QZNSOx7FZZZZUSu/M8AVFAi23HuGhMM+BcmaCCJFvtUNz6hhtuKPU/2W8OQDTXLSZ11/tZt8jrv9dlEY+3v1F+474nlU/dtcxODa985SsXypAp0/RIjHvGJvv6CXqTPT9j6Z3J2yeffHLZU8/cr0lQJk0K3jJW8XcJOPG3SESJQCmg675U8IALQMd2OI973OPKpq7sdoBlx3dxo1kTrVuBsd81gUkrAgY5j4AfDFoKRsPwJLeP0mLRSqTt2O8I3PXxtAI4+xYXNZNkSdLnWFHGotUAHkWn60SWSVicjeXBzYt2JYEEva7ENF8HWcWD3bXZ1RqlA3twEpRJBI2owAU2XIiu+PkOBWmNSeNigmFU7LIqdV9y7CMe8Yhq+eWXL28Ab4UVVqiWWGKJUvCZNj3HDWSHsSgwvgqbljgfAEgRaXag/8EPflCxEwQvx2wlHMkuyIP+8bIEW3SvmuwegVIQjZ/jegKi5UkfjS8zple/+tVleyLLmaWlN65Zmq7rJuhN13yNpLcSLtiKhu2FdHdOAujFKiTRwnHjUutU0teYU4dFJuEBRe92PBGoyJGj+DTARhUVCjlTSQXwg42JcvU6Wr+C7DAmJroySUw37gcA8mYXd1ifWIEWyBaI6Y/pEliMnC8btA5wysnFDv8bI3MxMYzxddNmTPGgL+7pyFxRbJoNgnUbmw85jMVHN33NY6ZDAgl60zFPI+2lwEK1EBQLCnbS8p+0VnTfSRJRcSMwlZ9KXiFyLEoTa4FUA2J07rqA+5IYnTsWWEc0WkfRUoyswfp1FjtpsRya8nenBhQ8SeyA2S9+8YtiBWL9kevHVkjs/cf3grtywtpzUVNfxERX6CTF9KxfyniZN/5nYUKxafYUjJVxkr252Ltu9s9P0Jv9Oe5phCo+FDgEChQLcaRIvOipwQEfbD/qBBEtEq0UAA3LDCUJo5I3AMf+bVpzsC8BNzYz1WUJyLljev1aAl+dhFIn0QxqyFo50bo1lqelGdmhACBkF8AB4guxP9ifxAUBQL4j/9Itk7AAOZZ3fQwCybitpihzquAwn4wTIhHpChQD8J5VJskyHtQdOJvtJOjN5rz2PaqY+IzVQEFfdg6fFNCTyYeio09YbbxxPwJg5Mnxyf/slccn4Aao8TegpquTT7friVaaxIk6E1Oh8nsra2nQAFFnaLYirygP+hbde1ZxASh0b7pBru5RkuJ5ExfkEwsRi5HftRD7vpEGdGJ0xWKlspBhTOutt1518MEHV0sttVS5UrSEuR/ylRJokkCCXt4bD5CAoIfSxDo44YQTqk9+8pMTIyXjN+auQTLZYIMNKupdAnJYcgAcgMZbUKzH3qLrs5UrL7pz/TseVwegYQioFci1uo79aiJyRDKIzFzjtAAJoMgbyxDQI1ZIfibu0nFbTcqexUnckWKbbbap9t5777KQia90bw7jTpytNhP0Zms+Fz0aQc/Y0SmnnFKdf/75RSkO2pLpp7Mx7oTLctVVVy0rfsgmApyxqknobz9jHOU5yNN6nxYlwOKDwESe4CQQWWTUem+ymNl1112rHXbYYYGZOkqZ5bWmWwIJetM9fwPvvYrFFIWPf/zj1amnnlpiQ+Ne9TtYgY/4Dpbe0UcfXS233HILbi7+mASm6cAnZ0gNWj1GVyn5gK9//esLI3TcoMeQo7uZecWaP/TQQwtzc1LuySFNTTY7BAkk6A1BqNPcpC4140kUQGbVT07YJFhO9oH+8SJ+t99++1XsXafrc9Asymmez276HnMUAUAWOlj4EF7G/XIuWYSZo+dCh5qnk3BPjltGef3eJJCg15u85uLoGNfDwnvta19b8sEEmnEKQQILfaA/VOMgpkeiMvGdVvG3cfZ3Gq7tfEt0gbx01VVXla5PwpxrgQJ6gN8zn/nMYonCws1XSqBXCSTo9SqxGT9eJSd4oGSOO+64UoPTPd3GKQJX9lh1KGkUITl20NdXXnnlhRiP40g3Z+fZQo7EyUhd+OpXv1p2IydNJe4I37mV4RxRT6VgPl/xildUO+64Y2Fy5isl0KsEEvR6ldiMH48ClCln9QvcXQAfv03CC0VIHwVh8u/22GOPavPNNy/MTX43pSBjPp1nzAo1yPOMM86oKD/H35Et2bmV4RwRWbT0k7mOlViGc9VsdZYlkKA3y7Pbx9gsfWUMBaVDvh7Ffcnnivl60Q06SotKF6dUfICNXbTN27I4sXUl+xDDTJ4SE/rrA2S+YW2+8Y1vLEUJkCmMXet2jlMgsRoOZeHe8573lCo6Gbsd56xM77UT9KZ37obac0GPi0BoOPLII6trrrlmgRUpqy/Wohxqhzo0To7eIYccUm200UYlDmWZLpLRk+zwB+E1gZ65bR/72Meqk046qSxucB1OgjvbaZdss+WWW5Z5hrmboDfOJ256r52gN71zN7Seo2BQeK7yATgS1N/85jeXuI/uT6uZ6EocWoe6aJg+b7bZZmW399hvXbRdNDHzh7QDPay6/fffv7r11lvL3HPspLiGjc/SH0g2bNwr4OWCZuZv24EPMEFv4CKd/gYBMYv8agVQwHivvfYqVTqsf4g10Gq3gnFIAOWHtUd6BUWIdb1OiuIeh0zq12zn3rzyyiurww47bMEq/u1vf7uwV+C4++5cUnLsgx/8YJnnGOsbd//y+tMlgQS96ZqvkfQ2Fm8W9CA1YOldeumlxcWJNQD4YflNArDQh9/97nfVVlttVdxfliFLS+D/bpkm0KP8GIXFr7vuujKXpghMSr1V7kEWWOydhyXva5Rx5JE8eHmRkUggQW8kYp6ui7iylkCgsiR3C0sKKwDQA1hwixE3a2dFjGL0Vu1gyxkU49Oe9rSSzpCKsTPofeITn6je9a53laLTvGTHxoLXo5jDdtdgXqnC8qxnPat4FyxNNu5+5fWnTwIJetM3Z0Pvcb1or4CGixNCy80337xAFgH8AL1ey1VJNtGNisWou1Sw7WWg5u2RrE4F/le96lWlHmes0hJzvriu1+7lOtN8rOXbtH75H8bmscceW7F3ovMe56ZpvMhV17b5fLEYOF4AN/SNnoCmxRHfcw7WusezaMHDQLvrrrtudfjhh1ePfOQjy73G8bmbwjTfjePre4Le+GQ/dVdGIRFTOfvss4tbE7DDOqDwc6+VO+rKL6YfWAqtVwEJaiSrE3+kUosWgQpZgoZswElwzfY6zn6PZ0seXoyZN4DyqU99qnrve99baqv28nLvOuWr9QUgsfDAG+Du63GB0XSf8L2gxyd95f7Ck0Bu3i677FK9+MUvXtg5fZKINr3ILY8dvwQS9MY/B1PTAxQatTiPOeaYsv0M7k2UJaDX6wtlKQtUy8L8un5cpSpNNkrFFbbOOutUBxxwQCE90D/b9LNpG55exzFNx8vKRO6ACpvLvvWtb62+8IUv9OyelrFLW25XhEyZV+TNZrZY7ia+W/WlnaUnIHKe59NPNoql7Ngqq6xS+g0oJpFlmu68yeprgt5kzcdE9wZFA+nhHe94R3X11VcXBYSLyVV+L52nLTZ3BaAoeYXC023VD4HC2J35hYDdgQceWG244YYLhYo5RouPvs5TvE/L1oo7yJtYHoWl2Tex15dFDIz7AX4CEXKlGDRFysn5w2LzHmkCPc7hftI6pH3BjUo7++yzT6mtSjumoSRJqddZy+ORQIJe3gddSwCFBaiwwSj1GXVtxjhMt43RFkqMZOO77rqruvHGG0vbuht7VWjG9PhEKdLW05/+9Oo1r3lNqd4RlW0E1V6v0+34Ju04xu+iAqAiPkv1lW9+85s9x2MdGwsegQqZcx8AcMidxQyuU3ZhN+bbLlarS5v5d6sj+ks7zCG5eby4puzSeXJNT9r9NM39SdCb5tkbQ99RTpAfjjrqqFKcGMXkJqS9dEciAikGKLQTTzyx+v73v1+UqG6yXtrjWNrEkqH+pikVbDb6ghe8YMHFSV+xSlTA8wJ6yEeyETKilNeFF15Y5N1PDNX5E/QkszzpSU+qdtttt2JF4g3Qgu9UPUU2cEyXoO1NNtmkpKDgFdDKiyk18zR/vT4PeXxrCSTo5Z3RtQRk//F5wQUXlOoYJrL3qny0vB7zmMcU9iAblr7lLW8pcaZe2xLw3G8NpU5cib7B9iMG+djHPra4y1Su80ZkcbwsKK699toia1zV/cRPkTdghgWHrGV9Mpe4IZH1zjvvXCw/iCiAFVY9fze5lHWN6p7mHmC+YGziopYtyjX1CMyTe7rrhzQP7CiBBL2OIsoDlIC7LKCQqMe57777FtekQCI7ELABdNrVbpR9h4VAGgQFoz/60Y9WZ511ViExRKKEZAj60U7RCZacCwCq0MntIr635JJLFiUdLb1ZVJzRTRzZqvzN4oIdMz772c8u7FQRZVW/25sWIBKHYPFyPQpBb7fddtW2225bXXbZZdXxxx9fmgLw+B0GJvdMU5oB12FuADUtz6c85SmFaANgurAxJjuL85aaZjQSSNAbjZxn4iqy9NzM89Of/nT1zne+s5AV3I+NT5RrpLQ3DV4FRg4WVuN9991XnXnmmSUWRBvmgUmW4bPXfECujbtz9913L1sPwQyMccN+rMpJnkytcZmQsSA4i4nzzjuvpJwAQLJm2zEhm+TD9y52sMiQ7fbbb19kDdPy+uuvX5Az88j3AGRTe8wrc4M1yDwDkmxe/JznPGeSxZ19m0IJJOhN4aSNq8vGZ1SkuK/Y2wyrQVKDVpQWVTuKOr9xPCt5rA8Yf3feeWf1/ve/v/r85z+/YJXFWE4/7jjOge7O9khrrLHGghU4i9aCYKeczJEDbEhNICfv9ttvLwCjZd4O+Nv9ZhrCs5/97LKx67LLLlsKF1DDE9eppBMtb621VvcvAIp3wO2Mnvvc55YC2A972MPGdbvndWdUAgl6MzqxwxiWCpS2TW6GyQkpwlhcZN4BaJ2S1l3h4xrbb7/9ivUAQebUU08tCtQdEwAofuvHMhNcN95445K0DinCvs1aVQ/GCnAAajEFhLQQAI/6msbg+F1rrel+aZK3FiWLCYgmj3vc40q7LF7YdNj8PRcW3hftUhZ0bwJ0AOeqq6664Nocxv2cbc6nBBL05nPe+xq1sbWYS0VyOnuwUYg6KkhBqolW7rEch9tt9dVXL65S8utQkAAfBa7ZwBYlSNK55JReO+82SVQKednLXlasEq/fD4j2ev1RH6+VbWwPcAPw2C+PNBMsa1IJdDu2cxm3c0ey6wEkISw8ZEteHnFe4oa4uekHiwoXSDI8W8kDkMRzgFsT4grtPPjBDy5u8lm0yEd9T+T1/k8CCXp5N3QtAdMTUGgmJ6M4cUWSsI414eajKDiUbju2Hqt+gAwFDNix8zkUdRQg8Z9zzjmnkFuIGeKK63cXb/pIv1Cqyy23XIkVrbTSSuWas/bSotIVzf/EXnEZU0UHEIMsgixkSEpQaiWLJtCDFEQM74UvfGEBT97M1emnn17aFkjdtUELr8nSAxyxUFdeeeXCAF1ttdUWKrrMmjU+a/fctI0nQW/aZmwE/VUxqfB0UfLpVkKAmS5CQOu0006rzj///AVquWDXKaaHUtTdxtYxKLyHP/zh5buf/OQn1Uc+8pHSLu2gTGUa1osYtyNjSKwxNohixc355Cc/+QFb6XBN259kC1DXojJWftwazI+pGSw6KBt3wgknlH0Qja1ZRUVrjPPaEVZi9RWOZbGwzTbblG2csPb4nWR3ChZwPa4r+HK88vc+4lq2ye98z73EeTvttFP18pe/vFiOzqlpEZa7s691OdT/H8GjkpeYQgkk6E3hpA27y1LGVU5cDwVL8vgNN9xQXFDPfOYzy6cK9Gtf+1rZnuZLX/rSgsKSwdmqv4KhTFBAjLgQuyOwCSz/Y91xTawUyDJaJCp53WZcR/BsdS2Ot0qL7W666aZFwZJbFsFDF9ykV/uIsVLB2hie9Slvu+226owzzihMSlNAmFPBhL+d66Z7ivOskYq7EVc0TE2AiUo3bijM/BDPw91tP+pA6rUFWY7TfclvuEkpesCc6CngGLa0YmGF25O8S8GtVfu0bQGCYT8n2f50SiBBbzrnbWi9jkrQvfKwHgAz3GSAGyt9Kt5DDNEy4hhILSQ9G8txFd/UWZWvqQgo0Je+9KXVDjvssFBVhbYolQWg3nLLLQvgZuUV+ojy0+Xa6loyA+mjqRUANsr7RS96Uckxi8AxDXGkmM4RLVljqT/60Y9KagI5cwBHv5v9RuYsssNKhnAE09Z6mwAhNTwhsFihpdU8mGDOb1hy5u0xf/xGbh/sWpPeuS+IFQPc/P7EJz6xbCRLTqf3VqzeIwgawx3aQ5INT7UEEvSmevoG33kUqNX4USKwMq+88srq8ssvL+kEWmaUmyL3DRehbk4KFwNOKCqPa4rpaWUwAs9HYZKQTBoEq37jUnxec801hTAjScLSZ7rF2rk3OdZtaszTAwQgyGy99dYFaMkjk4JP3ybZvYnM6KtbBMX0BPqtu/mTn/zkQlWUTsUCmu4kroFbGZDC7czcwKpkXt3vjjmBbQnpqJPcXFRFC4/vsLyJtUZL9Kabbir3E+3SD+YadyqLIup7GpMVNC2GYKrE4J+ObHEWJJCgNwuzOMAxWA0fUPjGN75RwI5i0ICf5ASULIqFlfeOO+5Yrb322gsV8XVzcq5uqFbdi64ujtM9CShhSTz/+c9fIK4Yz8OSJJWBWB/HAbKAmZZBkxhMgjeOpPuN89hoFqt1s802K23Sr2nYcT1a5LEsFzIhBkpdTVyNzCfjtdJJr7cK8qANwIZFjtZ9jKtRRed973vfgluzKY6rNS3xxX0YAVF2Reca9JO9+CBHffjDHy4sXsHdHD4sc0APoISYJKvX9hljMj57nen5OT5Bb37muquRorBg+eHOvOKKK6qvf/3rJY6jQkHxuLULDbJvHcqHotG4DPkdS4/NZqmw0qQAtfSM3biSx9qDuQcpAkvMmCG/w+JEoVNVBOq9ireb6i/GpmgvliID4B71qEcVVycltLBoVLJdCWwMB0WiUVyIAHIUeqaiDbHQSMrpFLtrGgbtIx8sYsgrpDvEAgQUH8fKI36o1d0OcJgzQZr+ERekTifJ6IyL+ac2KONgsSUweh5tc//hCsfbAAjj7iTeaCpNJPaMYXrykhMugQS9CZ+gUXfvW9/6VrHuIA9gUUUmnhYZnxIjUEoUGMYyI97CSh2wA5igsAOCrV4RqFRopiSg1KiVucUWWyzsuGAVGFxpxKouvvjiouToR4whtrqW/TVhWvdXPA/FDuhh8QHejGPSX4wLq4nxIPOLLrqouuSSS4qFZzkvjpEdGckv3Y4NcEEmuIAhkeiW9NrMBWkKWGcW/G4CPb5H5lrTuJTZAYPCBLhOATwWTMQG77nnnuKm5V5wwcVnjDEyR6ROrL/++mXhhUtcK6+Tm7Xb8edxsyeBBL3Zm9OFEUUWpl9qOdUZi4AbMRRSBCCOYFUZJ4tWAuepSFUsuglRXlgE/E8buLzYXob/I23dGBufvCKL0HjaCiusUEgxSy+99EKNSJQiIIcVAw2fslpYZihclCN94xjGgkLlhZK1z7pUHbt5h/wPeLN3GxYHivghD3nIgstVt6hu0thelOswYoGtaPkCHdfmd0AOoMA64m9ezplWoX1udbsjL+QoUCo/QIfal3vuuWdxI8poVX7MA7vTk5+J/AE94n/+bqzNazoWrkWxAaw0XNnMMd4EXLJY8pQw41za0pUe7zsZtoIn7UGAYd7wEjjPxortT7I6Z1jZ9TC0BL0ehDVth0bXooogApnWFsCAKxNLAUsPZdPLy9SBZZZZpoAG6QzLL798cZECTlghKByJKZ3SAQAZ3GgoW4C0njsHsAHQgCoxRGJxAqkWSHSftnOxSoiR6EK8iAR5Eq8Bwhjfs22tj6jU2xFpepFlPDbmtfG9YKcbkL4Rw6NIN8xa/u7XmmOR40KBeC5tP+EJT6j23nvvErN1zrSaAUas+Xe/+90L82MKQux3jP1xLrJjkUIFHgATFijudO490h4grTjftGPOYZO3gGN4c79QEg2Lj101XGgBfNYY5e/I9ux3XvK86ZZAgt50z1/b3muR+aCrjLRY+J2kYmJAkEQoI6X11YtYaE/mHG5C8uxwdeL2/OIXv1jACQq9OXLuidbkgtKNyqrduo7RUmQcKDL6/IEPfKAoTQk4ApFWRbv8PYGRsaocGQsWH1bIBhtsUBR/dItqmUYLbFiuNK/BNV2gOC8sTAAIrCNIH+bHdVpQtJpXxgcQ8amLEvBn0UGsFuAR1Bkr4MbiiDJxFK825STGTetyijLCDWnVFc6HZQrg0QfP837i2k33pPddjMGuuOKKZdHF4ot7sZ7K0o98enkW8tjJl0CC3uTPUd89jIrZeIhUc5QKiou4G+kAgIisul6Zb9F9hJLBQiLRnOr7uJ0APnKtYIDiisJt1q6OpsoMFyO1Mil1xXnRisE6RUmSh0bbEFvi77q+dH22EqLWb92i4liuDauQeBZkHaxJXrrb6m7HviepzYlaTrGkF9fFFUiRAOKauJH5n/nTAm2ybJsupbvQeBkEIuqTkgyO9cd8uKgA4LgezEriecyD5Ka6m5rryZTlGvxO2xBXkCnFrz/3uc8VljDzFF2Y0QXdBFRa6QKbLFVisixYsPpYtES3c1p6w7hTp6vNBL3pmq++eqvF5yoa5YB1gHuKhG9e7q+mq7CXC2mFResK5QjxAYYdK29W8oArShIrpV0dTWNoKDuSoanJiRssvlR4WDgoYNxjxIJk+wHqjAWAxVpoAj2BL1Ys0VXKb9ToxN3JGGAaaoXG9obh2hQwoqWKwv72t79dgIJYKXmTABDHMEb3q+vV8hQU3OwV1y6kHgAKucSqOfSLNAKqrxDT45ouBLT0nJsIerTBwgUgwg2Jlc4GxKZVRNDWjSvYNi3CYszav7X6uL/Yp5FSaeSSRsZxr4u6Xp6FPHbyJZCgN/lz1HcPpW5HNyexmy9/+ctlh3IUKIoKhYPLUfdjr0rBOouWq+J8QQ2lyGobVyXKklU99HLAqKmQMH1yM1qA6yUveUl5Y3VEcNISws2HtUdc0rGYUN1uO6LostPKELhph+Rnzkc2WK1Q9iF08H891ueCou/JanGifWEesYSQHa5ACDz8Tx8ZJ+5Y5GzFmV77wEIEOTMu4mG77bZbYbAyT/X4HNc7+eSTqwsuuKDIhj5wroQhU1CcW61U5hO3Josg6nPikmZ8WOhcy3nTyo9EnKb70RQJLVTPFTQZD4ulXXbZpXgc+J3vel0U9CrPPH6yJZCgN9nz03XvorWhe8vvBD0sIdIRUJww7oyVoDz4u1+LxXiTK34Vpf+jEN0MFLJFJDc0DVDFRVsoLqp1YPVFlySKleNQxFgNUOexglBsuuME5CiLaK3JZtXFFy0GAVZCBQob6+FpT3taiRdBnjDGFd1myt9xuvhwrN3IWcAD3Ii7QgrClcu8ATa0qRUo+HdqN1riUR5aVAAeCejUvtRKA6yQoZbkHXfcUR1xxBEFtOiH6R+AFvKgv7qWacN7gXZYtHCcO2ZgpTJXukCVT5Qb5zctjvyN47UunQ/vE8aGqx3LFZcnbmsXKB6jW7bXxV7XD2ceOFESSNCbqOnovTMqMl1U8f+otMl7QmnC8oOwEhWwyrOT0mzqXWSGRouJ42lbcI2sPI9r1aYKXTcn55E8zs4IKK0I1rr0OBZgwOIjUZqXOWGOz2sKqOb51RcMylIwUZGioNmAFrIE4AcDEcKHLrUInBEEI8mmrtj53znzHMZP3wEY3iRp80lMVNnEPtvPTneP59StWhY9lH8jF4/PGANz7MwBiejspoEruR4HFYBajTWCjECpVSZxRjl4bKv/6+PTrS641p8BvndhBLMYVycWOwsW70Vlbzywkwzz9+mXQILelM+hD2101cUVNoqA2A8sPypdkB/FSnuSV7UoUACGfkalRWV/EtZVxFohrvLNNaQaDKxArA6sD9qJilzLFzn1KgfaoW9YrgAe8SksQKxR3KEqU3MAAUIVe7Rg+DuCnNYhMS7cmBBUSMcAaEj5sJCz893PbSsos1DApUgcF8DDciU1ZK211lpgqprjptw4h8Rx6p9CXOl3F/t++t3POd4jMm+5R0ijwZqlkAJ/xxQLjk9mZz+Snr5zEvSmb87+pMeABErIYL2bt/IQE7cDBGBQ4k5C0Rkvm9Sho9iND0bli2VFjUYUlhZPtCysHoOLE1cn1pFuOWn1ulyjW7IXOZgXRrsyVanfSd1IAJA0DRLrsUjjQkSrE6AT7HTLYcHRV+aKijPsfUeKB6DN+HSP2udo4fTSd60rzsfVyL0AQxULGuBmTC4CjO8K2oDw0UcfXRi/7mJgvK6XPozqWOeJ/rsbBONmYbLeeuuVGDHx2bgQSdAb1eyM9zoJeuOV/6KvbkwquuSMS2ExQFjBPYbSdXXeLndt0R0aUAMyBgUIlD/WCcWh2Q4I5cV3MgZVXvyPJQK7EbC3Qr/Wlq5RXXye1223tdBieTarkUD84A2xhDdgSJksABDmosoXMAPosOqw5Pgba47/+c0Yl6DSyrrr1UKlDQlCjIE4KAQj0gdM5tZF6XW9BmQT8iHxFrgr+qQDRHSRu4hSjswDlWZ23XXXslhhnO1ih93eG3ncdEggQW865qmxlxH0cEHBpEPpUyiakmLEuaTyo8x4Q+t3Q9ZJHL7K1tV6dE1CSsAywSUXYzh1EMCNizuXDWgBFJWgMcZ+rSVdx9E1qQztD79ZFJn5QMly3QjgEjqYK+aCeXG8HGe8sQncdIf2Mn/xHKwcrB1y8XABx+vEGCGLBFJN3vve9xYrVJdwTEvopQ+jOpYxYLnyYtqQLQAAIABJREFU6TZMElb4ZE4gtiADLHPL2I2qf3md8UkgQW98sh/IlWMgXuIKKQnk4PEJEKKgrIwvkUAiwkA6MeBGomvNpqWno8ggI1AthLw5i0bLQNQCQRakRbAX4Ic+9KHCgDR3D8Bh/FpevXa/DjgSeSI5x2MEwrg48XoR3Oskk8jIFGh67Wc8PrYP4JH0DxkHizmSbjjHY+kzuXiUGiOvU4ZvBPnF9GmY52q5aeFqoUti4nuADiuXVBRc5+1yR4fZ12x7tBJI0ButvBd9NUkY0cpxBcuDfuuttxZXFIAHIESWHxdXQes+tEPGjVCAkiYgbACaWipW3ohMvTprLzIi2+1m3k4Qxrqs4sEYtND4jYr8uDghtpgfFgFMlyUKjjjm9ddfX6qHkNZAO54jSYa+aIkxHtMcmvrYCvQEC2Ucz3V+6r/FuYkgyXHOh4uabt2ZEjLiTumAvRVwSLanMDPKHperMUbnWeA2rQALj0LWuGCxWmXLSopZ9A39xwZctEQL3HnnEC035GJfdePX7xcXdq3mJMZHaR+5QODhXiK+6WKQe8ScvvozNKgxZzvjkUCC3njk3vNV4wMeFaTxH5QQVH12mqbKit+3emBVpCiLmESsYo0rfSwrYlPsVk1sEJehrjjAAUWoolDh8n3Mm+p5sMHaqJ8rmYOcPYshO9ZozWrxcTyuTgpUk1QN8JF2QOxMa49r6GKkDRl//fR73Ocwh4ACRBU+GaOkFYg2WnjER+M9RawOAEBesnshBFEwHGuPY3WdGyMb5FjptzFH/naHBfpkBR+Yu5CYSLthcWeOoIsUyUoR9Op95BoudnRpMmaAj6R8NkY27ssijxhtvmZLAgl6UzKfAksEJrvOQ44SIEcNRSX4NLkwUVrR5RlZeIIF5xLrwTLAqqLSPqQQ9msj3w+FwHXinnRaoTHe1StRpJMFyO+6qNg8lILUkEUiSUMlGMktMBUhtxDnJIVD8BT44z5v/cTLJuU20o3qPDIWwMoYHrFQQFB3X3S7Cgicw+Lg7W9/e4kJuzigTe61xcRDO82vgAMgacGx6CL2SK4mOXb0idJzpHR4r8d+tctbZCws5Lh/uRb3uDuysxs75BbixnpEOAaLOF+zI4EEvSmZy6iIo6XGw45ld+655xYrLFpb7YammydaScY/WAljCVAUmNU1bh9cPZwDnR53IbEy6OtaCypZwSPSxAclYmXgjggoc4pRY71YaSO6aeMYZa9SwgtZwWx1C50YD2wVTxxU/0fRDmPW9Yi8UPBYMcwjCxe36kF23kf0i/OUF7FQrGLy8mJ+oHMdY5eDGpOLEBd1AhJgzY4J7PZgUjmWH4s82KSUtsP1qitcNm9TOgXtWouVdryvtRqpsbrTTjsV4HPxZtuDGmu2M14JJOiNV/5dX12FFF2JAB75XVDzcd+5yWpcsTddIMaKVJLmvOH+Q0lCGKEklXuTqfRgg6Js2JKI/D+Uh/lcUYHy9yAtPdqrWxkUtYZ2z1ZGKnQJCcpBdxf/IyMAD6IP5AzcnNG6ldnXpDS7nrAxHYiilq2IFYM1jKUOQxGgE1x04Ro3w9phngE8rHks4sh61QKL6S7dxhm7EYVpA1pYWKP0HYYldTNxc+qONHcRaxSvA/chLmzBuF1Kjm73eI/o9QD4OJf7nuo0uFJNdZn0FI1uZJzH/EECCXpTcifo0otxGICHklC47SxAbP3DSAJpGqKrYn6XHEDeEkQH3ElUHVGxGQcRfFGSMCKp40mMBaVDGwCPbs9BKwoBVCKKO0IQ33vlK19ZqunrtotWa4x7mqvIYoHdxtnehr6b2B+r/U/JrfGAbhp7A8CYQ0pvAXjeD7oMOSlWipEggsvwne98ZwE85lNGcAS4uPAalIycN+aHhQyLLvqP69ptnWKBAa5L337yk59UV111VfWxj32slNeT5dt070kq8jlSDtEVjjsTy/LVr371Qn7loBdvg5JbttO7BBL0epfZWM6Irjo6wIr81FNPLfvh6fZT0buvWnywY6ddTbuDgEqMaiIkf/PAWyAaxSJzMgKpbVA5hL3dsA4o/WU/rRDTFFfsV4haKrL5uA5Kav311y+rc+piRvKOMas6SQeFTmI4oI0MAT7aAVCb5NZvnxd7nrLuph0WRwDF1ltvXbZEIq1DV7PWq+5c8wFtF9CAuIIFbB6hVr6WGO1rcS3GGq6zVSWyUBkGoMbKw2Xtbhb146O7H88DFh/AR9wZkGzXN6155prxxJJ3zD3X5Dv2UiQnNOYxJpOzm7twso9J0Juw+eGh0y1H13TnxbwtVuFsIIqLjgdeBqaAoLtSAKIdwcc4haQTV9hS2QEPNw6NiiZamHVQgSSC1Yniwc0ad1JQiUSSi/1ZzOrZPigf3F+48bBSSWmIK/pWYO3YkCWWAqAtSxEgjZR8Qcf+joro4nWMN9EvLZN6PI6+AUbEolDWWEnEZRmH7j7vB8ejDLknuI9wk7tlkKkJ0cKLLvFOQBzvPa1F65IyBl2U9A1QBlgg2bDfHgxK7sHiinrQgxZIJf7vI0t/dFfSf+aR9ApKpvEyDcXFYLzfBPH4fNHnaCmSw8jeguTxweKMz5eLwUG6eCdMFc1sdxL0JmxqXaFG9h0Pm/UOKQnFg42CIgdNV1+rYZhzx2+sXFU2UWngjsQ9iIVHhX0e7l4fZBQHSpKdHCDTQHSB8OKu5TLrBCI+dVUNSvz0GcuAHb9h+en61FJoug6KDoV58803l41NYQZiRSv/GMuijXbMwEGNxXbou7mWxpt01UbgQv4wHEmwxi3IAoa4rH2Nlh1tR6uXc1m0AHbnn39+sX5dCBnj7XVcsmeNsUUCjPJkflxcUKwbq5Q9F/E2eK/GRV+rPigLj+PZYLNiLD7qmAqs9ENLsp2lRn94HmQkY+1CpAH4AGPzGn0etRh7lU8eP14JJOiNV/5/cvVoUemac4XKQ0n8jtJaAAxA435kTaDHgy9ZQcsBBUBbrK5hZuIWxK2EpWCuWy9i0YqkfepHUgIN8MNNhhKVLWdcUiXcyzU6HasFizuP/D3o5ybHx12zYztaLvQfBQcxAvnyBrR1C2qtCnqLsVA7jSP+rrz8DiCugx6/sdsD1h3MQ/5G3tFSjRYaxxvXA0i5hwB70l3Yq09wwNICRJpk124cWk/RayFIC7jcf1hSG220UXGnk0PINZW5x0WLsX5NnxU+lRVeBtzsjIe4LQsY5MEx7dpyQch4dftrWfNsAHwUqnYR5T2vFd7LvOax45VAgt545d949Qh4unhwIR5//PElVUDlFStv1BtjxSqxxFW17hvax51EJQoealfDgkcvYoluUJSyVh9VYeoWaVTAi4kJ1fuHjHTjEdc74IADyrh07zWNR9eXq3tAG6sPywdaPMxUrF9+Bxit59iLfBZzrLtMqNTNlZOEBHkHhax1F13dgrkVdergx3iYo1NOOaW4BHVBcx7K35SOXvuvNaUL0LQAt3iifcCZVBPuQaxSrlf3brjIaEeIiveQliVzBauY8nMUVOB8qwt1Aj69I943xvywQvfZZ5/iFWF8MoIznaHXu2P8xyfojX8O/qQHMf7lChkXHMnCFP/lpbtTNmKrYUjFVrEbU+F7LCEsPOjgvFxh69rqRSy2zzlxJY97k0RwWJIoH5Se5IFBg4fxFlfe0M7Jt8JdJhDUxxTjYsaGOAZlj9WDBUSciLgfrwjuvcin32NdoChX+iiBB9DA8sDCg7hibEzF7zUj+9LxSkwC6AA8iEjRhc7vVmjRHdnLGCK4atXTD4AN6w43Ou50UgKIxUZmad392MkdWQcdx8F9RnyZ1AsAkHZkq7ZbAOmC11rlWIAS1yY7M8DotKRbnQjUi4zy2PFJIEFvfLJvvLKgp+UCeJx55pklGReWoQ8vIMID2KSYdGO6UuZ44l5YBayyATwrX+iy68fS0w2kMtVq1LqEIEKlGNIDsFKt5qKLaBBTEIkrACqAwWahkBDINWz1igQHwUKQ4Hjo8CT+A3xQ+XGdOTeD6HOnNiIQqXwBO1zSLFqw8iCrCOoSMaKLXLCuK3FYjiTpX3755Qt5ltF64V5p5zpv13eBzrgtbZGGwFZG9JuiB8TKYsyxDjaRKNPkTjZ2GOckxiu5z4jRAnwUJTAG1+Rh8HmJqRw+g5yLxc9CEWasVVraWaGd5jd/H48EEvTGI/eOV9WSw+rAusOtCfjx1uUVY02tGuThhaQAMAowsPoAA0gPupRUMLpRO3audkAdvFRSKlqUDPEhAA+iAQro3nvvLRZVdGnF47VKdZFxyXY1FVW0joG2qOBBYWVo58hM6zLGuwSFqCx1gaFUUdj0FdcyfSdOFBmzMWZaJyEJVFordfk6XmNsWnTGwrT0+ISoImgQ/8K6Y15tW6DT/enCgza1gh0j8WCAgKRuYl5x/rVmlUsT4HA92ZHGGSMBytgg7Sy77LLFSlpzzTVLziCxu8jktI9192sny9rfW1mDygOyFzFmYnxf+cpXSp9djHlPAe6m2JjYb3hBAHRRRMwY1zk7VDAvfO/97/jjPdvrs5THD18CCXrDl3HXV4iEEBUg1UOodA8pREUSlZQKo9VFOB6QtLgwFgIkDyyfSAnvpOC6HUCT8lFhACDEzIgjAXy4ne6///6iuCWd6JKN4xJMOjE+o8JGRrTJ6ny77bYrq3Nca7zcd7BJdo5DC4I+cQ4WK5YfMT9AkBxFgCcWYo4Wi65iFW2UowAYgVJXHd9xL3BNXIDEkXAJElcCyLEy6m49+2x79l13r4ACYJ9zzjklvYSFiGXjWoFbO9eigM6nBBuBkLaYa4AaFyxVVbjnuA8hT7W7Z7u91+JxTfedfWT+uNdOO+20Eqd1rC64kAHzKMvYtmO7xjk5hxxCiiFgdVvZpW5JxwVAP2PKc4YngQS94cm255ZdnXoiq1S2CSImxt9Nr6bVuNX2eZghdeyyyy6lDqMr1J472McJrnqj2xAgBvxweVJRBjBhDG5si0WGBYIi0Y1kUnSTKzdalyoryQi0h7WHhStYSFBoGlKsgKMy5zv6jpsTqxULnMUIY3EbGsbpmHWNcQ2tcwFNxY9ydD6sD8r/ACk0flyYWHgUC0AWgpfKtt5/K8pofQF6WsjIlPxO2L94AEyJ6MelrXVkFR5d28qeflMzk/sN8NMFOyp3oHLyvkIexC5POumkhb0V+Q6wY07bhQl0M1vGjba5n7bddtuFnSkEWBcznQgzfTxKecqAJJCgNyBBDqoZFSbKBHcMG3iScxStmPq1mkCP42iP+AnbppB4Tjs+vIPqc7t2ogXi2HS3oYRxtUEYETwYt0qac7X8dAE2raCjezK6xVRYMDphqmJ5WNZKS6xV/1Wa0SqJVhn9xEoFsIn3sa0TFU1YnEAC8Vg+ozvN9lSOgp4J2ssss0yJ2ZG7RqI51qkVRuhTndJf73sEXa/FeYAccsbKo3wc33GsYNTu/molH1MAoosP4FhiiSWKSxn3HzJ3uyIXAKOygOwf4+M+Y8HAvODSpagDBCurzTA+44NN94IWvOQVxsYOH1jh8b72WTQ8MYpnLK/RmwQS9HqT11CPVhHxYGFNvOc97yluKFbv7V7tQA+liYVHQWatJo4f1YqbfreKvRgzQdlAziFWhuUHgNx9990Lw3VvN910TSSEKIO6Atf9hsXEvoDEl7Ru2sWsdCPXGZF+LyjjJgQA6TdMT8APEgzfAzbWsNQFpiWHBcr8ABTUPAXwiBlRUUYXppZpfUztwAMCh8W3JWdcccUVZTselL39iIzVXm9sQYB5BDxw9eGCxfVHzBFXZpSboNfEpO31+p2O19J1rrw+9xrFHZBFrBzUDvT5TUuW9gR6dvjYfffdF8Azxqdd1HTqZ/4+egkk6I1e5o1X9MFDGRF7eOMb31jiRnW3Z7eWHooTlia0dnKhDLp3qlIyaJG0IjoIhiolwA2ggEaPG4rYmeAXk8Q7Kaem2JQrdIAPmWCNyHZsNV63nREco3tWwJFwooKzXiXWHm/cZlgZ7t1m3xkPc8MbcOATi8idBJSJFrGuMkkVKuEmqyRaygAu8jz99NNLGoaWoBvLSkbph0mLHHBdwsYk3470EAE7MkgF137cqP3ei4xTwPe6jpGCCYQMAD6JK3VrvH5dZc6cWBQCoOcZBeRdxCFPd13vt+953nAlkKA3XPn23DoPHw8QO6BDKY9ulabGmqwV6lC+5CUvKeQHFbwstZ47togTVDb2U4WkUo+rYoCC/dGojoI7Dhev8T3Pa9WVeA3bE2SMyfmJktpxxx2Lq7PJYopKUBct1623HUHY3wR5QdE4nuPX0ubagrGLAK+llRRdtRwTWZqt5CA46zUgTYRcPNzI3luAboxZxvF1O82kvuDCxGpG+RtzVMa0E+OKjm9UHgb6EcHWv32eAD5im+wZCEi5sGoaPzKKiw/OYbFCCgOeFO9lrF5zHLuVZR43Wgkk6I1W3h2vxoOFe2y//fYrpbAsi9SkLKLrMB6Lm2n//fcvdHEVe7QgOnZkiAdERV5X6vyPQkFhopjIs6KWJ6WlcBcyFiwqa1HKPrS7tqcbTeUeFRuyxDrBPYWcIvDp+hPg6v1rpxTbuZlbAUursdu+c2U/BI34WXehCfwqfNzFZ511VpGdFWd0DzNmSS70Q6KNm8bKlOWe4jtBAWsU2QF2xLOw7LQW4/0luNDfGG9tJ6NB3nKMSZnbF6+Npca4iJUfc8wxxbUuicoFQXRhRwubPuouZ1y4pLGiZUPHRcuoxjpIuc1DWwl6EzTLKi2S0NnTzLqB7YpKG6uQUo1Sw8206667lpqGsXjvBA21bVckIaBAUFC4eAE/CSPEYnAZRoDQAlJBRctPN5eKmzZx95KriMUHcUT5YQ0JCJMqr+guloyispU4Q1oFpBWTspGLzFeUcXTR1q2zaLFyHPcQbkx2P4CNibzIE7Smal1Ok6zstYAZF/cQe0GyMGChyXPmwlEZuQhqcqsjgze96U3FXc4rujYnWQ6Tem+Pol8JeqOQcpfX4MHCNXL44YeXOIwPYRN5Iyp9V9Q8hMSsyE1zO5QuLz8xh+lK0spBKRMjg4RAfhzJxgAgLERzq6I14fm6EeurfhUZsiJhmtqVUOzrxIuJEUitI44PEGOMgLmuXz5ZIBCvwjXs/oDGc5WFTRrvEhBdRNEuYAe4sTgA7GCUck/BJgVEm0gpk6zso5tSEhVhBJL1efbci1I2J2Npx+xEfpS8A/iQh5VsJlkGk3pfj6pfCXqjknSX18HVcvDBB5eVZ0xAblppouTM2QIciLMcdNBBxa05rQ+eirnunsJCQwGRYA0pA6VO0jFuUBmSutrcksekd2QhQLpzALLDLUU5NlidfAoeo4o9dXlb/MlhFm/WghOskAdKHNkwXivGaLloyQrwgiG/ayXzSboECwFkwr0Ew9TdClyMNMlo0u87Y3NaxaSd4OZkQcXYLbbNOM1lbAfweA2ID7JA8J6d9Pun3/tuFs5L0JugWeQhZC+wk08+uVg1PHydaOUqL85FKR199NGlvuEoE9CHIUJBXlenSl0rDZAjHYASYeT48QYIcX1ae1NGnbl+0QKMMTYUGuxDLGRdnU3J38MYaz9tGqNj/v0bpU18CS+BFgvWC2kRfMY4HePHvcd9A4MUAhEyBuSooIIcADoqqLhTh2BWJ6hMk3uTvjp2LFbJRtQgBfgIKVidhd84ptOelbR51FFHlY17TW3oZ0umfu6DPKd3CSTo9S6zoZ1Brhc7KbAXXafcvOieUglBMHjLW96yULlj0hV3kyBVRDH2JIEl7gah6wmgI92BNA/IGxCAkCXAyHm6Aa3QEsHP7XMABiwbNqElJtoUrxra5PfQsJawrFDGSHK8MTzkYeI1MkJxC2qSViQL4a5k7Fh2uDCp3LP00ksXC1hGYkxgj6zSJotu0i09ZGDlGkkuLKDwkFAiL1btAQC9j5qmCPmQFsTWQ8hSS3LS5dDDLTdThybojXE6o7VBN1DarDbJVXPFGJli7bqKkqMQLjUmXc1G9+gYh9nzpWMMzr9jRQ/JCJFsgKLBcqEkGOkOWD0Wh8b9iZKLpATJGiooOgk4sBErNHQqbti+pBhdgU1pDj0PtIsTYv88HBCXfMKYGCe7cLCVDuAmWMV4XYxXcq+gnKnryTgBOmpjYtkhg0hykcXItW2vydVu/yZd2cecy/gMQmjByxJL3cWk9FbTxfmAHnJ8/etfXxYPyiddnF3c4GM4JEFvDEL3kjHvjAcN1iZFcVHSrq5lJbZTJDxkUKePPfbYUsVe0Bulch6WGFUg9fHH7wVGQQlXHit3iC4AIG9qZbKdDsCoIrP+poBo8WjKtVG2DTq+bXKOCnKUco3xJ2Rs3/mee4QxsYMA3gHGLJgL2Foy9Bk3JiXpADhIKdwrjJGcO12YcR4db9McDGvOh91u07hIYaCQNJayZcQ6hReYD+4fKulg6W288cal+9O64By27Ceh/QS9Mc1CXC2jwMhBo84mtQHNizLfqt2+Zq40N9poo7LBJSv4WVNS3UxRXEDwN0oHxWV1FBLe3SWBnStYWAiAHG/cBtkBAlp8uDp5SYTBvTpKS8ZxufihL94fuHEpoEw80zxEAdni1bgpATmsOnZp4BOLDgB0A9dRgng3czmuY7hX3vCGN5QFhIsHU0K09ut9I3aHdY2bePPNN6/22GOPhV1N0tIb10y2v26C3hjmxZiSDwUPFiv2I444oriqzBMz7gLoNT10EhEOPPDAEldg9R/dg6NU0GMQ5cIlLb2lO04Lx9gNsuRtaTBSHih1hkuZeGBMebB2JdVseLs1Ewpu1AChpRetE8YBaLMDB7tUUBmERROAzJv7ik1bATnidG4lxThks5p/Ny/3Rzf3pkSyt73tbQsuYuRjiKFVGyb4I0/yGHmGkbcLr26um8eMVgIJeqOV94Lr0dwfHhYeEApLs1EsyisqOONQTd1EKRJHOPLII8uO6DFGMU8KrZXMXFxoLSkPZA5LjzcFonGDsugg/w8XIe4tc7Yo5bblllsWENHFOSrgi94A7xfmmz6ff/75pX4kx2CxUQYMpiVuS6xT7gksVgARay8WMdCKiekKoxrTGB63ri+JbLkHXvOa1xQilNa/smvVkAxPFlMk8L/2ta8tierKuOuL54Ejk0CC3shE/cALxbqAsMOIx+HaxGIx0O7OAlpuTStNSkJRcgwlFwkL86TItIRj3M2UhQj+KiPJChyPzAFASDCAHvE/gBDw43difCgytyQalduKa8eakfQdNy0M1RtvvLH0DTAmLkd8zhQDQJAYnfeCn5JftIJ126aC/sOTxXOHfN/61reWtA8JQ+2eI45hscF9wwKDPfZwcbqjyZjUS162jQQS9MZwe0T3I3+zquRBIebk6l7lHYkIrbrKKp6SY1gkKGNzsTh2VMp5DCL8k0vGhUFkHPK9Flq0nGIDWjwoMBQf7k23BCIRHhDBZYVyiyW7hj1uK/FENib94j7hN+JIgJu7M+C61L1t3wR8FwCMtZ52ME8egXZzhoyw7s4+++zChmUx1G5nedriHORuriSW9nHHHVesvnxNpgQS9MYwL7rdXGGzvxeuTQLprVaVHM+DhcID5CLBhX3YcKkQv5HZJ/DNG4MsunYjwKnUm76Lv0c3qXLmO2JlAsqoQCISkiKhpV4fVNDmVhbQmtiuWndjuO0n/pJ6WCjjxpZBWH0uoJoWTAKfiwnuE0Bv7bXXLuN1bmLMeFT3z8QLfEwdTNAbk+AFPhQrwW8qQrRTSDxMWCCQWuK2N1RfOeyww0pMx/hgzPHLB2xME5yXnToJuODBtU1lI8DP1IV2XoKY3sDzRt1b4oIuauNCKhcd478tEvTGMAcy8nhY2EGA3CD2O8Oaa7eilEWGG84SSnvttVdJpgbwBDjdYfPk3hzDNOYlZ0wCPpcsLklUp6Sbsbom9jTPmvmesn6JrVP/FLZstPZ0tc+Y2KZuOAl6Y5iyWBECyjmrSleATaAHQBK/iXEe4gaUHWNfs0hSiG6xMQwvL5kSmEoJxLAD5cgOPfTQ4uJkgelzVx+Y+ZMWpsYTAwiS9gD5yeeyXmQiPTDju0US9MYgex4AHiLelC664oorFoLhTdaZO57zYGLVQamn+gOFbmGK+b0PbrT8xjDEvGRKYColYLyUgu+HHHJIyeWMseL6oHiGrQerNYjHhuLTbBFmjq3PYzcVlqZScFPU6QS9MUyWwAQ1nnqZ5Oa571kT6AlqumBYTQKY1NpsRVrwuFxRjmGC85JTK4EYa8e9SYk33JZNWwvJ3jS9gYFzLAQzrD3yJd1jj2N5N7U1tUKbso4n6I1hwtwVAdYm+XmsBmFutovB8bBwHA8Qq0Zys0499dTq0Y9+9EIFFqtASGhpZ+21Cq63c4umy3QMN0pe8gESaGdxcWCn3zuJM8btWCyyJ6EuzrhnpYzOWOxAsATQAEn21tt7772r5z3veYUMg4uUY7QMO/Ulfx+eBBL0hifbxpZ5uHCfnHjiiaWMlBuBckKTZQbYka6ARciLWpvQqt0ChwfKh77+ULbqSIwr+nsEtpg6EWMdTf1Li3IMN9IcXdL7O96XglRMOeF32ZS9iqf+DPGM4qKktqnWmcxpPSn1a0giA+QoCwjwudN8JJr12rc8fnASSNAbnCy7bokHhpqP5OZR/BhAIy5nImyrhgyI81ATM9h3331LQrpuz64v/scDTVbm35jn5f8CJ+DIg87xJGq7Wq2vinu9fh6fEuhWAtxrLO4AD971JHzBJG722s9eksbb/OReJ0mdnU98NuPmvR7Xahz0idzZgw8+uBQ2kOhiwfJcJHY7+4M/LkFv8DLt2CIggmuTvbus/AHo8X3Ti4dEoCFO8KY3vans4dW04uzYiT9Wk5BGHVmj/A0QUymGSv633357dffdd5dizcQurFyiZZoPcDfSzmP6kQD3lqk6/E0VGmuLsmMEZdhU7bEIAAAgAElEQVQEFI5jAYd7Ea9Iry/u61hAmvZuvvnmsvMCuXuArfc+4OXmxE33P7mz++23XyGccTzPD6Bt/l6v/cvjByOBBL3ByLGnVtxGCOADtHggqL/JQ9WUDwQQ8UByHOQVdnkmxtfvVjfGFa3aYoFld3xgexU2Yr333nsLMMed3HUD1d1BPQkhD04JdCEBmc7c69aixeoD1CCLrLHGGiU1gP3svB+tntNF8w84xJh4fAapv0pK0ZVXXlmeN/oAeMnYdOHX6locSy3OPf9/e+cdPFdZ9fHr3yJVMLTQWyB0ApEiLZSAiaEXIQQkFCPiCI5kHMBxKJIoRYkUQ+8jSCB0g5ESmhLpSCQJiBKqI8P47/vO57x+9z1Zd+/uvXvv7t3dc2cyu/ntLc89z3Oe7+nn1FPNkqM2RSEkZp2ZYs8P0CuWnm3djWaVpBpg2oTBqJ0Ic/HZDPQEjjAbbYQmTJhgJheuyXOorJUYHVAjQX7+/PlmeqV7OwWYJZXKHFofHNNp8ECescc1w0UB+fFYg1hDWJMACmsffsDysffeeye77LJLMmLEiNyCYL3fkP/DY3S0uOKKK0zwA2wRAtsVNrfddluLsgaUGbPcFMM1g9V62wC9HswHbYQuuugiM8MooKQVeMD4mFOopo9zfauttrL/5/Fd8MrS9MToJOMyLkov4cBnbNIuOd/7L3zAiy+11ANSxiOHgAL1602vLAABTIhm3nnnnZP9998/AWjypgV4v55Mpa+99prxK8IqVVawirRTS5N7MS7fbihAr/cLNkCvxDmolxzlf0Pye/TRR2s1NKV1pQGfgk1ganL7qPivsmVprU8UbabrZVoR6CHJPv744+ZjhKmRYmWykemTcQOw3qehAJoodVbiAhqiW/u176MxIYFScHzQljdF8jvrEH/ZdtttZ1rf+PHjlyvLx7qGZ1odAliBE/yBFWbmzJnGs4Ae7glVXknjPe4hEyeJ7j6todU44vfyKBCgVx5tl6ujKWairBFthHCMK2fHO8R9QEn90PALTJkyJTnqqKOMoWG8VhpifZSmNhT+jsT65JNPJjfddFOyZMmSmmNemp2AUcEEAlAYWZK0GLmZWbZE8satB4gC3ozOa9Wva61jtc/SOsbkyN/4x3qGRzB3Hn/88dYHUQEnrGX4rN0+d3q+TJxEcc6ePdsEP3ov4lcU3zaaBh94RplAIrUJbAlNr/eLNkCvpDkQCEhKlcR67733WkI6EqQ0KYGJotQaDQkGI1qTEGic99ok0pziikZTMICc7zAyv2HKJIKUJFw2A2l02kQEaAI9bTz65O9pkm5JpI3bDiAF1PPQC1pq1+MjlPmuf/KReaFM2hVAQ1rP6NGja0EnAGQeHzh88OyzzyY//vGPLaK5PtK5GegJvHkmEaCUJpP5NPimd4s4QK8k2sMYitZS92vADTMHna/FnJynen9i/EZDgmEPOOAAayOEmYZzWyXh+rYoklxVOPftt9+2KvK///3vaxqnL4Ums6U2GIG292WEdlfS4hnS23oBzn+XKdNrTz7Ruz7IShVQMHPSYJmqRapdmxdsCOqaPn168vzzz5uWJ0FVLow0bY/xf+Mb37DrFYEaEZy9W+QBeiXSXmAHYwAiREROmzbNfAK+W0Ijc079sLgH1R0mT55sP8G8gBQmzmaH18iUbM59CFLBpHnXXXdZCoSKX/t8KJ9L5P0caIvSBPnOBlCf3F4iSePWA0oBCWVe41NOKCkCXrvya1nCmXcRAEiACy1+MHOSNgCfCPCyAo4Ev1mzZlmyuvIC67vU+6nR+0hLXWeddZLLL7/cADgv8A7o1Hf9tQL0SiS5zIWAA99vvfVWKz3m/WBKqE2TGBkiUWCYRanyIA2rnTp+aIj4IRQlCsMRqcm9Fi9ebKYfdWxXCxWZXQFV9QrD/Il5FaZdb731zD/BtXmjR0ske9y6jyngA61YfwAYQiJBVgiNy5YtM98d61LAAvh4CwRrXZYUop1p0oyfT8Jl1uAr8SbuAJrDwi8KPmtGai8oyvdOFCelyYJnertAA/RKpj+MC+ggrWKaXLBggTGsNx+KqdJ8ZKQoIGnCQF4jaxU9hiaHT0EOf55NztE999xjjMvmIFAUozIO+VYonDt27NhkzJgxCRUwAD/up0CWvKHhJZM9bt9nFPCBK16Tk/kf/iECk1xSeIh/6k7CWmUNc0i4g0dY+yuvvHJyxBFHWKNmHVk1PYElFhI0x3feecduJf9cGqk5B5CD/yZOnGgFrBEu4+gdBQL0Sqa9TC0vvfSSFYgmarOeWQQ2MlkCJJgNYXSZL5ESSVdQI9lGTv76V+E5Al1FjeHLI7mdSite8hXwqgwTodm77757stdee5mGt+qqq9rGUh9OnmcDKZnkcfsBpICAkPX84YcfWmEHqgYRhIX2J9CD3+AZb7LHOkH9TMydHFnNi14YvP7665PLLrusli7UjNQSHPmUOZSgGnJs0T4F8go26yTndgCnu9RXCtArkbwyQ7Kgidq8+uqrLeenGVAo0lP+NDnfMW1ec801Vm3CR6zJsd+Mib15VSZVujpccsklpm02OzAFUS9QFS4Utp11syiRtHHrIaKANxUqXQbeIP2HoLDHHnssee+998wUKv+5rtH/SS6nXJlM91nI50GPRHWERoBX9/L+xkb3lcCJ1kktTnIIpQHKTBqgl2VGOjs3QK8z+qVerehJuhPgxIY50zopcDNFZYpZ+T9RaIRLy5QI+EhS9Gah+sHwmyRJABLzEHUEH3nkkaYVKwDYXXfdNRk1apSVIeMa7gNYq41RiSSLWwcFlqOAzJviDSWiY2JnrcITb775ppk7SSdQfVqZ7GU9IZiFyOk8pkUPelhfsNjAQ5gtxYuNpo3rVEkJ7RMeJIqTgDSuVXEJ8XAIld1Z/AF6JdJZkVs44AEtmLOVD66+BQlMetZZZ5kDXPfzGmErRvHh3EjDMByfza7jeVSylx+QoAFJ0JGiUOJiiVs3pID83Kw9mfrxjymISlGZJIxTPg8AUUqBtCfWLyZ6gsjWWGONXJSWRsY4qMVJhZY0gZOHKGWJ74wBf/hmm21mtTgxuerdBI4+HzHXIOOitigQoNcWmfKfxGJHKsQPgCSalovn7fwqc0TwyAUXXGBMq8P7C1qBnhiO59I14cwzzzQHfzMAQ/pkzCrsKylXfpL8lIgrgwLZKSBfnoBOQiF/Z01qHbO+OYf/C/R8VwNMi7/4xS+SzTffPPsgksQsJvAafIEQC3Dhn087fC4uQTAIk4yZCNB9993X7uddHbLK5BpgXNQ2BQL02iZV9hNhOgCGEkT333+/3UDMk2YOkSbHJwnpABUM400pPqAkzafn74V5FfMm2luzQxuFv45npfkAs1MmrggKtEcB+beV16qoZ61Jn16jEmVaqwJM/o6WRQ/K3Xbbrb0H150l4Y97Y+qfMWOGFXZoFcHJswE89ctkTIomVVcVjbMeBHMNNC5qSYEAvZYkyn8CDPL+++9b77tFixaZSUadlxvdFcaW7R9GIWKSXlz4AVTJwUd6co80E4vMJTrn7rvvNt8ifok8UZetHPb5KRVXBgWaU0DApwhjn5Onq7xp0PvIdA1VjPDpHXjggblIrQR1pULcfvvtCZGcCJD8zVtOFLjCgxi7UieUD4u2iXmUBrgat9dYcw0wLmqbAgF6bZMq24laxA899JAtcPwNMh02S45VJwMxwvrrr2+mECrHe8YXM7UaUX2wCxVYyNGDCVsd/tp2n9fqnvF7UKDbFFBgGCk4gB6Rk3kO5a0ifPL9ueeeM21v6dKlNb7mvrKQ+GotCkpTDiFaH9Gk5L96IFe0dp7xxTXtUyBAr31aZTpTjm+0PBiEKEiCRFRns9HNZCoB/NDydthhBwtiQSLMo5npGQIw2gcBwEinndwvEyHi5KBADyjgNSd4EfcAOXIUfc566F5KEQJI8eeR+kOXEgGhr5CUVrEFYKQJNMUqpEEKLJVvmHWMcX77FAjQa59Wmc4EaKgeQcFbtDz58tLARtocJlAc7yeddJLZ/2GqrKWTGKzATprjvHnzrGM7ANxOAEymF46TgwIVooCASn5wQO/CCy+03NOsR702hpsCawnmzRtuuKEWpYlAy6G0ibRyY6uvvnpy2223GZ9L2BX/Zx1fnJ+NAgF62ejV9tksZEp9EbWp/lswCpFlaaH/qohCbcuf/exnFuLsawu2PQB3okCPCvFUdgGEA/TyUDKu6RcK+Nw6xgy44M+m5VCew2tuAkH4iSjODz74wAJVVCAbiw683kxQVRTopZdemuyxxx42HEV65hlbXJONAgF62ejV9tnUBSQ3jz5cmBNVfy8N9JSvwyf2fiRTzlcQS9sPrztRGt8bb7xhXdepZBHmzbzUjOv6jQKADKBHKbKRI0fmGr4sNT6qmRQkhMhnnnnG+BuQw0pDVGZaEQqdR4Aa7g8BZhSizjU1mS8K0MtMsvYueOuttwxgsP0TkamCz2lgI6c7IEcDzGOPPbZmoixCM8PpTnI6kmkcQYFBpoAP/IKvAD3aaXWanK5oTOXbUh7wjjvusM4LCKhq90X0dbNi7BobZQUJLAOIoypL91ZjgF6HtK73m8n0ccsttxiTUaPPlxvicc0ATCWL8D/ATBtuuKExA3/PA3o+jJvvaJ9TpkxJ3n333Vz365BUcXlQoGsU8FVOWPu4Ca699tpkhRVWyGXl8KlBisIEvGh5dMIJJ5g5U2DG8/T8Ri/Mefj/SKOgjicany8X2DUiDemDAvQ6mHgWtnJy5Kfjb4AL/eqI7CInzrc9wYShRNv6R4tpMG1iGoUpOFSuKOtQ63OXMLMSWENFiTwgmvX5cX5QoFcUUJoAPACg7LTTTqZV5am9mfYO8BRWmYULFxpPyVqTxl+cw3UItxSf4HqBcfBl+SsmQK9DGntbPwwGoOE7wx+HiRPAwszBeb5EUqPHwqjY90lToI2QNMQ07TBt+PWghzRKdReaYYZPr8OJj8srTQFv3oT3KPtFOb+iUwLgsTvvvNNy9lQdpj7hvJ5QKpmG24PygtOnT7fyaL5WZ6WJ2+eDC9DrcAJ90iqghU1/7ty5ya9+9SurtanSQjpPXdQbPZZz6EpOYVzs/b6MUh6Q8gnmfMekggZJLdA89+uQVHF5UKAnFGDtH3744SZMFt30GICjqSwWFKK05d5Q7l6zFxbw0SkCEydCbl6LTk+I2scPDdDrcPKk3SnCEqCjsC3AAgAq1Nnn4CicupF5k6attC5BIlWOUac1+eRj4BMTD/lBAXodTnxcXnkKiPfgt9NOO83yXovOhUOLJEiNjugUoVDdT/W9bEQkzsGcSeoQjW0nTZpkYyPYJo7yKRCg1yGNvV+P77QPArQWL15s5kwBnKK9vEO8/tH48E4//XRzbPsGlZ0yqqo+cB8Saq+66qoO3zouDwpUmwKsdZ9bRzk/tL2iD4EcJk74iqhN+fmbCbdcg2+RIhHwPEE2mDh9J5Wixxn3+38KBOh1sBoEeN6ESa1N7PuEMPtoLh6j8xXMok8xCW2EWPwk0PoO6Vyb18Etc4uqPlB0miCb0PQ6mPi4tPIU8Pl08MDFF19sfr2iD/EVbbvOPffcZNmyZS07L4gnGQt8DvBRIm3PPfesuTQkHKv0WV7+L/p9B+F+AXodzqIWvQCN9iUPP/ywmTk8sHipT/Z8klgJLmFBs/hhSjS9Nddc065VGHMnDm5FlWqctEPBFBNHUGCQKeA1Pdb+7NmzrXB70YeCVgA7gPWpp56qpSukuTEwiapQBbx/1FFHWRSnXBriV0WDRuJ6cTMXoNchLSWRsYhJVQC03n777Za1MpXHw3XY91n4p5xySnLIIYfUwqrFUIBentqb0i751L2I3DzjjDMsqCWOoMCgUkCanqKnyZktw3wo3iQFAV85z8FXh0DbLDUJmkuD0z7A2Ah+oxuE7ikLUDSXLW6V2n79P83EkeKeM7B3knanKEuatFLQWdVXpGXVE0Cam7RBQI8CtFRd32abbf4rIT3ND9gOcWVOYZykUUydOtXyB+MICgwqBbxZEPPhjTfemKy77rqFv65PT0CgpEkzCeuAV7PGy/Cjojv1nfESAEdnFa6T68M3zS188EN4wwC9AiZd0ZssWpzlTzzxhN01TZYQo3COGlDuvffedj0RXPq77lOEPV/ARwmy4447zro/xxEUGHQKwJdrrbWWBXDRrquMA6sJIAZvIfRSi9P302v0TARflS1THi9WHvYApS5ICxTvFrEPlPH+/XTPAL0CZkuRkdTYpBwRGpRy8tIWqbRDVVyn8OyRRx5ZyyPS7xpip4EnYhyiyw477DArOh1HUGDQKQDfbLLJJsl1111nINOp1aQRvQA9+elpNYSZk32gGf8zJq5RNwYBJH0zZ82aZbm6Gqe30nS6Bwz6XLd6vxotw7zZilTpv8uE+Zvf/MYqPrCQMU+0Yi61EOIT+z+LnaoMOqQNdhK95RlHIMrfDj30UOv1F0dQYJApoDW/9dZbWyBLUQJkPc18NCZaHgUg0PqaBZ9486bX+MjNJXr7oIMO+q/yhnl9+oM8v1nfLUAvK8UanA8RWbRoT4QrL1iwwKIxVeoozcQpkwb+v3HjxhlgUpZI0mF9CbG8Up6iwDx44tOjVmCjI1y8BSyMuEXPKaB1zCf8RZpOJwFhrV5IwSZEcQJcL7/8sl0ivgW0VJSa7/C58njl4uBvjJUefewh3toTps1WM9D69wC91jRqeYZAj0R00gDoqEDCaavwYhY7i1qObsoQHX300csxScuHt3lCI9A7++yzk/nz5wfotUnDOK3/KOCtHFg2AKKyQA8+VjEJzJaYOK+++mojmjZaBFpFTNe7Ljx1SVQn9YGgG41XAJ5X8O2/2StnxNDR9sMwb3ZGYBY8JcdYqCxSSo+1WqQQXk1l119//WTmzJnJRhttVErCuGd0bQREmM2ZMydAr7Opj6srTAEfBIKvfdq0abW0naKHjbUGUJOA6SOkJRhj2VHEps5rNA7KkhHFTUd1b+1RoYuixz5M9wvQK2i2MW3S+478HBWTbpaq4B+JuYJrJ06caKZRaYdFS3OSQv0mgBTqfRx+XGHeLGhhxG16SgHWsfxgdBY55phjShuPeEwgBQjSQPqFF16oPRMtD2BsFeTGPkAdzuOPP95A0ge8lfYCQ3LjAL2CJhqT5iWXXJL84Q9/qCWcqqpCMwCBGZWr94Mf/MAS0ltph3mHq8gybQIw5j333GM+jkZHgF5eSsd1VaKAgkUADQJL6GJQxuH5RYIlPEZg289//nMzaQJklCUE9MT7zYRbfsevRzQ3Wh9HWWbZMuhR5XsG6BU0OxSYpvQYVVhks/fFpRs9Rk5sam3Sd4+QapkeCxpW7TZIndJAFTxDLiH5QAF6RVM77lcVCsBPrHt47dJLL0123nnn0oamIBaZLQGpJUuWmLb3j3/8w8AO0GM8/KsvUVhvAaL2LsEsG264of0k4CztBYbkxgF6BUw0RCREmYRUkr3x56n4dJrGJICjwCz2eyQ6b78vYGi1WzAmgbBA78UXXzQfh49wS3OuFzmeuFdQoFsUYN0TMEY60OjRo0sTLClBpjq6yrljP8Bt8fzzz5uZEleGauy24vV11lnHClBvv/32dg08XHTz227NQZWeE6BXwGwg0dFVgSAWpDH+qZpCmrOaR3PeiSeeaAnt5PaVpemp/p/GhZRJtCl+A7RA72NQrb8wcRawOOIWPaUA6521TXm/K6+80gLFOincnvYyMj/6VkYAIbU0b7/99loRaf97M/MmPEjlGCwx++yzTy21IVIWOl9OAXqd09BAjkVNzTwOBbDIfNlsYUP8L37xiwkO9gkTJhTezdm/mkKmFf0F47333nvW6RlpVGXUFFkWSbAFLIy4RSUowNoeOXJkcvnll1uVk24WbmZvwK/H3oBwKUtKq0A1+JNavN/97netr6Y0x1bXVYLgFR9EgF4BE4TJgkhIIjc5FMCiW6eB3ogRIxLy5QhNLlOKqwc9NoL3338/+fa3v23gx+EL3JY5lgJIHrcICrRFARVj2GKLLSzQjPqb0rS6ASDwGW28LrroouSTTz6xMSuXj+/NrClcB9AhlBLBSem0OIqhQIBeAXTEOY2TnJw3LVaZC1vl1eCkJqGdHl9lmV30it50ynfqbhId9vrrrxvgIpXiM2Ac3dgQCiB93CIo0JICrPUxY8aYzx0zZ1kR0s0Ggj+PyFGETA5ZU9J4TGBNfz3alGERiqMYCgToFUBH+uchySHRydmM1iTfWNojkEDPOeccq7cpTYvzuwE6mDUJoCEIR0nygJ7KInVjDAWQP24RFGhKAZkT6V7CWl9ppZVq1VG6Yc1gg6WbOqCHRUUpQ/B62vPlGvn6179u0Z+0RQp+LGahB+gVQMdPP/3UFvWzzz5bq7np6+mlmTAogkuElhzsMo2W6VOTxvfZZ5+Z9Dtv3jwLp6YmoCpKtArAKYBscYugQOkUEFCMHz/e3AjSmJRLV/oAkiR59dVXjc+WLl1q1hRfY7PZ8wXW++23nwWz4N8TSAb4dTZrAXqd0c+uxlaPFEkKAP49tS4RYzUDPcyIO+64Y0Ji+sYbb1xzsHeLIWl7QuLsb3/7WzNrytGO+aWdajIFkK5vb+FNZNqEtFExr2jOiuRlPajQMBuXUkcUsi5/qwoQ6/8SnLqhkfTtRLQxcOaFmraYCX0B527RlRxehOJFixYZj7fjQtD62muvvWoaaitXSRukiFP+40eN2psdLoWPP/7YCtlixpC2xC1baUv8ji8PSY7EdPnUykpbqH9NBeDcfPPN5meQSVZJ7B2SZSgul+/Fv6zC5KEjdMXkzaFmoXyH1r7ChqLzfIIz57FBqtjBUBC04JeUOZHUnClTptRKevGYbmlM+MwBPVKE/PzWB7z5V9ceQIAbCerk8HZrXyh4Cip3u9D0CpgSND1A709/+tNyFdFbMRWLHrMmi5qq6myC3Uw+RbMj4pTIU41VfsjQ9FovDEneSveAmQAv5lWBTGhvgB/zCuhhpuI8gIwNkDmgI4fqNvJU5VRqU2y1jlqPdHjPgNaY7E877bSEoBAfOdkNusqnh3mTQBbmXcKOzJzNZodr8UWytwToFbeGA/QKoCU+vfPPPz95+umna3k4kjCbmTZ5LIueLsnnnXdegm9Ppq8ChtTWLWDAu+++O7nssstqvgZdGBGc6ST0gCdw8uZKfqc6B/O76aabJqNGjbJwef4m8zdgR5mq1157zcrXUaoKkzObNOtGpePamsw4qSkF8OMRDEJQiColdYtczONzzz1nmh77BGtEfr00TY/xcS2+SFqOBegVN2MBegXQkoAQojcffvhhk+q9lJ8GemyMRJMRyLLbbrvVqsF3y/TCOGmHxNipHMF4tCmk1QUsgGR9fwv5g9jApN3xXf64Nddc03IvqfVI26gVV1zRKu6otQwE4Hzo/s9//tNMX0899VTy5JNPJkQDyz+o8Pa+J1iPXoB5gvZESFPuT/7Ubmh50toJFIPH2CdkBWjXP3fYYYclp556arLyyiuHebOgNRSgVwAhkc6p9nDXXXeZlK6msK0qqfNoNkJML4cffrgBpg+QKGBoqbfgWXSFoFA2G61Mm4xb71D2GPr1/to05aNBgOAfWhy5l0TdEYSw2mqr2d8EYgpW4TqlqPAb/lU0PUAP7ZscSkyizAtrKo58FABkmAPqX5Kr123QQ1u/9dZbk1//+te1julaO618dJw3efJkK1GIWTyOYigQoFcAHdVL77rrrrMNTjk4CmhoJlVCfIAOaQ7g8+HU3ZJEFyxYYKCHX1JmF1WAT9NSCyBb399C9EEbY3Njg8WESRWN3Xff3aRzmakk4SNYyG/rNz0CoNiQKXRAHdfbbrsteffdd80SwG9x5KMANP3yl79sKQPbbrtt10GP+aQ59AMPPGACrQQdWQTS+Jw1M3Xq1OSb3/xmVGTJN/0NrwrQK4CYgMUdd9xhVdwVaSfJvtXtFcFJF3P8P36T1HeZQopuLcLkL1y40ECPDZYNQn6kVlJoq/ca9N994QHohuBDSTkEGLR2wKrRGoCujULl5UPld7Q8eh1Sz5VNMqI3O1tNREbjQqAQhPejFSlYKlJbAq+sPMuWLUvOOuus5K9//Wut/JnmOi1lgvsgNFEmcNKkSUYA5e4WOe7OKNufVwfoFTBvLGL8eUh02O2V59ZOygILGdMFkij+Hxa0Fndtcv7zt2YbZievQOLsBRdckLz11lumdaJVRHHb9iiqqhnMMxr+rrvuav4XzJt5Nib5B1lPf/nLX5JrrrnGgqPiyE8BeIYgMSIgAT8JknzmmaNmI/G8qoAm5pMqTXRfkZ9WqUHynzezpvB3NFRyeDGT+/EWOe78lO3fKwP0Cpg7iEgpLxrB/v3vfzc/HQu+FegpTB2w+drXvmapC/hv2Ey9RCrGKCPyDAkU0AP8VH8zktNbLwptPMwz802ZqDPOOMN8ecxnno1J5mX5+DBzXnHFFRbRGUd+CuDLo74tnRbqI2zz3/W/r1Saj/y8pChQ/IFmzRJoEGjVbzMtepPfCIYi6lOR3dE5vZjZCtArho5WtBnQI/xcfr1WPjERH6BD20NLIKxayeEwEd915NlIW73e3/72Nxs3OYY8z+fplfG8VuPpp9+hD5sZc0dFnZ/+9KfWAw2hISvt5ONR1CybIyZnBKE33nijn8hSqbEyD2hKmBjXWGON5QoCFDlQ8brmkajcuXPnWi89vnPIMiBhtxXoYY7F9bD22mub9aebLZGKpE3V7hWgV9CMINXRaQFzhj/SgE++Ovl+8AmRT6Q2Q97ZXVbJpA8//NDML5jRkEBlXm0F2AWRrW9vI1BjXghWoMTVySefbO+Tp8CAtDzfiJRNjqhg+rHFkY8CzNPBBx9sfEXqQlnAIT8dz8Mvzj5AxOY777xTE4DEz7yJokib8dwq/EYAACAASURBVBm/0zwW8ybjViBUmTV581G4/64K0CtozpDmZs+ebWkLJB1L2k8zccIg0uYIhECrw69HtBYmDRKZNUFlNXel0wJ9xmBSxgBTtaoUURDJ+vo2mjvmhbm/9tprLSSe+cqzMcn8pS4dqspCHiXFC+LIRwHAguAiTM+ywDBnRR8CNHgIVwdBSC+//HJNu+N52gsk5KYFizFW+ujxrz5lJasVoeh37ff7BegVMIMQEQmSDQptj/B/Xzy42SNkHlNCO58s9tGjR1u3ZBLWWfCS/sU0Mot4X1/e12DDxu+AKQYJVRtCaHrpFNXcMc/MEZscPiOOPJuSGpsCejJpM9+YNk888US7rzeh5XlG3jXSz9cxPwiRp5xySq3Qc1bfuAcngZssL74oOBo/vfPuvPNOq8OrwDCdq/lj7jTfAkMJmtLoFMSCr1/BLwowK8vq08/znGXsAXpZqNXkXBGRiDu6LdA3y+fqpT3CM5Q2MgIjiDTDLDNu3DjT+Dh8yoIPh1cFmLxmtSuvvNI2bd8LMO/mXQA5++IW0F85V8wXGr5STvK8gNaBBz3ug8+VFAitsTTtIM9zB/0agIdi0yR4+wCtNOCop3G9v87znvx0RG0TwU3wEfwPAKaV8uOeXnhVioO6c1C6jgCz9dZbr5ZKJP4OgaezVRug1xn9alcj8WHWJChk/vz5y4X+55HMYFCkPQJb0Pr4ziGHtsxoikbjtzzPgTExy954441m3oSxohpLe4uCOWCTQtMjmZzE9E6FBeYAEJUGQDQw5jkxqh+Z33zbG/HwnQUt0fJoLeT9aFlBT5GZ0hKl8WEdAfDuvfdeS0CnliqRvPAQc0mQU1qepfz63moDT1JzE38elh8Ofg9Nr5j1G6BXDB1NqoMx6E2HuZB8N19WLMtjtJnBYDixMXOy8dGRgb/VRwdKYswjATJmzDF0WoB5ZWrNMt5hPxdB4aqrrjKztISQPHMBHb2mx5qieAAJyj4IwgNrmKHTVx/8853vfCeZOHGimZ3li21HQGxk1hTt4W/uhXWHQKPHH3+8Fv3MHAqkpAk2GqX43EdmApAIUViMAD7NO+dqzHnX1rDzqd4/QK+glSBTBkne9MdThZO0Rd/s0fLhqRcbjEvfva9+9asGgITFSyODYcTIeQIoWABIqEQJ0hdQATPtbAoFka5vb+NNnCQ/o5X7zSnLi/mAJ5/vhdmUXD0Pbl47CNBLpzIWEtIV9t1330w5etoYvf+PvwFo8BkmTLonPProo1ZtBStPPf/5FKBGo+TeMpFzX8COzw022MDmHMuBgNdrglnWVZz73xQI0CtoVWjTwpZPJB9lyfK255G2IOc2/8dMQ57RTjvtlIwdOzbZZpttzHQikw2vkQf0uA5zLBGclEzyofixoTZfHAIeCSgHHnigRQhS3DjP4SP7FBxBZC3mcoqC+0PP5m8CyDzPHIZrSPCmwwICo+aqHb+oD1CRUMn1WEPIycV/R3Qm7YJUG1UCrlwPPtipEa1V9g+fPQFlMpUfccQRlgIjXhSP8/wyIk+HYR34dwzQK2jGtfmwMJH8KCCNTR9zRVatSWDjQU+pBAI/orqo/oFUqE0wr9nj2WeftdYnSK+6R/iL0heGnyPOZHOFhiQU55mHGiP+xwSHBoDVgF5qRANzaLOWNtnIz1fQch6Y26yzzjqW4L/DDjvUcvRagZ6fC7kO4GWsN4AdGh4CIv48pflIaxPgQUBvTm1EUH4HMLHcqEwZ450xY4b1YJRQI9+x998PzAT14EUC9AoiumzvbFZ8p4D0/fffX+u15qswKCerXSndb3ZiJkye+PjI66O7MswC40naFNCqwoffiL2mwL2RXJGGP/jgAzOvyGFeEGkG8jbQTWHnCCJI6gRMEB5f3wbGB0Hoe/0c+GhffsPUTEsaAowaafAhlLS3rKiDSk1c+EN85MFDfFEfqAKgKe0IYZB0JITDpUuXmilT9/Lz5udWo0ubJ/iMe1GcnPXD8w455BAzx/pIbJ6VVXBujzrDeVaAXoHzDjFV8QGJELs8mxcLFqCDAaS9dbJpca1MNVRxIYBiq622MgAkbJ4WRQI7SaqeacScjBfGo2s3fkgiBSW5ClwLJM/A3UqCDBF2bF5bbrllMm3aNNMq2LS8X0i0loYofw/zonB1rRPOoaEsJaxIWVCi+sARsAsvhMZE7uzqq69e63rhNT2BW71vHM0LbY5AInLvyJfE3Fx0ZDNzy1rhE97FN7zLLrvkdlV0gaR9/4gAvYKmUIwkPx4AwqaFv0zan9fY8vr7ZNdXEAXDR9NYZZVVks0339wqueDvW3fddS3y05srJZWy4UqK5Xqal6LpYU5TMdyCyDKwt5Fmz4Yl7RhaY3YmJwyzs/LCpH0TqFCv3Wt+VIYMgr300kvJTTfdZMCnvK2BJWTJL0YPPcyF8IfMhd5/Km1dAitCH+4JrB8AHjxBZ3uBnYSWIoatNcQnfj3KjuHLA6Dz+ueLGNeg3yNAr8AZFjOxCXLMmzfPQtmR1uWTk3YgAMr6eD3DJ7bKx8Omin8A/xLJ7YAfQMjf0EY8g+s+bMwwNRLmCy+8UIs+FENmHd+wnC+TE/OAaQrtmr9BZ8qRHXnkkcn2229f8+ky/wJHafu+aS9zw4ZLCDxBUGop5DXvYaFtke9JtDOuBuZH1hVfDYVnMW+Y9glMQeCgaDw8wT80Qe8aaNcl0c47IDARCAMgK8qUQDXWUJgz26FgvnMC9PLR7b+uko9HmxufNAOlsSymThzWSHPKw8qr6dU/2EueMCT3RTvAT4Dpk3+kO4waNcqAkMRZ73uAuWBs8oLwW3BtMFx7i0JzzealEm7KoUTjpqgAkbbMhTd1SmDR5ssnZvAnn3zSQuAxN7PhqkVVe6OJsxpR4IADDqi17NLvojuR1m+++Wby4osvJq+88ooFcmHW5MBczZwytyoFKJdBUZRWdCc8yTgxjeMPlim8qOfEfZanQIBegStCWpyIyq1xfqPtUYsPaTNrEEuj4QmUvHlEEisbsWr1yV9AB2a0PUBPAIj/AICTBkoTWxLrZYLzgRYFkmhgbiX6MOfQjJ53zAtAJVMYZir8e7S2wefKb5ozadoKgae104IFC2zjZRNESGKtSEMfGMJ1+UUQPOilJ+EOeiOMYsJEq1u0aFFCpxEADnqjWYtvVAOV/8uvmicyt9krIwDjgiDIhjHim2/kg+8yyQb+cQF6BU6xtDeFL3NrFrai8GAq30Imj0blnfDe1KJ7edMNvwsAATc2XZgM8yeRnzAbnwDizTffbHUDo4Fs+wuCuVA1DQUpebM1f4PmgB/FqDFhYcqSxs/mi1kN8zff2XBlNpUpztdbbX9kcaYoQM7bhAkTTJMm8nLx4sWmSUNvaXPe6iL6N/O9ZqWsLDHwp+dN5pe9AUvMMcccY+ZwgWz487JSOdv5AXrZ6JV6tha4j8zkO8xGmS/a93COD4dudsN2HOb+HB96XZ+e4IFSphM2Y/6xEcN45CAh/db7Cgskz8Ddym+QPifLBw+J9mxo/MNcJsGCdcDGxz8fRq9rFKWbRzgaOGLnfCHMzAh6gBzAhxCBD9YHbNXzkfjX83POx9cuazSnrIeDDjoomTJlilVf8QnxMeedUrz59QF65dG2dmcYDOc4KQz4EHxCayegV8TQkSphPjZg+QMVbRqMVwSF4x69pIBM+PAc61oFnIv2z6W9IyAqQFOZP/5GlZjJkycnRJjqUKRvaHvlrZoAvfJoa3eW6QQfDZoexajxK2hx9xL0YDwxoZhS2kvJZInbBwW6QgGtcUBO6T58Km2n7EHITIqGjzmVMnV80jKIQuJEl3pfrzdvlz22Yb1/gF7JM6/AFQiNeYUCwrQhITovTZNqx7xZxNAVWIFEDIOqAC73LjI8u4ixxj2CAlkp4M3OAjqt+SKDUlppevLnIWRibqXVEUE2+HhVqtBXU+rW2LLScxDOD9AreRYhsCqoo+2RtE7D1gcffDC1z1a3QM/7jZQ/Ju00GK/kxRG3L50CWsMCOh4oIOwWjwlslU9L4ArlxhRBLWFTVXy84Fk6gYbwAQF6JU86C1o9sljMfCewBY1v7ty5TZ/eLYZkAN7E6dMhSiZN3D4oUDoFFJgloOt2STcfwII1ZdKkScmhhx5qgSv8X/4+Pz6VpiudOEP6gAC9kideEqaYj8cBfoSpU2qK5pPY+JUAqwlRHpeX/ri26OASnue7OXB/H31aMnni9kGBrlDAmznLeCD3V3CMCrZ7iwlJ5+PGjbPAFVqEydfIWASMfq8IK0sZs/R/9wzQK4+2qXeGIZYsWWI5fFThYJGT4IwmSDI5DEREpUBIppFuS6o9Ik88NijQVxRQQjuDhm/ZWBFY4V8+8d/xj5qs2nRVvce/qACwr16+zwYboNfDCYNRSJS97777rHs5VdxhEAWQ+LwdSZIRytzDCYtHBwWaUEAdMvjEbCnhlEAVSowdfPDBCW2OvD9RAm0QtbsUCNDrLr2XexrER6MjuAVtj3+YPdWeCAYhCEZankyePRxyPDooEBRoQAEFhKlNELxKQ2G6buy///5m0lSJv/ouJ0HQ7lIgQK+79F7uaQpjxhyClkctwDlz5li1d5Jppen5NkDdDHDpIWni0UGBvqKAcgDhWYCPhHOCVvhE28OUyVHbcL/whZrroq9edAAGG6DXw0nEfwfgqZUIPj2aVdKVgULVaICqmILGx2SJeXo47Hh0UCAoUEcBWWNIPt99992TAw88MNl4443tLLWdgtdVIca3CAtidpcCAXrdpfdyT1M3dcyZSIcyZ9LUlX5qgB/pDeT3SZL0ml6901u/RdpBDyc1Hj0wFKjnJ2lq/N3zGHyL4IrPDrCjygrgJwuNojlVX1WAJ//ewBCsT14kQK+HEyXQ8kzAcABDSpVRAPqJJ55IaDtDyxlV4ZdUqcnjGhiM/wOOfJePIRirhxMcj+5LCgiclEIg64oCzBSZifUFsCMik+avO++8s/nxSE/gUOpPffCZwDTSEnqzPAL0ekP31Keq4DNMRbkyumn/8Y9/tGaXRHtKyvRMKHBTrpCPEgvmquAkx5AqSwFfpQheU0cGTJOyzgB26667roHdjjvuaMBHhZX6fpS+e0ZlX3jIBhagV8EJF5OpFh//p24nmh9a31NPPWWtgBQare4IigoTGPow6gC+Ck50DKmSFPDdRviugtDyydGHEhPm2LFjrXA0gSqAnTRDH3hWyRcc8kEF6FVwAQBayvNRE1glqqP50QiTjg34/ej6DLjxT8mu+ACV9iCzZwVfM4YUFKgkBWR+VFNX+ImD3pN77rmn+e3Q8gBDglQ41Dhargf+pujsoqsoVZJofTSoAL0KTpZSFcQ4YiQVouUTsFu4cKH5/OjV969//auW5iCfXr2vsIKvGkMKClSOApgu4Sf4iC73K620UjJmzJhk1113TUaNGmU5d6pXq6CWer+dt7aElaVaUxygV635sNFoUhToIqYRI8FgSJF0gCa/D5MnPj/AD7MnB9Gg+B84gukqOMkxpEpTAFDDR0fndfx2fCrBXMKoNDzxmIBPfKpAltD0qjXVAXrVmo/aaHyEl3wFMJH32/F3GI2C1R988IGBHvl9BLx88skndq7v1CxAFTP60Gsvmao4diTCV3RxxLDapkB9JKYv/eUro+A3R5BEy1t11VWT7bbbzjqbE40J2GHK9NfW86cHQJ9KVJ9W1PbA48TSKBCgVxppi72xmKcZQ+F3IM3h888/T1599dXkkUcesUR3zDQ+2tMzq8ygjFSg57+HhljsHMbduk8B1jjuAP7J7621jiUEfgDQ+B2fHWC3zz77WGI5YAcISoPzQmL33ySeWBQFAvSKomSP76PgFxiZf2h6r7zyijWrRQMEFJXGILMnDC3GVw8vFgQbQJhFezyh8fhCKKBITFkvlA4kAOQhBKxgvqQwNJ+rr766uQcEcj4RPUyVhUxLT28SoNdT8hf3cEDP+xJgTrQ+fHzPP/+8mTxff/118wOyESiyTAtAEaD15qDiRhh3Cgp0nwKyVrC+WfOAnkr7kWqw2WabWZ7dDjvsYBGZpB54M6Zy9mS+DNDr/hwW/cQAvaIp2qP7efDy5Y74Tk1Peveh+RHwgvmTABgFxMDYSLvcA9+GL47bo9eJxwYFCqGA+EImSj7x2WG+3GWXXSwqUwEq4gEBJANQg2Xf17KQgcVNekaBAL2ekb7YBzORyu3zWhtPkekT8KN1EeC3YMEC0/z4G0CHOQew841rI5Cl2DmKu3WfAmhuyrOjPBiaHe1+MGOutdZa1rDZ59NR6o80BfGSwFLWEe4XR39TIECvv+dvudErylP+C35U81kADfAD4NgEKGpNK6O5c+caEGL2lOYXEWcDtCjiVYwHttlmm2T8+PHJ6NGjrRg0SeWs9/riDb77gfzbKvoQgSyDsZgC9AZjHlPfwkd+CgiRXNHyqOWJ1vfMM89YKyOiPXVORG8OweIYgFdEyEOQA8iwVGC1QGPDjDly5EhLPaBkGF0Q0OL8utb3+hQEn9YTRdsHYJG4VwjQG6z5zPw2RG/i36OuJ/6+P//5zxbtqQjOzDeMC4ICXaaASoABaAhtmDGpnLL99tsb4FEf80tf+lItQCVArMsTVLHHBehVbEK6PRxpgSpqTZDLpZdemnz00UfdHko8LyiQmwJKNOcGaHdTp061nDvADs1PR6Qf5CbxwFwYoDcwU9n5i2ASwtc3ffp0i/b0Ceud3z3uEBQohwLqRoLVgkTzLbfc0tYwgSpqzizzpffhhfm+nPmo+l0D9Ko+QyWPT8EtctZTzuz888+3vL44ggL9QAGV21OgCakI55xzjiWZKzCF9wDk6gtD98P7xRiLpUCAXrH07Lu7KalduUmYNWfMmJHMnz8/Noi+m83hHDBrmBw7QA0z/f7775+ceeaZln8nDU9mfGmFUCoSzYdzvQToDee8195aOXxKwiUQYNasWcmcOXNsE/GJ7towwiw05Iumoq/P+sTEedxxxyXf+ta3khVXXNFGqlZdatHlIzUr+ioxrBIpEKBXInGrfmtNvg8CIF/v+uuvT2655RaTklWot1HHhqq/X4xvOCgg4Uzmy5NPPtmAT4nkvshCCGzDsSbS3jJAb4jXgKq4KCdJdQbvuuuu5OqrrzapmX/S9iQpR4DLEC+aCr66gIzcUzolnH766cmECRNspGHCrOCE9XhIAXo9noBeP14lmOTw55Nk9ZkzZybLli2zTQPgw/yJv4ToOHVp6PXY4/lBASjAJkaUJn0lyc/74Q9/aBVYJKQFlYICngIBekO+HlS6TAm7gB5pCxdffHHyxBNP1OoQAn6YPvGTUPUijqBAVSiACZ5qLIAevfBIVyA/j9ZZcQQF6ikQoDfka6K+/BLkANRuu+225Kqrrlou5BsNT6Wehpxs8foVogCgh6YH0E2ePDk5+uijzReNVSKOoECAXqyB5SigUG5FuKno9Jtvvpmce+65VoxaJiTOJZ8vSpTFIqoSBZSqQAUWTJu0DWKtspbDp1elmarGWELTq8Y89HwU9Rof/rvZs2cnt99+uxWmRmoGGDFxqqs0g1afMXyDAtCev0wMYOAo4INVBGZYHnz+3dlnn51MnDixlrOniOOBI0a8UEcUCNDriHyDezELgyLUl112WfL000+bfwSzJ0V9qWjvQdLXMxxcisSbVYUCap2l4CssD/vtt19yxhlnJGuuuWYtgCWEsKrMWLXGEaBXrfmozGjYSNhUCGa59tprk6VLl9aiNn2VegXCqLyTz4mqzMvEQAaCAqw7zOtYG7AsYH1g3W200UZWgYWITf4vrTBMmwMx7YW/RIBe4SQdjBuqUzRa3WOPPZbceOONyXvvvWemTSWsy9fn8/Yi+Xcw5r9qb6F1pUhNrA58pxP6UUcdZZoeIMf69I1gYz1WbSZ7P54Avd7PQSVHoMR1Bke/vYceeii55557zOSJtC1/nqRpBcKEdF3J6RyIQWmzYv3hz0PDO/bYY5O99torWWmllWpgh8CmgCvfVmggiBAv0TEFAvQ6JuFg3oCNAykZaZrvtB2aN29ectNNNyWffvqp+ff4DXMSGwznqHLLYFIk3qqXFJB/jsLSBFkBeGh4AB65o6w/flMBdYEef4sjKOApEKAX66EhBdg8kKbZNARoAB+d1dH46Lf3/vvv27XaYAL0YjEVQQE2JW9B4J7yGa+yyirJTjvtZOZMfHgEVvEbAphAj2sRyqi9GebNImZksO4RoDdY81nY2yhARZ0VpPkhZRPUQr+9F154wcyd9OBTXlTU5SxsCobyRgIwBaRI8KI33uabb55su+22Cf3yRowYUUs+92kL8ucpoCr65w3lMkp96QC9WBNNNT0BmMyXBLXQegige+edd5JFixbZ98WLF5tkzXkRvRkLqhMKoJ2xlgRkfFJp5Stf+UqyySabWG1NPkeOHFlrEqtNjGuVL8paREALn14nszGY1wboDea8dvxWHrz4jinzmWeesX9odvj1SFrHrMTmwqEWLx0/PG4wtBSQH1lFD9QglvJ3SlkgaGWttdZKxowZk+y9994GiDLHA3LqGgIRI7BqaJdS0xcP0Is10VTT0wb0+uuvJw888IDl7AF4Mj3xyQLCBFXfoDPIGhTIQwFpeL7qiiqrAGD4lfHj8TcCWPbcc8/k4IMPTrbcckt7HJoeGh9WiSg4nWcGBv+aAL3Bn+Ncb4j2xsbz2muvJTfccIP57/ib1+oEflpE0vZyPTAuCgrUUaCRxqZ1qVPR+nbcccfkhBNOSDbddFMTwpTSwGdoerGs6ikQoBdroqmm9/bbb1u3hUcffTT5/PPPTXJm02EjUSkor+FFEEsspk4pUF86TMCniE7WHSZ1gRtrjsos48aNS0466SQrQ+b9gRHI0umMDN71AXqDN6e530gpB1oUs2bNSu6///7k448/rvnr5GvRQ3xIeASx5CZ9XNiEAh70fM9HTpcWh0kTvx7Fpk899VQzcUooC00vllZoerEGlqOAl4plnuRvRGeed955ySuvvGKSM5uHEoAD3GIRVYkCWpdbb711ctFFFyWrrbbacpaIKo01xtJ7CoSm1/s56OkIvHbnQQ8Nb+bMmdaN2mtzvth0TwceDw8K/IcCMqsDdj/60Y+SPfbYYznLRBAqKOApEKA35OvBa3q+Z9kvf/lLKzKtAr5EaCpaM6pcDPmiqdjrywSKNWLq1KnJlClTYq1WbI6qNJwAvSrNRg/H4sGPYJWLL744ue+++2plyFQZI0ybPZykeHRDCngh7NBDD02+973vWQRnBLHEgmlEgQC9WBdGAQ965DhdeOGFFrWpHDzfhTqALxZNlSjAeuQfVokJEyYk3//+9828GdVYqjRL1RlLgF515qInIxGAKViFTzS9GTNmJI888oiVHSPZN4CuJ9MTD3UU0BqVkOaJw5olZ2/SpEnWQR0hLUAvlk9oerEGmlLA50exYZCQfvPNNyeffPKJ5edJOmIjQfuLIyjQTQpI6JLJUsErMm1Sr3ONNdawXL0jjzzSIo0xcYb/uZuz1B/PCk2vP+ap66N87rnnkp/85CdWdoxkYBWT9lUyuj6oeODQUkB1NwE3vgN+6vyhdBrqcV5yySVWkFpBV5GnN7RLJlXAt24c/xP2q1gdjgJ0S2cDefjhh81MhJ9PWl4ECMRS6QUFZI1g/bFpqYmxJHc0vGnTppllQkUUQtPrxUxV+5mh6VV7fno2OjYVOiqg7dFRgYMmnZ999pn5+OIICnSTAtqo1HoILY/yY1ggKEK9xRZbJNOnT0823HDD5SI3Q9Pr5iz1x7MC9Ppjnro+SjYVtLs5c+Ykt9xyiwEfpqXQ8ro+FfFARwHWHz5lNi6EMD7XXnvt5LTTTkvGjh2brLDCCjVzvI84DiIGBUSBAL1YCw0pQDQcUjR1Nx988MHkd7/7nTWLVZeFIFtQoJsUkJlSYMc6ROujs8J+++2XjB8/3jQ//obZEw0vQK+bM9Q/zwrQ65+56upIzdH7hS/YBkIE58KFC629EAEu+PvYdPhNQQUMTvlSXR1oPGwoKCAfHdYGOqkTqUmtTUqO8bnKKqs07OkYPr2hWB6ZXjJALxO5hudkX5NTps6PPvooWbJkSbJo0SJrNfTvf//bpGl1TPdpD8NDqXjTblEA0ybaHFGaG2ywQTJixIhk1VVXTeiqrt6O3RpLPKd/KSDhPKI3+3cOSxm5D+YF9PjHxoJ2B9jxyd8EdIBfBACXMhVx0ySpaXGY3DFhEqHJd44ogh5LJAsFAvSyUGuIzpUJgFdWbzL/+tLwZHYK0+YQLY4evKryQ71vL8CuBxMxAI8M0BuASSzrFQR8CgqQydOHgfsmn5K6yxpP3Hd4KSArghLRVZIsUhKGd0108uZmoYrk9E5IOHjXEhbOhiJNTqZMaX2Ssr3kPXhUiDeqEgW8n1mgJ/N6BKxUaaaqP5YAverPUddHCMgBcPjuWCCqY6gWQ6HVdX1Khv6BMksJ8OpNnkNPoCBA2xQI0GubVMN3oi/sqyjNMCkN3zqoyhvLzBmaXVVmpH/HEebN/p27GHlQICgQFAgKZKRAgF5GgsXpQYGgQFAgKNC/FAjQ69+5i5EHBYICQYGgQEYKBOhlJFicHhQICgQFggL9S4EAvf6duxh5UCAoEBQICmSkQIBeRoLF6UGBoEBQICjQvxQI0OvfuYuRBwWCAkGBoEBGCgToZSRYnB4UCAoEBYIC/UuBAL3+nbsYeVAgKBAUCApkpECAXkaCxelBgaBAUCAo0L8UCNDr37mLkQcFggJBgaBARgoE6GUkWJweFAgKBAWCAv1LgQC9/p27GHlQICgQFAgKZKRAgF5GgsXpQYGgQFAgKNC/FAjQ69+5i5EHBYICQYGgQEYKBOhlJFicHhQICgQFggL9S4EAvf6duxh5UCAoEBQICmSkQIBeRoLF6UGBoEBQICjQvxQIiEocBgAAABZJREFU0OvfuYuRBwWCAkGBoEBGCvwvPlMmuRDc6Y8AAAAASUVORK5CYII=;" vertex="1" parent="1">
                    <mxGeometry x="80" y="110" width="140.41" height="130" as="geometry"/>
                </mxCell>
                <mxCell id="3" value="" style="ellipse;whiteSpace=wrap;html=1;aspect=fixed;strokeColor=#FFE924;fillColor=#F8FF2B;" vertex="1" parent="1">
                    <mxGeometry x="240" y="180" width="30" height="30" as="geometry"/>
                </mxCell>
                <mxCell id="4" value="&lt;b&gt;&lt;font style=&quot;font-size: 18px;&quot;&gt;1&lt;/font&gt;&lt;/b&gt;" style="text;html=1;strokeColor=none;fillColor=none;align=center;verticalAlign=middle;whiteSpace=wrap;rounded=0;" vertex="1" parent="1">
                    <mxGeometry x="245" y="185" width="20" height="20" as="geometry"/>
                </mxCell>
                <mxCell id="5" value="" style="endArrow=none;html=1;strokeColor=#FFF024;fillColor=#FFD942;shape=flexArrow;" edge="1" parent="1">
                    <mxGeometry width="50" height="50" relative="1" as="geometry">
                        <mxPoint x="280" y="195" as="sourcePoint"/>
                        <mxPoint x="440" y="195" as="targetPoint"/>
                        <Array as="points">
                            <mxPoint x="340" y="195"/>
                        </Array>
                    </mxGeometry>
                </mxCell>
                <mxCell id="6" value="" style="shape=image;verticalLabelPosition=bottom;labelBackgroundColor=default;verticalAlign=top;aspect=fixed;imageAspect=0;image=data:image/png,iVBORw0KGgoAAAANSUhEUgAAAeAAAAHgCAIAAADytinCAAAACXBIWXMAAA7EAAAOxAGVKw4bAAAgAElEQVR4nOzdZ3gUVdsH8DM721t20xNISAgdBQURu6gPNTTpVRRECKH3pii9dwIoIjZAeq92BUUQUHpo6Zu62SSb7Tv7fsBXEWHrnD2zu/fvw3NdJjNz3w+w/0xmTqEcDgd6NIPB4OS7UqkUzoVz4Vw4F87FdC7PyfcAAAAQBAENAAAcBQENAAAcBQENAAAcBQENAAAcBQENAAAcBQENAAAcBQENAAAcBQENAAAcxefm/Bk4F869h2EYVKF36A2OKoOxSq+v1tN2R5SZYUwWi8lkMplsdpvVarPbbA6GsTOM1WqleTyKx6P5fAGfz+fzRWKxUCTiiYXFIkquCpPJ5VKlgqeQUQoZL0xO8XgPrUvq/y+cC+fej+/kewDg5rDZ7IVlhvxCVFhmLSorLCyUl1QaCkuUWj2jraAq9I4qA7pvNQIhQggh7X1X4CEkclrChpANIYSQFCEGoSqEqv6uTiGeQk6pFHSUio5QWZRSY4RSEhsljIlAMRHi+GheTATFp1n8/wuARyCggZ9UlJSK72qYLI0mOycmX8fkFenyCqRFOmS3/32MEiGEkBwhBiGEkLNlYthAOZCjUu+o1DM5GitCCCERQgxCJoTQvf+lqMpIhSqhBpUQbamdyE+ugZLjLclx4bExmFsDACEIaICD3W4vys613LhL38gR3M6vvpVtv5WrMlj1CCGEwv4/AZ39ascRDoeypJIpqUTnr1Xd9+UCmUCWUotfrxZTP1FQL0ncKEUYFc7jwRsdwDIIaMACo9FYfu2m9Y9M+6Vbhiu3HFfvqIy2v/9tKUi2hkVYtRX9eQv9eYuHkB2haoTyxLSwQRLVKIXXuLakcV1poxSxWEy6TRDwIKCBNxiG0VzLZM5dNV+4bjx/lbqWpbAjHkI8hMJI90aE2mRHF2+ji7cRQg6ENDSy100QPlFf+GQD0RMNRE80pml4lg08BgEN3GUymcovXOGfvaY/c4l34bpcb0YICRASkG6Mg5R2hK7nouu5aPvXDELXZQK6xWPylk0cLR8Lb/6YTCYj3SAIDBDQwBmLxVJ85gLvzBXzqYvUxUyFHaH/f5UH3KestqLvLzi+v4AQyqaRqHkj6XNPWF5oGt3yCYlEQro7wF0Q0OAhSi9dN3xzxvz9OebsFanZhlwNZQPuU9gR+u2q7bervJVbs4U8QcsmjuceF7zUPKJxPXjNCB4AAQ3+Ul5ebv3hd+03p5mTZxSlVRRC8JILN5mFQT9dRD9dRIs+z46Q819qLnntaf5LzVUqFenWACdQsCdhiJ9bmZNfdvKU4Ouz9JkrQhvj5GDgHxYexbRszG//vKr9i+rkxAD9dwXnsnIu3EGHqMJrmdUHfzAc+iHsarYSUaTbAf8QMg70y2X0y2X9exvzGiXSrZ+RpL4U06AO6b4AARDQoaX4xi3dnpNV+7+LvlUo/GvmNKQzd6mu5qCrOWjVjlvJMbxOL8o6toKkDikQ0CFBn19YvvO4bs9J1dUcCUIwbiDgqO8WodW70OpdN+rFK19/TdHlVXnNONJNAewgoIOZXq+v2Pu1fsdxdOpPMaLgxVMQiMwsQIs+r1j0aWmLhuIerSN6tA0LC825QSEBAjo4Ff7yu3X7Cd6x02KjVYwQPMcIMmLEE5+9gc7eKJq1oaTTS6K+7RNeakm6KcA+COigUlVSpt9xzPbVCWlWEUzwCwUSkw3t/Bbt/PZ6rRhx/w7hAzopoyNJNwVYAwEdJApOnWO+OMI//qvQxghJNwP8T5ZdhOZ/Urr40+IOz4ve7Aw31MEBAjqwVVVVlX1+oPrzg8qbBaR7AeQJbAw68BM68NOVlDjV0O6Czq3kcjnppoD3IKADVUV2XtlHu6gvj/GrDLA4BniA8raGmbq2as6msp6vqgZ3C0uqSboj4A2qurraybcDce5N0J9bdu5S9Ye7+Sd+FcG8P+AGM3LYOzynGtEn5pkn7/86R/49w7lOvgt30AGDYZjSk6cqMraHX7gNq1UC94kQhY78Yjnyy41m9eSj+8W2fxkWpw4UENABwGazafYct63fpbytCSfdDAhc0vOZzJvvX0+JU48dGNWjLel2gGuwvCGnmc3moi17il58UzpxjfK2hnQ7IBgob2vsoxbntOhT8tk+k8lEuh3gDAQ0R5nN5oJNO7Oa97JMXCnOLyXdDgg2wrwS3swNxS++Wbh5N8Q0Z0FAc47ZbNZs3pXToo996hppYTnpdkAwkxXpBO9/VPzimyWf7bNYLKTbAQ+CgOYQu91+d+uB/GcH2CavFheUkW4HhApZkY43c0Ppy4NzdhxmGBgbxCEQ0FyhOfxd5gsD+KOXCnKKSPcCQpEov1Q2cU3Wa0OKjv9IuhfwFwho8srOXbrSfqht0Cz5zXzSvYBQF3Zbwx86/2aX9KJfL5DuBcAwO6IqsvIq5m+SHfsVpgICTgm/cNvScczNjs9HzkpTJyeSbid0wZ6EZM41V+qzln0s+ugAbbE6OQsAsqx8XvVbqQljBwkV/1rTgyOfo6A/Fx5x+Jvdbs/7fN+tp3tL1+2GdAYcJ7Axqo8O5r4wSPPlAXh/6H8Q0H5Vdu5SZushjnHLlaVVpHsBwF2q8mrhtIysjiPKz18h3UtogYD2E4NWd2PMXG27NPmfd0j3AoA3wi5nGbqOuztpcXUZDM/3Ewho7BiGKfrqSH7LftIvT4jhDxwEMjHiKb/6VvvKkLzP99ntdtLtBD/IC7yqbmZl9xjHn7RaXK4n3QsA7JDqDI5xy290TNNdu0W6lyAHAY2LxWLJWrbZ0H6k8twN0r0AwD7F2evaV97OXLDebDaT7iVoQUBjUX7+SlmHdMWqHXyLjXQvAOAisDGSZdvyXxlc8tsfpHsJThDQLDOZTHkfZBi7jhdm5pLuBQB/EGTmVnQYefe91UajkXQvwQYCmk1l5y6Vtk2TfHxAhCjSvQDgPyJE8TN25bWCW2mWwZ6E7JxrsVj0a7eZVm8XMc5mZgIQ3Mw8RA/rHj9zuEgketQxHPz8cvZcuINmge7aLU1qumPlNkhnEOJEDOKv3531v7e1VzJJ9xIMIKB9wjBM/qadlk5j5TfgiTMAf5Fey65qnXYn4wsYK+0jCGjvVRaVFL4xXTz7YxqGagDwbzyLVfDehzm9xusKi0n3EsAgoL2k/fZXfdsRoh8vkm4EAO7i/3Ch9OXBJSdPkW4kUEFAe8xmsxXMWe946wORFhY8AsAFUVmlqd/07PdWw3wWL0BAe0afp9F0Gyv6aD9yuo42AOAfDgcvY1d2p/Sq3ALSrQQYCGgPlH19WtdhpPQirD8AgMck5zMLWg0uOfET6UYCCQS0W+x2e9aCjY4hsyU6Z8PGAQBOSCsMpv4zS5ZshrX/3QQB7ZpRq8vpNZ5e9iUFTzUA8JHDwVuzQzNgmrFcR7qVAAB7Ero4V3/1VuXQ2aJcGCoEAJusiTERW+aENWnwwNe589nnwrlwB+1M8YFvjF3GQzoDwDpBTlFFh5EFe46TboTTIKAfjmGY8kWb6ZFLeGYL6V4ACE6UyWJ/Z17unPUw4fBRIKAfwlZt0AydxazbQboRAELAqm0Fb0yz6Z39ph+yIKAfZM0v0nQbKz55lnQjAISM47/mtR9uyS0k3QfnQED/i+GP62WdRkuv5ZBuBIDQQl/Lym833HThGulGuAUC+h/6oz9V95gsKK0g3QgAoYhfpC3uNEp/7GfSjXAIBPRfij/cUf7GTHglCABBlMliHjZX+8le0o1wBQQ0stvtxbPWmqevheU1ACDPgRyzNurnfgSzDREEtNlszk+fa4YBGwBwifnD3cVjFzksVtKNEBbSexLaDaaqYXPsP/zu5HgAACnCV5+O2DybL//nE82F3PDnuaF7B20s15X1nQzpDABnWb79raD7WIM2dFftCNGAthdr9T0n0xdgX0sAOI36/Xpl5zG2ojLSjZARigFtydXouk/gZcJgZwACgPX63aLUdFN2KC72H3IBbbybV9FjEsrWkG4EAOAuJquguGO6/lY26Ub8LbQCWnftdkX3CTxNKelGAACeoTRlJZ1GVd64Q7oRvwqhgNZevVnWdQxMFAQgQPFLdPreU3TXQmjPuVAJ6LJLN7SvjxOWVZJuBADgPZG2qrr3FO2VUHm9HxIBrb16U9djggjSGYDAJ9ZVG/tOC5H76OAPaN212+Vw7wxAEBHrqg19p4XC8+gg35PQcDevsuckQXG5k+MBAIHIFqWKOrhGXqfW31/hQuawe24w30FbcjXVfaZCOgMQlPglOu3rY4N7fHTQBrS9WFvVbzqMqAMgiFGasrLu422aEtKN4BKcAW0tr6zqPw1mowAQ9JisAk3P8cG6XkcQBrSt2lD+5kz7jZCbdARAiLqeXdp3clBuOxtsAe2wWPXvzIFVkAAIKdTv18venBl860cHVUDb7fbc0fPtP10g3QgAwN8s358rm7QsyPZhCaqArpi9kdr1DekuAABkUHu/r5i/iXQXbAqegC7+cEf1uu2kuwAAkMR8uCeY9pwNkoDWHf7BPGMd6S4AAOQ53v9Qe/RH0l2wIxj2JLT8caOixySe2eLkFABA6HCIheqDqxVPNrr/ixzJK4/ODfg7aGt+kfat9yCdAQB/o0yW0n5TzbmFpBvxVWAHtK3aoHlzJizxDAB4AL9Ep+k32Rrgg6MDOKAZhtGOWiC7kUu6EQAAF9HXsgqHvW+320k34r0ADujiRR/TX58l3QUAgMOO/5o/dwPpJrwXqAFdvu8bwfpdpLsAAHAdteargl3HSHfhpYAM6NJL122TViFEkW4EABAAbGOXVvx5nXQX3gi8gDZodeZ35sKwDQCAmyiTpeqNd43lgbfiXYAFtN1uLxw6S5wPqzwDADzgyCvSpi8IuJU6AiygCxdtEvwAayEBADwm/vmPsmVbSHfhmUDak7Ds69NoyBzktGEAAHgkihJ9OTe6zYv//Q6nsu5vAXMHrc/TGMYtgXQGAHjP4ShPm1eZGzDbGAZGQFssFu2IudIKI+lGAACBTVphKBzyntlsJt2IWwIjoEsWfSy7eJt0FwCAYCA5n6mZt5F0F24JgIAu+/q0eNMB0l0AAIIHvX5XyclTpLtwjesBXVFUYpq4Ah49AwDY5EAVIxfoCotJ9+ECpwOaYRj9uKVibRXpRgAAwUZUVqlNn8fxpZQ4HdB5H34l/vkP0l0AAIKT4IcL2Ru3ke7CGe4GtPZKpmjpl6S7AAAEM97cT7RXMkl38UgcDWiLxVI1dgnfYiPdCAAgmNEWa8nwOZwddcfRPQlLF2+m1u5wcgAAALDFmta99pwxTg6APQn/UXL2D8var0h3AQAIFczG3UW/cnGRH84FtMFgME1YIYK1ngEA/iJiUOWohc4fJxDBuYAuW/KJNCvg9+IFAAQW8V1N0YKPSHfxIG4FdNm5S/THMGkQAEAAs2F3yW/cGtfLoYC2WCzmySvh4QYAgAgRoirHLubUiA4OBXTJ6i9Et/JJdwEACF3CzNzC5VtId/EPrgR0xY07dAbs0g0AIIxZtU137RbpLv7CiYBmGKZk6gqBLcC2CwMABB++jckfv5gja3RwIqCLth1S/36TdBcAAIAQQsqz1zVbD5LuAiEu7EmoL9XmP91PWunsYAAA8CeDShr+3ceyCPW9/wzdPQnzPlgL6QwA4BSpzlC8kPywaMIBXfLbH/S2E2R7AACA/xJ+9bX2/BWyPZAMaLvdXjx5mZj0DwkAAPgvMeLpZq5hGJKDF0iGY/4X+5WXswg2AAAAToRdziradohgA8QC2qSrrJxH/hEPAAA4YVj8qaVKT6o6sYC+u+SjMC3n1o4CAID7qcqrc1d+Sqo6mYAuv5Mj+pgTwwwBAMA5+SeHy+/mEClNJqAr5n8E8wYBAAGBb2NKPsggUppAQJec/UNx4qz/6wIAgHckh04R2XKFwJ6Eme2GSs7dcKc5AADgiOpm9RL3rX7ot4JnT8K8Q99AOgMAAo7sfGbh0R/8XNSvAW21WivnbfJnRQAAYIth8RabzebPin4N6OIdRxU3YUl+AEBACrutKdvt16Up/BfQZrPZtITYcEIAAPCdfeVWi8Xit3L+C+iyzw8I80r8Vg4AAFgnyi+t2H7Eb+X8FNBGo7Fq+ef+qQUAAPgY12w3mUz+qeWngC797IC0WOefWgAAgI+sSKfbetg/tfh+qGE0GqtXfSnzQyUSzFIReu5xe5O6cfFxPAqWTgWhjnEwmgKN4PIdx88XhQYz6XawsKzfaeqXKhaLcRfyR0CXf3lIFoy3z/qEKMG4/nHd28pkwfrTBwBvKBFCCBkMBs3u49YVX8pyigk3xDZZka5qxzHxG11xF8K+J6HFYil+8U2JRutdf9xkQgwzomfitHckEgnpXgDgNJPJlLPgQ2rdjiDbmsMUH5l4dptIJEIBvSdh+d6vgyydLTSF1k2pP3sMpDMALonF4nofjKbWT7PSFOle2CQuKC3bdRx3FbwBzTBMVcZXWEv4n33RqLq9O5HuAoBAUqdnqn3xaNJdsKx89Zd2ux1rCbwBXXT0B/XdIqwl/Ez7+ov13uxBugsAAk/dQd213V4i3QWblLc1hUe/x1oCb0BbNu7Cen0/M0uEyfPGke4CgECVPHesWSIk3QWbqldvw3p9jAFd9OsF+cXb+K7vf/a+bZTRkaS7ACBQKaMj7X3bkO6CTZLzmYWnf8d3fYwBbfhoN76LEyHt0Zp0CwAEtuD7EOkytuO7OK6A1t7OEp0Mqm1TKiT8+OZNSHcBQGCLb96kQiog3QWb+Md+1WXlYro4roAu+3CXCAXVqBpenQSapkl3AUBgo2mal1KTdBdsEiGqYvNeTBfHEtAVFRW8r/y6aqofmNUK0i0AEAzM4cH2URLu/Fav1+O4Mh/HHJiyzw8I9X5a7clveHRQzYMCgJTg+01UWG2y7P1OOqz3Q7/LuT0J9Z8ewHFZAADgporNe3Bclv2ALvnpXJBNTgEAAOeUtzVFP5xh/bLsB7QBbp8BAKGn8pN9rF+T5YCuKCoRfv0bu9cEAADu4x37paKQ5YVVWQ7oqu1HhQy7lwQAgAAgtDHlbO+0wmZAMwxjDbrRdQAA4CbTl0fYXd+OzYDWnjqvzCtl8YIAABBAZNlF2tPnWbwgmwGt/+ooi1cDAICAo/viEItXYy2gKysr+cfZH2UCAAABxHH4p4qKCrauxvdlv6z7z9XuPiEx29hqCwAAApHEZCvbdVzQt+PfX+HEnoRVXx1j61IAABC4TLu+ZutS7AR0ZW4B/9fLrFwKAAACmuDsVX2ehpVLsRPQ2p3Hg2xPdQAA8I4Y8Sr3fsPKpdhJVR3+7ccBACBQVO3/lpXr8H2/RMGV6xGZBb5fBzih1+sdV++Q7gIECf7jdSUSCekugllkZkHR9VsxDer4eB0WApra/6PvFwHOyWSym9+clizbSroREPDoWe/EPw2bt2HHP/wz8jmgWXjEUbX/O98vApyjKKretOG8FRNsfHjWD7zEiASOTTPjRw0g3UhIMB74wfeL+PppL7uSKbmd73sfwB01BnZRbV1okYlINwICj0ktV+5ckti1DelGQoXkrkZzNdPHi/ga0PoDcPvsV+pXn1EfWeeIjSDdCAgktoTo+KPr1c81I91IaDEf/dnHK/i6J6H24HeRPrYAPBTeuJ7wWEZhvymiq1mkewEBwPFk/citC2VR8EPd32wnf5W+O5LYnoS6rNxIGL9BgrxmXOKhDMsLTUk3ArjO0P6ZyP2rFJDOJKiv5pTfzfHlCj4FdNWJ076cDnwhVMoTdy6ne7Um3QjgLuOQTnW2LHB+jwaw0h39yZfTfQpo5uSvvpwOfCQQCOLWzbRMHki6EcA5Zsoh+GB4vUWTaJom3UtIsx495cvp3gd0eXm54Ow1X2oD31EUlTJ5qH31RJsAPofgLw6RQLz5/dj0fqQbAYg+c0Wn03l9uvcBbfrurAi2H+SGpH6dw7cu0ivEpBsB5JnDFeLdS2t2eo10IwAhhISMw/rj716f7n1A60/CA2gOCXvl6djD6xAMvwtthlox8UfXRz/zJOlGwD9M3/zm9bleBrTdbqe+Ped1VYCDulFd+cn1lsdqk24EENKsQY3jG6UpiaT7AP9i/f4cw3j5tMHLgC7585qorNK7cwE+6rjYxINrDa3gBirkmFKfi9y/Sh4ZTroR8KCw8uqyK15OKfQyoE3fnfXuxBBnzi5gd1f2/xIo5CnblzF922KtAjjFPLRLyifzcS9QZ7FYqm9lYy0RrKzfe/m8wcs9Cc3f/QZDK71g/f7cnRM/1ts4m5Zj/PPj8/mJq6dnJ8XRC7bgqwK4wEwh5ewRCWl9sBeqqMwZODWueztUpxbuWkHo9B/SKe889Dvs70loMBiYc1e9OBEghOTHf8vrOqqqpBRrFYqikiYMRusm22H4XfByiASyLR9E40/nqpz8ux3SxKdhWzsv2c5eMRqNXpzoTUBXnb0ktzq8OBHcw7t4s6T1sKrMLNyFEnp3jNi+uFoJS7MHIUuEUrJ3eVzqK7gLFf9xVdtuhOxGLu5CQUxmYQp/Oe/Fid4ENHX6Ty/OAvcT5JVoOqRpT3k/QNJNipdbxB3JQHGwpFVQMSbFxh9dH/U09sVYyk6eMqeO5hWX4y4U9BynLnpxljcBbT5zyYuzwAMkuuqqnpOy9hzDXSisQYri5AZbkxTchYB/8Jo3rHl8o6R2Au5ChZt3VwyYjkwW3IVCgeHnC16c5XFAGwwG/kVfV6EG9/AsNvqd+XmrPnM48D4yUsVGJ+xfa3q1OdYqwA8snV4I37dSGqHGWsXhcNyevc46eZXADg8z2cG7mFldXe3xWZ6eoP39khBmeLPKMWfT3QmLcA+/4ytkyVuXoP7tsFYBWFmHvZ788Vzcw+nMZnPOO7OEq7/CWiXUKOyo7KzHD4c9Dmg+LJCEgeCzI9cHTLLpnQ248R2fz6+5chqaOQRrFYCDhYfE89JrzxvH4+HdlNKkq9B0G8vb+z3WKqGJd8bjYTAe/2Xbzl7x9BTgDuXJc3ldRlUUlWCtQlFUwthB1g1T7UIWNnQH/uEQCWVbZkcN6427kDkr/2774fQZ+IxjYfkNc0AzDGO+cN3TGsBN9B83S9sMq8y8i7tQ7R4dFDsWG8JgslEAsEaG8Q8sj+3QCnehwguXNe3T5DdhD2hcjOcue/ok07M9CUsvXVcZrN60BtwjzC/VtE+zbpkb8eJTWAtFvPCU4Oj6kp4Thfl479mBLypS4lK2L5Mk18RdqOT4z9Yh79MwYAMnZbW18OIVdcM693+RzT0JDedhAiF20gpDVe/Jd3YdxV1IWS856uRGe9O6uAsB71hbNEw5ttEP6azZtLNy4AwYTucHJg8j1LOA9vTqwDu0xSYYviBnxRbcw++U0ZE196+patMCaxXgBVuXl+L3rpKoVVirMAyTOWu1beoaIQPD6fzBctGzR8SeBbTj/A2Pjge+oOZtzhu70GazYa3Cl0vrf77Y+kYHrFWARwwjutX6aLZYjHeLnHvD6STrdmGtAv7l4k2PDvcgoKurq+kbPm0hDjz25dE7/SbZ9B6Pb/cITdO1l0/lzRqKtQpwh4WH6IWj6s8ei3s4nbFcV/D6GHrfD1irgAcIbuaaTCb3j/fgH4Hhyi0R/B7kd5Jvf8/tNFJXWIy7UI1RA5mPZjBCAe5C4JHEQsVnc+Pf7om7julu3t32w/m/wRNLfxMxyHD1tvvHexDQ1j9hhjcZ/Eu39a2HV1z34O/VO7Veb6vcucSokuEuBP7LFqUSHFwZ3e4l3IUKzl8qaJ+muFWAuxB4KPtlD55yePKI4xI8gCbGoSnVdBhR9QP2jWzUzzeLP7reWjMadyFwv6q6NeKOro998jHchYqO/mDrPE5QWoG7EHgU4+Vb7h/sQUDbr9zxvBnAGlmlsazPlNyvDuMuJK+bFHVyI/NEPdyFwD32lo1rH9kgTqqBu1Dpxh36Qe9SMJyOKMdVD4LU3YC22+3oepY37QD20FYbSl+UtXwz7uF3iqiImvtXG9o/g7UKQAgxr7eK27NSrA7DW4Vh7s5YYZyxFlY6I85y/a77m3y7uyeh9k62zIR3vBdwEz1/S06WpsbyKXw+xvU0aJm0zpYFuVOW0VsO4asS4syjetZ+Nx37+kcmU8GIOYIDP2GtAtwUbnGYi0ojUpLu/Sc7exJabmT51hVgE2/r8dt9J1qrsA+/S1o6WfDBcKxVQpOFpgSLRteZNQp3Ohu0utIuYyCdOcV83d31dtz9x2HNhO3WuUX63fmcTuk6TRHuQrHp/dDm9xgRDL9jj1gY9vm82CE9cNcx3snNa/uO43dYIphbzNfcfQztbkALbsKWkZwjvHynqk1a+VXP5iZ5IaHz/8S7l5rDFbgLhQJ7tFp4aFVkmxdwFyo9+4emfZrkbiHuQsBT/Ft5bh7p9ktCt68I/EpTWpiaXvn9b7jrxDzzZNyR9YZaMbgLBbfqejXjjmTEPNEYd6GCw98Zuk4QlFXiLgS8YHH7gYS7AW28A5O8OUpeZdL2nZK97QDuQrI6iTWPb0TNGuAuFKyMzz6WfGSDCP9wuuL12w1vzaLMMJyOoww3s9w80q2ALigoUJvw7pgHfEFb7bxRS+8s2YR7+J0sMjxy/ypT6nNYqwQlR7dXknavFKmUWKswDHNr2jLzuxkiGE7HYSqjTaPRuHOkWwGtzsK+EATwnWDRZ9mj5lmteHdUkEgktTfPMw/tgrVKkNGP652w8X2hUIi1itFovDN4huij/VirAFbI7rAX0EwOvGcIDPT2E7f6jLdW6vFWoek6CyaI5owwU7B4lgtWmudYOrbhjHSKorAWqi4rL+0yRnToFNYqgDV33VoLxa2ALsuCB9ABQ/7DH9md0rUF2H+mRqf1kX4y2wHD7x7NLBWqvpyf+GY33IUMt3Py2ryDzsN+oQGj5K5b7wnd2pMwQqPzYAVTQJroyl19mzT01aLwxlFNRMQAACAASURBVHjX04jv+ErJXnXlwJlCGC3wH0xMeNi2BeFNGuIuVHzmYtUbM6XwVxBQxHc097KXhT0JbTluPS4B3EEVlhWlpuu+O4O7UNTTT8QfXW9MjsVdKLAY6ieEH8uIwp/O+Qe/MXWbAD8gA497mzW7FdCaHBgEHXjkenN53ymaL7APv5PUTqh5bCPVHHsYBQrz802Sj2xQJMTjLlS4bqtx8PuUGe9rYYBDcY5bU/9cB7TNYokqxfvSCWDCtzG2sUtvLfoQ9/A7aYQ6cv8qSyfss+O4j+rxWuLO5cIwvLMu7XZ75pQl1lkbRA687x4BJvLSSsbi+ierG3fQBaUI88cbYCVa8oUmfa7FgnfaglgsTv54rnXY61ircJxxQr8a69/DPZzOXm249eY0yccHsVYBWIkRz1FU5vIw1wFt1MAg6IBn33Eyt9d4C+bhdzwer/a8ceJ56Wa8C7RxkY3P4y0fX2/acNzD6fSlZQVdx0iP/oq1CvADQ4HraHX9SeJpStloBhAm/PnP7NQ0fS72971Rw3orPp3jEOO9i+QUi1Sk2rqwxhtdcReqvpVd0noYugCbzwUDW5HraHUd0Poit942Au4TX8vWtk8ru4z94x3T/mXp3uXWSLy7hHCEIzZcdWSt+lXsu8+Unz6vaZ/Gz4XfaIOEo0jr8hjXAa0rhH8QwYMq1Oo6jCz/BvsvyJEtmsQfXV+ZEoe7EFmmhrXCj66PeKw+7kK5+09W9pgkKofX9cFD58a9r+uAVpTAEMugIjSYdf2n5n+2D3chcXLN2sc22p5uhLsQKZYXmtQ6vF6egP2HUMGaL9CQOTw3XvqDABJV5vrHres9CTUaTTR7PQEu4NsYZvzyzPzCulOHYX2pJVGr4veu0oyYS+//AV8VIuherRNWTsE+YMNuh20hgxWvoloqlfq6J6FK5+x8ELgky7bmp83GPfxOJBIlfvSBMR379k7+ZJ40IG7dTD8Mp8t8Ywqkc7CylbDxDJrWVrHRDOAix65vcnqOt1Tg/Svm8Xj1PhhNLxxl4QX8rAobn7avnlhnyju4h9NVFZfmdRktP459rxxAir2swuUxrgOaX4F362hAlujUn3c7DK/KdWvxQ1/Ev91T+fm8gB5+p5eLwrctTOrXGXuhm1klbYbxLmbiLgRIcuPGyEVA22w2hx4ecQQ56Y1cbbsRJX9i3/s5qu0LwoMrbVEq3IVwcMRGxB7JCHulJe5C2p9/L2ifJsiD4a1BzlFlcLm9houA5lXC7XNI4BVpKzqO0n59Gneh2Ccfiz+6vqou9n352GVunCw/sV7dqC7uQll7jlf1mizRwecuJLgMWBcB7aiAcZehQmSw6PpPz9myB3uhpBq1j26wt8S+szVb9C8/UevQuvB47Euq5q36jH5nHgynCx2OKt8CmoHnG6FEYGeoiSuvzVuHe/U7sSosbs9K5vVWWKuwwt6nTZ3tywQKOdYqNpvt9viFjjmbsFYBXGN3dQfs6iUhBHToka/4Km/YB/4YfvfhB5bRvbFW8ZF1yhu11swQCPBu62XTG24MnCz87AjWKoCDHNVG5we4esRhNLPXDAgce77N6j7WrMM7iZSiqJT30gWLx1hpzg2/swtoZs2k2pPexj2crqKoOK/zSOXJc1irAG5yGdAu9iQU2uys9gMChuSXy3dT0+K3LVYm4n2hFzu4e1lCrOGtWciE957dfdVKSfzmOcpWT+MuVHnjTmmvicJ8WDAyRJl0lWpf9iRkDHAHHbpkN3K17UYUXbyCu1BE6+dFh1cz0WrchdwSFxl7eJ0f0rnqx3OaDiMgnUOZr484GBMEdEiji8stHceUnvgZd6Hopo3Cj2VU10/AXcg562O1FSfWqxrWwV0ob8eRsj6TpRXwjiekMWYXAesioI1mE3vNgMBkslQMnFG4eTfuOorEGslH1pueexx3oUcxvNIs4eA6VVwM1ioOhyNnxRbHiIW0xYa1EOA+k6s7YBcBbTFz5bEgIEhod1gnr7r1wRqGYbAWEoUpa+1agbq/irXKQzn6tU3ZtlSgkGGtYrPZcscsoOZtxloFBAqXY6VcBLQV81grEEBEa3bmDnvf7OqXMh8JhcKaG2YZxvfFWuUBzPS3ElZN5/P5WKvYqqrv9JtEbT2GtQoIIDabi9+iXAW0HX4LA//g7f1e022sSed6FS5fUBRVf3oaWjbOxse++6xdwEfrptQa/xbu4XS6wuKcziMl3/6OtQoILFarb3fQNisENPgX+syVO+2Hm7PycRdKGPS66ssFZqkIXwmDUhLx1eKE3qn4StxTcf12Vevhgku3cRcCgcVud/HM0NVEFfZaAUFDcTO/oH1a4QXsw+/Urz2rOryWiQnHcXEqLjL2SIbipadwXPx+lT+cLWifhjQwnA48yOVLHVcBjfmlEAhQ/BKdtdOY4uM/4S4U+Xj9iGMZxoa12L2s7fEUxdcbwxqksHvZ/8rZfkjbZ7K8CkZDgYdgXC1642JPQqurZ9ggdJksVW/MtM8bGfd2T6x15AnxSYczct+YJvz5T1YuWPG/5g02zeXL8Q7YcDgc2cs/oRdsobGWAYFMwHcxl9vVetCY35yAgCa0O2xT12S+twr38DuhUpGwYzmv5/98v5R5YPsGXyzBnc42my171Dx6wRasVUCg4/FcJbDzb1MIAhq4IMnYXbD4Y9xVhEJhfMa7pkn9fbrKzCEpy6fiHk6HEDJeuWU4FGwbmQPW+RrQtAB+PwMuVL3UNCa9nx8KURRVd8oweuUEm+f/LBkh37pxWsLYQbiH092jaNog5vA6TK83QdCgad8CWkBjv9cAAY3q8Vqd7ctwT8C7X/yALuovF1pkHgy/M4RJ5TsW1+7eHl9X/xXRuF7s4Qx9oG3uBfxJIHCxh7KrgBYG8B7MADfTyB411r8n9Ps/EtWrLdVHMxyxEe4cbK0ZFX90fcQL2IfT/ZcoKT7pyAZe84b+Lw0CgsunbS4C2v+fPRAQzBSSzBtZ9/3R/nli8F/hjepGHMswN052fhjTtG7E8Q2Kei4Ow0eiDgvft9KU+hypBgCXiUS+3UGLxRjncYEAxYgEks2zIof1ItuGrGZcrUPr9C8/8agDqtq0qLl/TVhMlD+7+i+JRFJ78zzroA5k2wAcJBaJnR/g6hG1CAIa/IshTKrYsbhGp9dIN4IQQgKFvM72ZfY+bf77Ldug1PqfL6blzob5+w1N07WXTXXMGEy6EcAtPFd3wK6G2UkgoMF94iJjD68Lf7456T7+IRAIaq2ZYZs66P4v8t4bmrxsCk1zawxS4rg37asnejEEBQQrnkzi/AAX81jE4SoX24KDkGFqlBSxfXFYfCzpRh5EUVTyxCE5NaOZccspikIZUxO6PuSemguS+nUuj4kqe+tdkQEW8gXIQlMqp3O5XY2icxXwIEQYn30s6YtFwjAF6UYeKbFPp8rYGLuAr36+GelenFG/9qzl4GpDn6n8Eh3pXgBhlNRFwLp6Bg0BDRCyd3251q4VXE7ne5StnuZ4Ot8T07RR3JEMYzLnfhcB/ibz8SWhHycgAG6yDO2a+OEHInhdzCpxcs0axzagJ+uTbgSQxFPKXRzg4tthLs4HwU3wwfCUBeNdrhgAvCCLCI/ft6qqTQvSjQBiHHLfHnEgCOhQZRfybR9Oj/XLIhshi5ZJ6322yNGvLelGACGuAtbVYkl8PqXgxEhS4E96hThi26Lkbu1INxL8+Hx+wqrplskDSTcC/I2SS32d6o0QQpx/NQTY5YgJjzm0VvEy3l+9HQ6HSVeJtQQrqnIKNN+exlqCoqiUyUPRsrFWGlb3DSGMG88nXAc0LyKMjWZAYNDXq6k+mhHeuB7WKhaLJT9tdvZrQwy3c7AW8lHppeva9iMMfacVfbIHd62EQd0Un89ziGH1m1BBhytdHuM6oAURKjaaAQGA91Sj5MPrFYnxWKtYq/S3+kxw7PpGml1U0D6t+MwFrOW8pv36tC51JK9IK7Q7LJNW3ly40eFqBzkfRbV5gd6/3BLh+nMLggAd6TpaeVKnDAYDo4ZHHCHBlPpc+N4VYjXeX5gqikpyO49S/PjHvf8UaatM3SbmHfwGa1Ev5H66Rzdg+v3z/cRLv8wZPc+GeZfOGs2bxB3JsCZEY60CuEAQE3kvY51wfQddEgEDOYKf7c3U2pvnSSR45yXpb2aVthkuuHT7/i9SZqtp8PtFGduwlnafw+G4Nm8dmrBSYHtwo0XethM3Bk62652tjuA7aUpi1PEN9qZ1sFYBxOWFu/64uQ5oFenVGgF2M4ckL8W+tFDxmYuFqenC/JL/fkvkoCzvrc+cssRut2PtwSWLxZI3/AP5iq8edYDy5Ln818foS7VY21BER9bct8bQ6kmsVQBZcXGup5K6DmhZtFv7VoBAZOPTzJpJCWMHuT7UN0XHfjR1myjSVjk5RvLxwdtvTXe+ehdW5orKrO5j0e5vnR9GXbhR0G648U4u1mb4ClntbUvpnq2xVgEE8WIjXR/j8gh7nOurgEBklgrVWxfU6tsJd6HCzbv1b7xLmV2v3yY58ktpF+z3pw9lziq42yFN8stldw6WZBUWpqYXXnDrYK8JBIK4jJn6sb2xVgGk8FkJaFEcPOIIQvYolfLgatWrz2Ct4nA4MhdssE5eJWTcHf9AXbiR1+ad6lvZWBt7QPEfVws7pMlueHBTzC/RWTuN1X7zC76uEEIURTWcmU4vHGWByfZBR16DjUccVEyEA4bPBxdd7djYIxnRTRthrWKz2QpHzpMs2+rpibKcYk37tKJf/TT8ruzkKXPqaF5xucdnmiwV/adlbd2Poal/iX+7p3TLbIdIgLsQ8BsTYth5xMETCmAgR1BpVr/20Y3i5JpYi9j0huv9J9m+OuHd6aJyvan7xNz9J9nt6r8KN++uGDAdmbxcPp9vY+jRy7KXf4J7iHRch1ai3UtNavgkBonqqDCe0PVPXLd+cYpNqOFzP4AT9G2ejt+7ShahxlultCy/6+iwb3735SI8sxUNmaNZ+yVbXT3A4XDcnr3OOnmVwO5rtvLmf3J3wiLcQ1Binnky9vA6Kh7eCQWD2KREdw5z78lWzRifegHc4OjXru5nC2kZ3tWvjHdy89sO513MZOVqtvc3Zk1czHr2mc3m3GHvC1c/cjidpwSfHbn91nSj0cjWBR9KUS9Zfny95bHaWKsAP6AS3NquwcWehFKpFCGkqR0HCwQEOsvkgbUnvU1ReN8naM5fMvabLi2tYPGa9JZDNwtL6m78gK0fLSZdRWH/qfSZK6xc7W+SI79ou44N375Iosa4OoIqLkZ2YG3WwCniU5fwVQG4lceqFAYD+v+MfRS37qCjkmux0xQgwUrzqGXjUiYPxZ3OZV+ftnUeJ2A1ne+RHTuT33V0VUmp75cyZ+Xf7ZDGejrfw/x+7W6HNHNWPo6L/02glNfaucLR7RWsVQBWkUkJ7hzmVkDTyfAMOmCJhYrP59Yc9DruOvmf76/04W2bS9SFzJLWw/Q3s3y5SNHFK5oOafLMPJaaegjFzfzC1PSyyzfwlUAICYXCmhtmGUZ0w1oF4ONIinPnMLcC2gS7WwYmS4SS3r88qs0LWKs4HI6sZZuZccv4/1m8gl2CvBJNh7TyU+e9O73kxM+WjmPoYux7afOKtEUdR1Z+/xveKjxe/dljRXNGmCm8A0gADlVJbr3YcyugI+LjdBIXK/8DrrElRMcdyYhv3gRrFbvdfmf8QnrBFqxV/iYur67sOTF7n8ej9wo/3lU5YAa+G/wHKPRmbd+pd3YdwV0oOq2PcNN7jBsDtgB3lIvp2Fi37nrdnZ8kTXFrUAjgCHvTupHHN+D+WzMajbcGTRN+fhRrlQfwLDbe23NzVmxxc+ix3W7PnLXKOmW1+7MZWUFbbYLhCwvWfoG7UGKX1hHbF1Ur8a5ECFjEq+PWA2jkfkAL6sF7woBhaPVkzf2rFdF4B8watLqyrmOkx37FWuVRqHmbr/QdX5Xj4nVccebtW11GStbt9k9X/2V//8NbU5cxDN6HP/KXnoo9vM4RC+uaBQZZHXfj1N2AttWDO+jAQPdqXXvbUr5chrWKOSv/bofhjt+vY63iXNjXv+e37H995OxbP/1qtVrv/5bZbC789pfMd97VvzhY+iuWARvuE23an/X2u2azGWsVVcM64ccyDA3gcxoArCnuDrtw98mysEESvIngvupxfepPT8M9nK7k0vXq3lOUXixewTaZlUHbv0bbv74q4vHrJloilA6HQ15Sab+VK7cy3PmdX3DgJ03RuLiti0Q4t2CW14xLOpSh6T8F0yBCwBZBgyQ3j3T3DlrcMMXLXoBfWHiIv3BUgxkjcKdzxXdnKlNH0RxI5/uFmxnl5azIH/6M+vGS5Fq23Ir3kYIX6DOXs1PTqvMKsVYRqZRxe1ZaO7+ItQrwkaCuu484+M7nsfw9z1AcE1km4kvNeDdkA95xiATSj96N69AKd6Hcrw7bxi4VWgnvexKgJNdztO3SrDuXqBpi3M5KJBIlbZpze9oy8ccH8VUBXtOKqMca1vt7AyPnc7ndvYPm8XhMfXi8xUUmtUy0e6kf0jl/9ecofREf0tkXhWVFHUdqf/ZpGSmXeDxe3UWT6FnvYK0CvCNuXNf97eU8WAacagRLtHAOFR8Vezgj5hm8m9cxDJM5eQkz+yOsVUKEtMJQ1Wty7oGvcReKHzXAsmGqXYB3q0ngKdqTIPUgoMWN4DE0t1gaJ8tPZCjqJWOtYjKZ7g6ZKdkMvy+zhmexmofMLtnA2lp6j5LSo4N62yKLTIS7EHCfrEk99w/2IKDpx2AfeA4xP98k8eA6VSzelWDNukpNt7HCgz9jrRKCRA5kmrkuc9Yq3EOkw1o9rTq8lokJx1oFuE/QpL77B3sQ0LLH6pphYzRucHR7JXHncoES7/4a+tyCrI4j+L9dxVollEnW7c5Pm22x4J2AHvFY/djD66rqwpJn5Jl5lKyxB3e6njziEIutdd2doQjwMYzoVnPDLKEQ7xrd5dduadunS6/nYK0C0O5vc3qNt1bpsRYRJdVIPrKeat4QaxXgElM/USLxYIC+Z7fEjifqetgPYJOZcojmjKg/eyyPh/d3Gf2P54pS06nCMqxVwD2in//M7TSyorAYaxWJWhWxb6Wxw7NYqwDnqGYePN9Anga06IkGHh0PWMQI+cJN70Wn9cFdKGffibI+k2WVeHdvAvcTXL5T2na4j6tduySRSFI+mW99owPWKsAJcbNGHh0PAR0YqpWSiO2LE7u0xl2oKGMb9fZcngVmJPmbML9U02FE8ZkLWKvQNJ28bAoz/S2sVcCjSJ96zKPj3dqT8G+iZo9flwmU1dZHHQ9wcMRGxO5cIsc5/QzdG+w8a5Vs/V6sVYAT4nK9qdvEwk3vxbZ/GV8ViqJqjX8rKzbcMX4l3wbTjvynQipQ14p/IHJZ2JPwbzRNS5o19qY14C1Dg8TwYxlYJwcjhCwWS97wDyCdiaPM1upB7xZ+vAt3oaR+XcK+nI/EsB20/4iaNfL07ZHH75oEzzzu6SnAa/aWjZMOZchrurV9mdcslfrsHuOoPd9hrQLcJGSQdcrqG/PXu7kjgdfCX3tWeGiVLTIMaxXwN/5THo+i8TigmZaePUMBXrN2fjF29wqRSom1ik5TlNMpXXz6EtYqwFPS5dsK0+fZbHhfBsQ80Tj2SIbBvf3xgI9sLT1+/OBxQEe2aGLhw3wV7ExDOiVtmiMWi7FWqcy8W9UmTXTlLtYqwDu2HSfu9J1o0zt7S+Q7Se2Emsc2Op70bPgX8FQljdRP4g9omUzGPOHBXHLgBd6soXUXTcI92Fl3+kJRajrSlGKtAnwh+e58ftdRVSV4B6TLIsNr7F1V2foprFVCnL1JivP3gQ/lTQTIXmjmxVnAHXYBbVk/pcaogbgLaQ5/V9lzorgc7wQ24DvexZv57YYZbudirULLpfU/X8z0bYu1SigTPfuEF2d5E9DU8029OAu4ZJGK1NsWpfRMxV2oYNPO6rdmUWYYLhkYZNnFhakjNOfxvifg8/mJq6ebJw3AWiVkOZ71ZniFNwGtfLpJtRAeQ7OMiQkPO7wmrNXTWKs4HI6rc9fap64RcW5PKOCMoLTC1nlc2clTWKtQFFVnyjuOpWOtNN6N00KNXkhFt/TXHbRMJqNbwGhoNlXWiY89vC7ycbwTNa1Wa8GIOYqVO7BWAbiYLBUDZuR/vg93ncQ3uyk+m+uAIdLs4TVv7N0Lf3f3JHzQc03RKRiYxQ6qecPa2xaJwlVYq9iqqm+/NU32/UWsVQBWAjvDjFt+t6gsacJgrLsDR7V9sWTPssoB04XaKnxVQof41RaPSlp29iR8gOAleE/IDkP7ZyL2rZRgTufK4tLcLqMgnYMDf+GneWMX2u14Z2lHPd009kiGtWY01iohQvJqS+9O9DKgIx9vYApXeHcu+JvljfZ1tizwaH1YL1Tfyi5tM5z/5y2sVYBffXn05qCpzm++fCerUyvyxHpbE9hKySeVkYqIx7wcZu5lQPN4PPvLcBPtE/v0N2svm+r+/r7eKT37Z2FquiAP71rDwP9kx85ou441aMuxVlFGRyXsX6N/2ZsXXOAvrZp7/TH3fjCG5DW84w2CmJXPo1dOSBqP9zEiQqjkxM+G18cLyyqxVgGkOM5fv9t+uCkrH2sVvkJWZ/syXs//Ya0SxCLavOD1ud4HtOCl5hYejMXxnFio+mJ+/IAuuOvkfrqnauAMyoR3vztAlvK2prDDiJI/r2GtIhAI4jPerRrTC2uVoGThIdErLbw+3fuAVqlUds/X/ghxtiiV4ODK8P89h7WKw+G4tehDNGGlwI53OTTABXRxeWXH0RXfncFahaKoRu+OFHZ9BWuV4GNr2VitVnt9uk/zTQTtn/fl9BCk6vBS7JN4lwO02Ww5Y+aLlnyBtQrgFKHBXN5vau5Xh7AXCoOhAZ6hfHsU7FNAq9q/6MvpgHX2akPmwCm8rcdJNwL8jbbaUfrivNWfkW4E/IuijU93sT4FtDo5sbxBTV+uAFhUXabN7zpGcfIs6UYAMY7Zm25MXswwMJGfE7QNEsKSfEpIz/YkfIDBYJC1ewFd3+5LB4AVprt5+T3HS7IKSTcCCJNuPnS3RFdj/Xu4FxMHLkk7viSVSn3JWF/XPBK3934ECWBL0cUrmg4jIJ3BPcKDP2u6jTXpYHglYfIuvr5T9TWg1Q3rGJLx7pgHnCv/5peqzmP4JTrSjQAO4f92NSs1TZ9bQLqR0FVcJzauoa97m7Cwaqi040u+XwR4J2vrAV3/6SIDDHYGD5LdyNW2Ty+/epN0IyEqsstrvl+EhYC2dYKxHGTkrNhCj17Kt+FdNAcELqqwrKjjyKofz5FuJBSJ2BgzzkJAxzSoU1Iv3vfrAPfZ7fY7ExZS8zaTbgRwnazSqO0zOXvvCdKNhJbyBjVjfX6+gVgJaISQssurrFwHuMNoNN4ZPEPw6RHSjYDAwLPYeEPnFmVsI91ICFH1YGd3R3YCWvH6ayYEQy/9wViu03YdKz58mnQjIMBY3lt//d0VMETaD0yIUXdvzcql+KxcRVEzrqxFQ/HZG6xcDThhunonrF8q6od9Y1kQfNQIWbILxMkwuQwv5tkmigR2nvqyE9AIIXGP1ggCGj/1883Q87ASNwDcJe/Vhq1LebsnIULo33NgInq0LZq1QWKysdUZAAAEHKOIr2z9zP3J6UvGsvMMGiEUFhaGUmG8HQAgpNnbPatUKtm6GmsBjRBSDejI4tUAACDgKPq0Z/FqbAZ0xHPN9AlRLF4QAAACiD4xSvUsm/s3shnQNE1LBsJNNAAgRAl6t+Xx2AxVNq+FEFL1S7XwWb4mAABwn4XPk/diZ37K39gO6Nhopt2z7F4TAAC4z/q/p5UxLD/jZf9uV/lWV9avCQAAHCfF8ICX/YCOebllRQqsEA0ACCG6lLjIF59i/bJYnherBnfDcVkAAOAmGZ7xEb7uSfjQrwtff6Vq/sfCapNPrXGM3Q7LLgPAguD7KFnk4uhBXR+VliT3JHwouVxu7hlsC5CKtHrSLQAQDETaKtItsMzRr61CocBxZVxD4lSDXzcjB6aLE8HczrXZYKURAHxis9mYW7mku2CTGTkihvbEdHFsAZ2UYGv3DKaLE6Ey2gp+/5N0FwAENs35S2HGoLrRsbR5Wp2ciOniGCeVhI3og+/iRBh2nSTdAgCBzbAz2D5EsmE98F0cY0DHPdfc2IyFXbm4g95+orKohHQXAASqyqIS3vag2h2xulm9qBZN8V0f77Rs2ei+WK/vZ2KjtWDGKtJdABCo7s5cKTZaSHfBJuGw7livjzegY9u3CrJJK7J9P974ZCfpLgAIPJlbdoXv/Yl0F2zSpcRFt8W7CD7egKZpWj26P9YS/sefsvbmjkOkuwAgkNzeeZg/ZQ3pLlimSOvF7tp1/4V95bnIHm1N8RG4q/iTkHGgEQtvvLfKaDSS7gUArjOZTDdnrWbSFgjsQTXu1lQjMrwbO1t3O0E5HM7+1FiZZ1jy2T7ezA1eNMdx1bWiheP6x3Zr6/zPAYDQZDQaC/ecsCz/QppdRLoX9vEXj44b/Nf4DRzzse/xR0CbTKai5wfJSyqcHBy4LDIR9XxTW5M6krjoMiFFuh0ACIuwOIyaYuHlu/afzgurzaTbwcIQq076fYdIJPrrP7EFNN+L5jwlFotF6b3Q+x/5oZb/CavN6MRvghO/IYSC6lEOAN6SIIQQogl3gZFsdL+/0xkrP+1+ouqXWh2j8k8tAADAxxirjhjY2T+1/BTQYrFYnN7bP7UAAAAfxfiBEonEP7X8t3+gql+qqUak38oBAADrrIkx4f07+a2c/wJaKBTyx/bzWzkAAGAdNXGgf54+3+PXHbgjurcJsomFAIDQoa9bI7F3qj8r+jWg+Xy+dPKb/qwIAABsCZv5Dk37dXCKXwMaIRTb/uWyhpJorAAAETRJREFUJ1P8XBQAAHxU0bxefOorfi5KVVdXO/m2L0OsH3Vu0a8XLB3HuNMcAABwgwPtWRrx1OMP/R6OnLzH33fQCKGYZ540dnjW/3UBAMA71e2efVQ6Y0UgoBFCkbPSrHwypQEAwCM2Pk85fQiR0mRSMjwlqfotv74MBQAA75iHdlUlJRApTew2tubogTq1jFR1AABwR2W4PHnS26SqEwtoUZhSOnkQqeoAAOCOsHffESnlpKqTfBAc07djxWNJBBsAAAAn9E1qx/Xz38Tu/yIZ0DweTzU73YQYgj0AAMBDmRATvXiCn2emPIDwUIrwpx4393yVbA8AAPBfTP92RIbW3Y/8WLeY6cMMYX5auw8AANxhVMtqvjuCdBeIj28OjJvnSqVS8/tpjnHLnRwMAAD+xJ/6FiUV/x1ipHKS/B00QiiuX6fKFg1IdwEAAAghVNG8XnTvDqS7QIgjAU3TdI3lk20wtxAAQJqNT0cuHs/jcSKOONEEQkjVsA5vTF/SXQAAQp0hvbuybhLpLv7ClYBGCMWOf9Naj8x8SgAAQAhZ6iXUGDWAdBf/4FBAi0QixcrJZuQg3QgAIBSZkUO0eKxQKCTdyD84FNAIoainm/KGdyfdBQAgFDmGdg1v1ph0F//CrYBGCMXNGGZKhn0LAQB+ZUyOi5j0FukuHsS5gJZIJGHrpps51xcAIGiZeZRk2XixWEy6kQdxMQijn25KD4MHHQAAPxGP7EV8VvdDEdiT0J1zaZrO+t/b0mvZTo4BAADf6Rsmxh1cq1KpnBzjhznVD8XFO2iEkEgkitrwLiMUkG4EABDM7EJ+2MrJnBq5cT+OBjRCKLxxPWYm557ZAwCCiWXyQFXDOqS7eCTuBjRCKHFYX9vLT5LuAgAQnMwvNI1/uyfpLpzhdEDTNK1eN8McoSTdCAAg2JjDFfIVEzmy5sajcLo5hJAqNjps7TREUaQbAQAEEYoSL5+gjIki3YcLXA9ohFBU6+eZNBh1BwBgjfmdruGvPkO6C9cCIKARQrEzhhmb1SPdBQAgGBieqBM9ZQjpLtwSGAEtEoniPp5tVMtINwIACGwGlUydMYPP55NuxC2BEdAIIUVCvHrddHgYDQDwHkXJVk6S1wyY1X4oh8PZ8p6k5s886tzSJZupNTucnAgAAI9in9A/adqwh36La1l3T8DcQd8TPuFN0wtNSXcBAAg8tleaJ0x+m3QXngmwgObxeOHrplGJAfMbCgCAC8wJ0TEbZ9E0TboRzwRYQCOEJGqVaMv7DjFH584DALiGEQnFH86UhjtbDombAi+gEUJRTRryV08m3QUAIDAIlo0LbxyQ43QDMqARQvHd2ljG9CbdBQCA62wjeqg6v0K6Cy8FakAjhJKmD0dtA2AuEACAFKZNy6jJg0l34b0ADmiapuM2vm9vmES6EQAAF9kaJqlXTeH4ckjOBXDrCCG+XBq/dbEtJpx0IwAAbrFGq8M3f8CXORuDzH2BHdAIIWFCbPwXC2BQBwDgb4xIqPx4lqBGDOlGfMXRPQk9Pdd44rRh6BzkdFYkACAUmJFD9umcuNRWD3ydO3nl/rkBfwd9j6TNc7wPHj6DEwAQUpTzR/03nQNUkAQ0Qkj9ZlfRO7BsNAAhTTyqT/Q7vUh3wZrgCWiEkHT6EFvXl0l3AQAgw9HjtfCZQfWbdFAFNI/Hi146Ufjq06QbAQD4G/1y85hVUwNutQ3ngiqgEUKUUBC5ZQ5q3oB0IwAA/7E/WU+x8V2RSES6EZYFW0AjhGipJH77UkGDJNKNAAD8QV+3hmLLHFoqJt0I+4IwoBFCtFoZuXsFLymedCMAALwstWJUWxdK1GGkG8EiOAMaIcSPiYjcvdwRH026EQAALkxcZMTWhWExUaQbwSVoAxohJKoVH7F3uR0mggMQjKzRavn2hcKEYN6+I8D2JPTi3Mobd6p7TxFqq5ycAgAILJYIZcS+VaqGKfd/kSOZw+K5wXwHfY+yfm3JtgXmcAXpRgAA7DCr5eF7VzyQzkEp+AMaIaRqWEcKGQ1AUDCr5eo9K9SN6pJuxB9CIqARQqqGdWTbFlogowEIZJYIZcT+VRGP1yfdiJ+ESkAjhMIapsi+WgTvDAEIULZodeS+VSFy73xPCAU0QkhZv3bUgdUw9g6AgMPERSp3LgkLgefO9wutgEYIyVISYw6uhjksAASSWnFhu5ZIkmuS7sPfQi6gEUKiWvExh9cJGiSTbgQA4Bqvfi3V7mXBPd75UUIxoBFC/JiI8AOrUYtGpBsBADhjf7KeeMdiOjpEXx2FaEAjhIThYfG7V4hgbVIAuIp+uXnEtsXBus6GO4JkT0Kvz7XZbGUTl/L3fO/kFACA/zl6vJawejolFNz/RY7kht/ODd076Hv4fH7U8sn84bBXFgAcIh/Vt8a6mQ+kcwgK9YBGCPF4vLDpQ+nZwxFFke4FgJBHUeKFo9Wz0oJsbxTvQED/RfVmV/rDGY5gXPMbgEDBiITKT+dEvd2DdCNcAQH9D1XbF2IOroGphgAQYY1Wy3YtDuvwEulGOAQC+l9ETevHn/iQaVybdCMAhJiGyREHVkubwm6i/wIB/SBhjegahzN47Z8n3QgAocLUukXYnmWC+KDdGMVrENAPwZdLY7fM5Y3vT7oRAIKfbUSPuI8+4MucjTYLWRDQD0fTdI3pwwSb3nWIhaR7ASA4MSKhfe2kmKlv83gQRA8Hfy7OxHZtLT26zpYYQ7oRAIKNOSFasn95dOfXSDfCacG/J6Hv5xrLK3SjFgh/vOjkRACA+2yvNI/dOEsSrvrvtzj12Sd+LtxBuyZRh8V8Nt88uhfMZAHAVxTiTxyYuH3pQ9MZPAAC2i08Hi9+4mDJ1vkmtZx0LwAEKqNKRn3yftzUoTBL0E0Q0B6IbP183PebzU/BUE0APGZoVk99LCP81WdINxJIIKA9I68RW+vgOjSqNzzuAMBdFGUZ9nrMjqWyeHjf7hkIaI8JBIKEWemSrfMtEUrSvQDAdeZwhfXTWXEzhgmFMGLVYxDQXops/XzUT1vsrzxFuhEAuMv80hPy4xmxreCxhpcgoL2njI5M2L6EmTucCflVawF4gF3IN743JPaz+coYmMDtPQhon9A0XWt4P+U3G42Nkkj3AgBXaBskCA+urPl2T5gi6CP442OBumGdWic/sqf3tMAfJwhtZh5Fje5d69A6VcM6pHsJBqG+JyG755aeu6RLny+6ne/kMACClTE5TrJsfMRTjwfo55eD58ItH5sin3q8xvebHSN7mpGzCfQABBkzD5mGdok8vj7iqcdJ9xJUIKBZJpFIEt8fFX5iQ3X9mqR7AcAfrPUSxHuW1Xg3TSyGHeNYBgGNRXizxsnffmKa2N8OAzxA8LLxeVVjeoUfWRferDHpXoITBDQuIpGo7tRhsh8+qn6mEeleAGBf5VP1pcczkiYMhhko+EBA4xVVt3aDQxusK8cbVTLSvQDADpNabl00stauFYq6SaR7CXIQ0P5Qe0DXiB8+ru7zPxO8PASBzIQcxv5t4n/5IrZvRxjj7AfwR+wnErUqcfFE+YGVVU1gy3AQkKqfqBN+LKPeqpmyyHDSvYQKCGi/CnuiYeKBtfYloysjYF1pEDAqw+XUivF1j38Eo+j8DALa33g8XnTvDjV+3KIf/rpNyCfdDgDO2IV8Q3r3uud21BzYFVbZ9z/Yk5DkuRXZeXnvr1MePOXkRABI0bZvGT3t7bCkhP9+i1OfoyA+F+7gSAqrVTPskwVl5y4VzFil+j2TdDsA/KWyRX3ltLfrwgMN0uARB3kRTz2esne14+N39fUfcqsCgD9V16/J/3R246PwuJkT4A6aKyJbPx/+2rN3dx+Vrd4hyC4i3Q4IOdbEGGriwLq9U+FZM3dAQHMIj8dL6Zlqe71txfYjxjXbJRot6Y5ASDDGqpUTB0X3TRWJRKR7Af8CAc05fD4/YkBnS692FduPmNbukBZCTANcjLFq+dgBCf07SiQS0r2Ah4CA5iihUBj1RldLnw5VO45bN+wS5MBDD8AmU41IxbgBcNfMcRDQnCYUCiMGdBK81e3OrqPM2u3yG3mkOwIBT5ccI0zvFdetrVIJ29JzHQR0ABAIBPX7drb3Si0+9pN27Vbl2eukOwIBqbx5XcXwnsmtX4BlNAIFBHTAoGk6LrVVXGqrkt/+0GVsp46cFjGw9BJwzcxDlv+1kA/rUadFU9K9AM/AnoSBem5lTn7lJ/v4O74WVBmdnAtCmUUudvRrGzWsd1ith+zvw6l/z3DuQ8EddKBSJtZQzkrXTxhkP/Rjxcd7ZPB4GtxHlxKnGNQ5emBnhUJBuhfgPQjowCaXy6WDe8QN7pH/81nzlgPo0E8CG0O6KUCMlc+ztm1JD+iQ8nwL5OruDHAfBHSQqPFCC/RCC32pVrf1sOHzQ5K7GtIdAb/SJ0YJ+7aT92qniIog3QtgDQR0UJFHhstHD0SjBxac/t345WHHwR9FBgvppgBGRhHf0eF5utf/aj3fgnQvgH0Q0MEp/rnm6LnmVQurtHtOmnad5P1yWYwo0k0B1pgQ43i2iaJPO1XrZ+Ry2PwhaEFABzOFQkH3bId6tivXFJn3fVu9/7uwqzmQ0wGtvFFieI+2cd1by2vEIlcjBECgg4AOCeq4GJTWF6X1LbuVVbX/W/PRnyMzC0g3BTxQXCdW2fU15euvNalfh3QvwH8goENLRJ2kiAmD0YTBJZl3zEd/tp38VfHnHdJNgUfSNkiQd24l6/Ry84b1SPcCCICADlFR9WqjerWl04ZX5RYUHvmBPvaL45c/hTBEjwMsfJ6tRSNe65aKNs/VTawBQ+VCGexJCOf+pbKy0vbzhYpvfqG+P68oqXRyFsBBHx3maNU8os0L4ldahIWF/f11LvzbgHNhT0JAmFKpRB1eDu/wMkKo/Nqtiu/OSH+5Yj7zp9RkI91a0NILKbrFY9SrT4e1ahH/WH3YygQ8AAIaPIS6YR11wzrSiVKz2Vx85qLj1B/Vp847zl5V2El3FviqaMQ8UU/0bFPHs4/FtGgqFovhIQZ4FAho4IxIJEp4qSV6qSVCyGg0lv9+mTpz+f/au7uetKEwDuBP23NaiuVlaJEqA3WMCGZTs3GxxGSXS/YF9pF3N002gwZZ8GWT8aK8ibactrsgGm62EMZmk/1/d236nPTqn7bn6Tm9jwf+p+OFHhq8ptU3NNrdDJe2RKmQ3N1CIsOUENAwLV3X9b0S7ZUsItd1Lz6X/f0jZ//IPjiSj8+ieLie0FfIK6yFdjZDr4rK62Lm6QqWYIYZIKBhFoqijPtA6MN7InIcp1Ouii8V//Dr7WGFyrUnd/9XYHd0FtrKKcUN5UWOv8yvF59P7vKH30lgNghomANVVZPbBdoujA89zxtede7KVSrX3Mqpc1wbnZzHBvbj3uQc9Qw1+iw73Fhh+aycS/v5bHEzjyk+mDsENMyfLMvJTJoyaXr39uFks9nUT77R6WW9drZQvfTP662L7+FGRwty77VEsmWydErKpBpWzFrLUjbVzZjrqRQRTa4ah3SGvwEBDf+IaZpkmvRmJ3f/yh8nEkJIP67cesuvt+4aV81Gw2h0b687i9dDt92lTt/rDui3rfp/wpckOWb4MUNJRFtxfdmyNDMhJxMstSSvmMxa8pcXOefji437zxT6rwcEmC8ENDwmxhitJpXVJBFpROPfMyabHFzXlQZDrzvw+je3vf7NcNhut03bV21h27bj2CNnJIQQQhCREIJzzhgbj8w441zVVFULhRyNtUIy5zysh/WIIUXCUtSgSPhh7i6O5e0heLAnIWpRi1rUBrQWrT8AAAGFgAYACCgENABAQCGgAQACCgENABBQCGgAgIBCQAMABBQCGgAgoBDQAAAB9RPzLQS1nhtmqQAAAABJRU5ErkJggg==;" vertex="1" parent="1">
                    <mxGeometry x="450" y="175" width="40" height="40" as="geometry"/>
                </mxCell>
                <mxCell id="7" value="" style="shape=image;verticalLabelPosition=bottom;labelBackgroundColor=default;verticalAlign=top;aspect=fixed;imageAspect=0;image=data:image/png,iVBORw0KGgoAAAANSUhEUgAAAWsAAAFFCAYAAAAq4Mw+AAAAAXNSR0IArs4c6QAAIABJREFUeF7tvQd3HEeWLvhlRGZZFAooWIKeEiWxW97b9t5IPfPmzZ49b/ac2dn9XXt23ztvp2dme9p7dbekVre8l1qk6EkQhHflK03suRFZJEgCRBVQBWQWbvZBU5SyIiO+G/Xh5o17v2sppRT4YgQYAUaAEYg0AhaTdaTtw5NjBBgBRkAjwGTNG4ERYAQYgRggwGQdAyPxFBkBRoARYLLmPcAIMAKMQAwQYLKOgZF4iowAI8AIMFnzHmAEGAFGIAYIMFnHwEg8RUaAEWAEmKx5DzACjAAjEAMEmKxjYCSeIiPACDACTNa8BxgBRoARiAECTNYxMBJPkRFgBBgBJmveA4wAI8AIxAABJusYGImnyAgwAowAkzXvAUaAEWAEYoAAk3UMjMRTZAQYAUaAyZr3ACPACDACMUCAyToGRuIpMgKMACPAZM17gBFgBBiBGCDAZB0DI/EUGQFGgBFgsuY9wAgwAoxADBBgso6BkXiKjAAjwAgwWfMeYAQYAUYgBggwWcfASDxFRoARYASYrHkPMAKMACMQAwSYrGNgJJ4iI8AIMAJM1rwHGAFGgBGIAQJM1jEwEk+REWAEGAEma94DjAAjwAjEAAEm6xgYiafICDACjACTNe8BRoARYARigACTdQyMxFNkBBgBRoDJmvcAI8AIMAIxQIDJOgZG4ikyAowAI8BkzXuAEWAEGIEYIMBkHQMj8RQZAUaAEWCy5j3ACDACjEAMEGCyjoGReIqMACPACDBZ8x5gBBgBRiAGCDBZx8BIPEVGgBFgBJiseQ8wAowAIxADBJisY2AkniIjwAgwAkzWvAciioAClALQ/DOA0n+nfxX+e/pvLV2WucuiPwUs/eeaf2eJcJTw37U0Jt/ECOwsAkzWO4s3P60VBIiM/TqUW4JqlKHcMlSjZP70a4BXM38GDUB5gArWGdUCLBsQtv7TkknAycBysuaH/m4nYSX6YCVysETC3MsXIxBRBJisI2qY3p8WecwBEPhQgQv4LhC45p+DhiHpxhJUbQVBfQWqtgRVX4bySoBXhvKqIWG7G5O1sGEJByAilmlYybz5SfQbwrYzsFKDEKlBgP7ZTut79WckfY4+TwQuQq+8963CK4wuAkzW0bVNb89M+cZTrq8gKM8hqMxCVafNT20Oyi0a4ibPOfCBwIMK6J/Jk/Z1eERpj7oZJlnPuabwBv0oE/rQxO0YArYkIGTodScAmzzsQVjpfRDZCYjsKER6CFZyAJZDJO5cD530tmV4dRFFgMk6oobpqWlpD5rItgG4VSivYsIa9UVN0kFlBor+bJJ1fRbKr4QQCFhEqtq7XRNbJrLVRLzZFVwjd3Mn/b0Z6ybCJ+In7s4Cdh4iMwEruw8iQz+jsFLDsFKF0Bsn7zsDS3LIZDPU+b93HgEm685jyiPegADFn10EjRUElXkExUkExUtQpYsIqlNQ9XkgIDKnA0TymsmbXhvaWHMY2DwU1OzazmEged/NSd18KNn8O3nZ5kf/cpBJWDbFtfthZSYgc0ch+o9B5A6GHnc/25kR2FEEmKx3FO498jDtSTeg3AqC2iIUkXR1BkFlGqoc/kletLuoY9CWJkkKTYRhi7XZGjsKGZH69TCL9twphu0UYOnQiPnRoZLMiPG4dQy8z8S5+WIEuogAk3UXwd2zQ1PIo76EoDQFb+5j+Mt/gyqd12EP4z2Hh4vXQhKUudH0lNvxmLuB8PUQifHG6f/C+dEvFZmESI5C9B2CLNwPWbgHov8QrCR72t2wBo95HQEma94N20eAyJcyObwKgsocguIUgvIlBOVJBOVpKPKoGwuAXzXP2nUPup0lU4w7/KFfLjR3mdWHkSJ7AFZ2P0Tzp28/RGYIltO3Jr7ezrP4XkZgYwSYrHl3bB8BFejMjqA8A2/mXXgzbyJY/RSqfhWWaGZSaJbe/rMiMUKTwD0T53YGIAc/D2ffFyCGPg+RmzB523wxAh1EgMm6g2DuuaGUr3Ogg+IVBCtn4a+cQlC8DFWegnKXAMrosChzgjI3eoWow9CIThsk0qaklASsZAGi7yBE31GI/J2Q+aMQfROmEIfj2Xvuq9GNBTNZdwPVnh8zzN6gsMfqZXiz78KfewP+0odhqINymB1zaNjzV7O4p67TAK3kCGT/PZBjj8MefRhWZgQi0W/CItdSD3seFF5gFxBgsu4CqD09pC5mKWlv2pv/EMHyKR2bVtUZKHclzGk2Ghx7h5zWxLV1yl8OVnoUInsQsnAfxOA9EH37IFIDPb01eHHdRYDJurv49s7oFJf2qQy8iKB0BcHiJ3CnX4VaPQPllwAVVgi2VKjSO7DcuBLysv0w/U/pqkg59BDs4YcgC/dC9B+8HhZhL7tXN0HX1sVk3TVoe2tg5dURrF6Ev3QK/vzbCFY+g2qsaI0OU/7dzPLopdj0Vmy4pkJSZ45kINIjEPkT2suWI/dCZMdNHJsJeysA79nPMFnvWdO3uHASWiJvujIDf/4jePPvwV/6AKpKmR6psJhlbZVhi+Puhdt0cVAVypIQ6UOQA/fAHn8cYvAuiPSoFpPqvcPXvWDY3Vkjk/Xu4B6bp1IVoj//N3izb8NffBfB6hmdU60LW3TlYSv6HLFZbocn2iz+oRC+DcvuN8U0ww/AHn9Kl65rwmYMO4x7bw7HZN2bdt3+qgJPl4oHKxdNtsfCuwjKF6DqC7BEkj3qthAOY9mUvujktc4IZYoIOnzMH11Trr7XQ0htgbrnbmay3nMmb23B2qOe/QDulZfgL38MVbkcqtVR6TV500wsrSHZvKtZxm4OYkVyCHLsKTgHvwqROwDLofQ+xrQ9TPfW3UzWe8vem6+WPOrqPPzFU/Dn3oM//y5UbcaI/oeqdJsPwndsjECovy0SkLnDkEMPQA4/BFG423SskSkGjxFYFwEma94YNyBA2R2UP+2e/xWCpY+hGrNhfJoKXNjz68x2acayfVhODvbE12Af+hYEaYtQ1xq+GIF1EGCy5m1hEKDS8eqCyfiYoxg1ZXzMAEE9VJ3jg8TObpWwKYKwIfqOQA7eqw8d5dDnw1xs1hbpLN7xH43JOv423P4KlNKKeZRD7Z7/JfyF90xTAMqf5nZW28d3wxFCD1t5sBIDsA8/D+fAVyAyY6HkKr/JdBH82A3NZB07k3V4wkTUjVV48x/Dn30X3vxbUJUr16vw+DCxw4DfPFxYqi4SEP136MIZZ+ILJoZNyn2c1tdl/OMzPJN1fGzV+ZlSCblX0zof7uUX4c2+abI+vLLpCM5E0XnM1x0xPHS0BKzMfiSOfF+HRKz0MCwns0Nz4MdEHQEm66hbqIvzI6L2V84hmP8Y3vQr8JdPAaoRHihyel4XoV9n6LBPpJOF7D8OOfIInP1f1F1o+GIECAEm6724D3RnlwaC6iK8q6/Bm3kdwcpJqNps6FGT/jRfO48AETYVzmQhB07AOfxdyOH7dPyaNbF33hpReyKTddQsshPzoVzq+jKClXNwz/8M3uxfQ7U4KiFnj3onTLDxM6ipgYBIjUKOPK51seXwvZzSt7tGicTTmawjYYadmoTJPtDViYsn4c++DW/mVd3hRYsycUeTnTLEbZ4TZojINET2cBgO+QJE7hAsJ83nCBGw0G5Ngcl6t5DfleeaxrZBeRbuxd/Cnfyd7jgOv8adTHbFHhs9lErTA0AkTW/HA9+EGLoXoi+UVo3UXHkyO4UAk/VOIR2B5yifiHoaweLf4E29pLM/oDwzM61LwXm9ETCTmUKoEW6lxyALD8IefxL22MOwdIswPlOIjJ12cCJM1jsI9m4/yogzvQ938k/wlz6CqlwK9T72Qq/E3Ua/3eeH6XxQpmBm/1fhHPuBbg9mDhv5F2u7iMb9fibruFuwlflT9odfR1CegTv1Z7iTv4eqXNXC+HurV2IrYEXpnrBgRqYgCw/A3vcl2HTYSOl8nAMfJUPtyFyYrHcE5l1+SOCb7I+l0zpO7U29COXXYck0e2i7bJrbPz7UwbYsWKkJyMH7YR/4Eux9j7J3HWm7dWdyTNbdwTVSo1Kj22D5LNypV+HPvY1g9RQQeLp7Cb9OR8pU60yGvGsA0oFIjcM++E04h74GKzkIy2Y51ahbr5PzY7LuJJqRG4uyP3wEjSL82ffgXvwVgtXTUF5Rp/AxUUfOYOtPSPdyrAN2UsupOoe+DdF/BCI9HJMF8DQ7gQCTdSdQjOoYKkDglnRrLn/6dbhX/whVmaZUg3DGfEgVVdPdOK8wHEIdZnJ3QQ4/AmfiWcjhE/GYPs+yIwgwWXcExogOQl51ZQbezNvwZ1430qfuSlj8wvrUEbXaBtOiX7ACljMAkTsK5/B3YO9/yijz6XAWX72OAJN1L1s4cOFTrPr8r+DNv6Pbc5EmCJeUx9Xo5o3IShbgHHkBNmlfpwqmQzpfPY8Ak3Wvmpg6v9SLuvOLe+5H8Jc+CQtg6AvP4Y9Ymp1i16qhyVmOf83oXg/eCZEZjeVyeNLtIcBk3R5eMbmbOr9QXvWUDoG45/8TQeksLEHaElz9FhMjrjNNo5YImYQceABy5DHY+56EHLwjvkvimbeMAJN1y1DF6Ebq/lJfgTf7PrzZ1+HPvmb6KYokF1PEyIy3TrWZdy1hJUcgBk4gcfR52KMPsrZLrO3a2uSZrFvDKV53URZIeRruuV/Dm3kNqjYF5ZU4Vh0vK248Wx0O8XQ39MTd/zvs/V+ERb+IBb819YqJ11sHk3WvWTdsLOCvnkfjsx/qLBClu79wXnXPmDoka2r75Rx6AfbEMxDZCViJXM8skRdyKwJM1r22K5QPRUUwSyfROPl/wZt7C5bMslZ1T9mZwiEeLKcfcvRprchHHWWoKzpfvYsAk3WP2ZY0P4LiZfjzH8K98HP4K5+YV2SLc3F7x9TNBgUpyNydpkHBwa9C5I/0zhJ5JbcgwGTdY5tCuWX4sx/Bm30L3txrUKULgOXwwWKP2dlUoQrAGYA9/AASd/4DZOEE65L3nJ2vL4jJuseMS1kg7uTL8Kb+gqB4Gqo+xzKoPWbj68sJ9C9hOfB5JO7+J8iRB01FI8un9qTFmax7xqzm1TiozsM990t4V16CasxzFkjP2HedhSgPSnmQ+eNI3PnfIMce1Z1kuBN6bxqdybpX7KqV2RrwS1Nwz/zIkHVQA5TLKXu9YuOb10Gtv+igse8wEoe+pzuhUzqf5WR6dcV7el1M1r1ifp0FUoJfvAD3zH/Au/rK9bJy7q/YK1a+cR26T6MPi3Sux78Ae+xJiMI9EKl8b653j6+KybpXNkDgIaguwF/6TJeX+7N/BXT8krNAesXEt6xDe9YBrMQgZOEhyPGnYO97jHWue9TgTNY9YliTsjeJYOEjuJd+DW/h3bCqjZqr8tWbCIQpfHbWpPCNPwXn4FcgsuO9udw9viom6x7ZAMqrwl88BX/2HXjTL8Nf/pTJukdsu/EyiKwp2ScBkR6DHH8aiaPfh8gd6PmV78UFMln3iNV1fvXcB/CmX4M3/zZU8RyHQXrEtrdfBrG1rUMh9vgTSBx7Qbf84v6avWd8JusesSmVmHtX34Q79QqC5U+gKpMhWbO4T4+Y+LbLsOw+yNFHkTj2dxD5O2DZJIfL3YB6yfZM1j1iTVMM8wrcyT9Alc5D1ReMdjV/YXvEwrdbRqDlb+Xww5qs5eDdsJwcq/D1mOWZrHvEoKq2jMbF38K79Buo2qzpYK6JmrvC9IiJN1hGs5muDTn0IBJHfgAx9DmI5CD3ZuwxwzNZ94hBVW0RjbM/0+JNuikuyaIyWfeIdW+3DOoe42svWg7dD+fwC5DD9+rejBCcCdRLG4DJuiesGSCozKNx+v+De+EnQFA3q+JimJ6w7qYHjJqsLQjSCDn0PYjh+yH6xrnsvMesz2Qde4OSZ+XqzjCNM/8B98JPTaMBQcUwHAKJvXk3XUDoWVuAyB+HM/F1yNGHIfKHYcnUpp/mG+KDAJN1fGy1/kx1Zxgi6ytonPmhIWuSziQNa772AALNvowWRN8x2BNfgj36KMTAnbBsJute2gBM1nG3ZkjWPpH1Z/8vvIs/NvrVgr+ocTdta/NvkrWA6DsCe/w52GOPQQzcBctJtzYE3xULBJisY2Gm20yy2XOxdAWN04asFRxYkr+ocTdta/Nf61kfgT32LOToY5CFe5isWwMwNncxWcfGVBtMVJN1HX5pEo3T/wrv4k+YrONu07bmv4ass0TWT0OOEVmfYKnUtnCM/s1M1tG30e1nqAIor4ageBGNM/8G7/LPmazjbtO25h+SNSyIzEHI0Sdhjz0OOXIvLCfb1kh8c7QRYLKOtn02nx2RtVtGsHoRjbP/DvfyL3XMmsMgm0PXG3esJev9kMOPQY4/CXv0ASbr3jDwtVUwWcfdoETWPnnWl4xnfeln7FnH3aZtzX9NGER71k8Zz3qYPGvuGNMWlBG/mck64gbadHrXDhgpZk0HjByz3hSznrrhxpi1HHtGZ4OYmDUfMveSqZms425NzgaJuwW3Of+bskHGn4U9+hjEIGeDbBPYyH2cyTpyJmlzQmuLYk7/K9yLPwEgOc+6TRjje/vaPOujsPd9wRTFDN7FRTHxNeq6M2eyjrtBr5H1lI5Zuxd/HnYPYRGfuJu2tfmvLTe/C/bEV2CPPgKRP8Ll5q0BGJu7mKxjY6qNJmq+rEGFtEFIyOlngPJYcS/2dm11AU3VPQsifwLOgW9DjjwAkdsPSyZaHYTviwECTNYxMFIrUwyqRnXPu/BTqKBqxJxYIrUV6GJ+T5OsBeTgfXAOPw9BEqmZEVbdi7llb54+k3WPGFTrWZ/7BdyLv4BqLANBjcm6R2x7+2U0mw9IyAI1H/g703wgxc0Hes38TNY9YlFVp04xL8K79Fuo6lUob5XJukds2xpZO5DDjyBx9L9ADlEmCLf16jXzM1n3iEVVfRXelT/DnfwTguIZqPocYNncg7FH7LvxMsizVoCdhj1CDXP/PlTcy7Dte8z2TNY9YlDVKMGbfhve1J/hL30IVbkUdjenJgR89SYCIVHDgpXohxx9POxufgyWTDJZ95jRmax7xKDKrcCf/wTe9Jvw5l6DKn4WkjWn8PWIiddZRkjWwoGVGII9/iQSR1+A6D8MCG6W3Gt2Z7LuEYtq5b2V8/Dm3od35UXtXVvULYabpvaIhddbRkjWMgWR2Q859hQSR76j0/b46j0EmKx7xabU2qsyC3/xpG6a682+zmTdK7bdcB1hJoidg8zfAzn2JJwDX4TIjvX8yvfiApmse8XqgQ/VKMJfPQv3zL/Du/qy8aotyY1ze8XGN69D+QACWMkhyKHHYI89CTn+MESq0Ksr3tPrYrLuFfNfk0q9jMbpH8Kbegm67pwyBSzqcs6dznvF1NfW0STr9D44E1+BHH0CcvBOWMn+nlsqLwhgsu6ZXUCVbB6CMpWd/ye8K3+C8su65RdXMvaMkW9cCMkKKB9W3xFdDCPHHtchEO5q3pv2ZrLuKbsqBNVFuOd/BW/qZajqNBfH9JR9b1qM8qCUC5m/G4m7/1lLo1p2GhAU+uKr1xBgsu4xi+rimKnX4U6/hmD5I13NyMUxPWZkvRxlFiXTkIV7kTj+v8Ievs+cUWhNGL56DQEm6x6zqPKq8JfOwJ99F97U7xGsUr41FUhwcUxvmZrOIhxY6X2Qww8icfT7kIPHe2uJvJobEGCy7rUN0UzhW/gE7rn/gL/4AZN1r9lYHxx7sOw+Ld5ElYv2+BOcX91zdr5xQUzWvWZgkkb1a/CXP0Pj5P8Db/aNNWEQzgjpCXOTjZULKzkIe+IbsMefgRi8wyjt8dWzCDBZ95xpTVaIX5yEe/an8Gb+CtVYAIJGGMvkeGa8TU5eNZG1ByszjsSxf4Q98RysZIEb5MbbsJvOnsl6U4hieINSULV5uJdfgUcHjSt/g2oshVohTNYxtGg45ZCo6W8iAdF/zBws7nsSlkiEBVDxXR3P/PYIMFn35A5RIBU+Kj33pt+AN/UigsoVWDLNX+hY29vEqumwWGSPQA49AOfQ1yGHTnAufazt2trkmaxbwylmdynAb2itEG/2Xbjnf6w1rnXXc65mjJkt106XQlwNnUstR56EHHsatu63eCDGa+Kpt4oAk3WrSMXtPgqFeBX4i5/CPfdT+IsfQbnFNc1047Ygnq+OVdPZQyIH59DzcA58FaJvH6zkAIOzBxBgsu5lI1P5+epluJMvw5t/E6p4VhM4izvF0eh0qEgvRwmIzAScIy/A3v9FWIksLJmK44J4zm0iwGTdJmCxul35CGpL8Bc+hT/zV3hXX4Gq00EjqfHxQWN8bNmMVQtYqf2QA5+Hc5hS9h4xAl1sy/iYchszZbLeBniR/yiFQvyqFnfyZ96GO/kiVOkSFIk7aTeN864jb0M9QYpVu4BMQg49AnvsWdijD0Dkj8Rj+jzLjiDAZN0RGKM9CHWR8ec/gnvxd/CXPoGqzXDsOtomu2l24cGik4V96PtwjjwPkRmB5WRjtQqe7PYQYLLeHn7x+DSVoJemdGaIN/0X+PNvG09Nt/xi7zraRgzM9Ow8ZO4o7ANfgbP/C0CiDxa3bIu26To8OybrDgMayeGoMYFXQVC8DPfS7+Bd+gWUV9ZCQJzKF0mLhZMK23ZZEiJ3B+TIE7oprj38OUCwMFeULdeNuTFZdwPVyI0ZNiaoL8Gffgvu5B8RrJ6Gqs+Hkpr8xY+cyZqxaqVgOX2Qo0/BOfRNiPwxowHCh4rRNFkXZ8Vk3UVwoza08uoIls/Cm3kb3txfESx/Ep4zMllHzVbUW9Gk6lHn8gOwD3wVzpFvs1hT9Ay1YzNist4xqCPwIOVDuWUEq5fgXv6t7tOo3Ep42Mh9GiNgoZvCHxZE5iDssachx56AHPocLCcTnWnyTHYUASbrHYU7Gg9TjVV4V/4Md/JPCKhQpjbHHUaiYZowpVK71LCcvO4CoysVC/fASg/xoWJk7LTzE2Gy3nnMd/2Jyq8jKF1BsPAx3Eu/hr/wbqjIx+GQXTeObizgA0TUA5+HHHkM9r6wES4XM+2+eXZxBkzWuwj+rj1ah0MqJp3v8u+M5nVtPixFt/nwalcMQyQd9lW00xDZw7DHn4U98hBE/qguK+drbyPAZL1X7U/pfG4J3txH8GffgjfzCoLSBVgiE+Zf71VgdmvdRNauDkdZqQnI4YeQOPwdiMJdJvTB2R+7ZZjIPJfJOjKm2PmJKN9FUJlBsHQa3pU/hsp8qyFpkHYI64fsjFVCjxpCd3yxRx6DHH0Ucvg+iMzozkyBnxJ5BJisI2+iLk9QBQiqC/CuvApv+q8IVj6Gqi8CIsXeXJehvz48VSlaADXA7b8DzrG/hz32KCyZ5OKXHbNB9B/EZB19G3V5hqR7XdPpfP7CxyFhn4byVsxBl0WHjlyS3h0jhB61LnzJQQ49BLvpUecOcoZOd0CP7ahM1rE1XYcnrrWvJ4329dybUKUzpiSdu8t0GOi1w1Hhi6XV9LRG9eHvwd7/HKxEPyybNaq7CHwsh2ayjqXZujBpCoe4Jd2sgBT6/NnXERTPQbmLYZUjiT7x1TkEwuwPOwNZuB/22GM6p1r0HzbNb4Xs3KN4pJ5AgMm6J8zYuUUo6t24ch7e1GvwFt6FIg0Rn6ocFTdl7QjMIUlTdgfFqLP7Ye//MuyJ52AlB2E56Y48hQfpPQSYrHvPpttbkU7pK+scbH/+Q3gzbyBYPQNVn2XRp+0hC6P34es3FSuRhxx6EPa+ZyEG7ja9FNmj3jbCvTwAk3UvW3cba9NVjsvn4c2+D3/xPQQrn+m8bFCXGZ3zy4eOrcNLB4nkUVM2pKOJWpA29fhTsPc9AytdCMvIGdPWMd17dzJZ7z2bt7ZirYFdg6oumCyRuffgL30IVb4Y6mBzTLU1IOmuZg/FBKz0uI5NE1GLweMQ6REuemkdyD19J5P1njb/5ovXMeziFILlU/Cuvgp/8UMorwqoBnvXm8MXErWCogKj5DCcYUrPewRy5D5YqeGQqNmjbgnKPX4Tk/Ue3wCbLp8OFimtr2YKZ9zp16BK56HqC9xlZlPwjFetAsC30hD5u5G68wU4o/eZ9Dxuq9YSgnyTQYDJmnfCTQgYcibvWdVWEFTmoapXEZQn4a+chypdhmosmhxsyhHWu8jiEPY6+ygIFBoNHw03QMN3ECSHYA+dgJ0/CqdvHxJ940j0jyGRycMmoSbCkS9GYAMEmKx5a9yIgI5VV3UJerB8Tudce/OvI1j5RGuFmIyFBKAEVGAq8CxhAfTD1w0I+L5CseShWHFRrnuoN6oI/DLsZAGZ4fuRO/AI8gceRnb0GFL947AEa7HwFtoYASZr3h3Gk66vIqjNIyhe0VrXqnIFQW3OSKdWZ01xDMVdLTpYFNqrDnwF8h4VlUtLC9IWxjnUOdl7r/MM4UCYuG6AasNHtRGg7gb6764fwPc9KOVCyBTs9DCc9CAS2SEk8weQGjiM1MBBpAYmkMwV4KRyptSf1fb4GxoiwGS9J7cCZScEQBBABY1Q2/oKgpVz8OY/QrByCqo6CQSVsNzcuVU2NSBiCuDRj6cgpIB0hHawhWXI2tpDRKOoAjQI0GgEqNYCrFY8FGv+NYnqW7YZ3e+XQSmSMjWMZP9R5Pbdj9zEvegbPYr0wARkog/CTrJGyJ78jt66aCbrvbgRAh+qUdSetL90GsHKWajKVQTVGaj6ksmnVjVTwKHzqcmjvukVnSIgRNiB8Rpr5EV6CglpIZWw4DgCUtLnetzDpjoXwiD0pitE1mGc2vXprWOjDWb0q4nkLZGCcLKwk2k4qTyS/QfQN3wMgxMnkB46ZgpmuLJxL35Tb1gzk/Ve2QLakzYHh0F9Gao8g6B4Ef7CR/CXT0LV5wG/GHrSsvVX8EDB8wKUqj6KNQ+2BSQTAgn7OmELQeER8rR7BGxdMa7g+QoUl1a+CXeUahT68FFzTWionUspH4FXhAUfqfQI+ofTpBqhAAAgAElEQVSOYPTog8iO3wcxcAdEehiWnQWcJGeRtANsD93LZN1DxtxwKUQcVJFYW9KetL/woWmUW70K5Vah/CoQuKbLufakKbujRY9YR1QU3EBpwqpUPVTrFJuF9qz70xLppISTECDSjv2lWyQGcL0AKxUPlTqFPxR8+qVF5E1vG+p2HvXGnrZSHhISKOSy6M9lkcz2w87kYaXGIAfugizcB9F/BCIzzLHs2G+k9hfAZN0+ZjH5BKXgBVB+Daq+rFPwgtJlBEt/g7fwMVRlUmtWWxYJ3FPbqBbJ+Tar19kPFRerFReuawSL0gmJBHnajoBNcW1hXfvRWSRR97Y1+RKUCl5IyoFnwh4r1ZCst0TO14EkTGzChUJISYHBjINMkrDxTKaN7IPMHYEo3AuZv8so86UKsBI5WJKyc7jRcUy+lNuaJpP1tuCL8IepKa5fQ1CehT//MfzFjxGsnISqzYYViNSdRItVdISoCQntwJOX7QaoNyhVzdeeZ4MOIAXgSIlMUiCTlEgnhM4eiXTKnz5EpVAHxeMDlGs+KCZNv5Toh8h7a1709X1DXJx0JDIJiWzGRjotYAv6paYRNTfqPHYByBREZj9k/3HI4QchCvdApIdgOdxMN8LfxI5Njcm6Y1BGZKBrh4eLxpNevQB/+TSC4nmo6hQQVNfEpbuj76HjuZqwfR3LrugDNyNmlLAFUo7QcW0Kk4impy0tOJT+p73tXfC4dQqi+WVDJExhDiJkTdZrDlFrDQV/m550k39taSFpCx0mSidtZFLmLeTWi1z7Biiubdl5oy+SvwOCfnLHIHIHQ9LORGQT8jS6gQCTdTdQ3cUxSXzJX7mAYPETeNOvI1j9LKw2dMNZrY07dC8GQcRHWRI+xbHrPhZLrs47bp676bf78NVfExZ5limpSXzHi2zCODR50A2PsjnowNRD3b1OzHo9RNLhG8R2TUzrp/X2Z4ikbSQSUv/i2vgQtqmDHWbnkMOtZVYfhhx+FPb4QxDZ8e1Oiz8fYQSYrCNsnNamZnKmdR/F4hX4q+cQLH+GYOUMAopLU/NbnYJH327ypLtH0LfMt3n46Aa6go/S+xqej7r+0xCfjtdKS6f8NePaOnNER0jI04Y+mGxG1M3fzRp0Trew9H0bXU1vmcIVdAWk09GMP1MRCxGwjgiZAh/ypomwdTFL6G23mdix4VwoFERvFo4tkHTML6hUGM/XIaGWrjBHnrSxSW41PQHRdwgyfxyCfvoPQ6QoNJLmQ8iW8IzPTUzW8bHV+jPVQkuuzpn2rvwV7pWXEaxSKt4MLJkxpeER0J9uhkaqNV8fQK5WfB1u2OiS5HkTgROx6cpIImUg4ZhwCV1E9PTfdehkg4tCFqTNQQRNUNEziYjNz/VDw25vA5ohkXQ2KdGXsfUP5aJv66LfMip8Y3IGIAsPwDn4dcihE7Ao1U8LRfHVKwgwWcfVktqbriAoz+miFn/pbzo2rcqXodwVgNLxLKo83GFvekMX12RUUAENkee1MmwvQI2EjsjTXhMLJmeZqIwIW4cH9P+IoNfzrDc2YpOgm94xedKeb7zrrafZtbZpaA3ml415a0g4Uv+9mR3TfENobbT17mp62c2mBoMQuSPGyx44ATlABTUT7GFvHeBIfZLJOlLmaHEydIhImR6VWQRLp+BNvwafOpITSZO3pVPxop3ORbnZpEhHh5DFqodyPcyyaMaG26spaRG47t/WPBulNwHy+OnwUHvTXY3HN+UD6iTICpE5HMaxn4I9cj/gZELdbFr/DobBug/3nnoCk3XczE2aErVl+IufwV/8G4LljxGUL0HVKDZNRS3NdLxtvmJ3GRcdvdExYiowMXHihmvImw74mqXanYoXd3k5engiagrR6Hi0zniRsMMYtWN3O9NF172b/EmZ1o0NZP8dkIOfgxx5ACJ/jHs87sQm6OIzmKy7CG5nh6aTMYpNLyNYvQhv5m34C+8jKJ0BqHOL9qbj2xuRUuTI06bqx3Ld1/Fko+inJUiuhSwI06gQuKQ4ehiW0WEby9JxacojzyaFPjwkgaudzSU3Zxj6l7YzCNl3GHL8adijD5k4djJvSHsPiWx19nu4e6MxWe8e9q0/WTNWHUFlDt7VN+EtvA9FedMkYUoNbMmjijFRNwm46WmTkp+RX4X2vMnr1gJJFCrpQI5z68BvfCeFOMiDziQMKRNJEyk3KzQpw2XXcsZ1F3VlfoHLNERyEKLvMOyxJyGG7oXIjHAhTSc2wQ6PwWS9w4C39biwpRZ1ZdFpecufwZt5Q5eMm/i0GzavjXbIo601X2PukKxJdpRytbWaXaBT7YjEmzra+vYwJY/+XTNFr/nv2/XC19bjNDNQmvnP5DnrxJNmPNoRujycqjEp3KGbB0QqJBzGsknZL9Gv49hy+GHIwbv1waOufORS9ba35259gMl6t5Bv5bnNasTyJNzLL5lDxPp8WORCFNWG4FIrz4vUPUQ0xkFshkGaRSmUC+02fKN4F4ZIKJukEQos6QIWmNBJO2Sty03C/G6deRKmDmoFQcrosI2+CRXt0I/J8V6T6x0pom4aM/Sy6a922oRFxp6DPfIwRP4ILGonxlcsEGCyjqKZNEM1zEHiylkECx/Dm3sbwepp401rniYZ0x7zqFuyBRWxkP6IKQU3XjWlBBrVO13IQv8LSV5Lld6u7LCpuwEFizIpwipCkyZowRFE0HRwCCNEFZL1zsahWwLmNjfRqwgVRvkAedj5z2sFPzlEKn4HIVKFW5tLbPeR/PmOI8Bk3XFIOzBg4GvNadL18Cb/AG/6L2FDAC98zd6+Ql4HZrlLQxhPUeks7PBq8vF6h4/aLd9IX9qCJSWgi2yMdsnaSzvKWqbEEDn9k+5+E0kPuhVzhK8q0obIHIAcegT22BOQI/dyDLsV+Hb5HibrXTbADY9vlo1X5xEsnYQ3966OT1Nq3rX3+Q5ImUZpye3PZa1GRgusGXa02agZgI4za53tW8n6ht8G1/7SwjPbX9TOfULX1geA3QeRPQA5+HnI4YcgB++EyO7bo29rOwf/dp7EZL0d9Dr92cBDUF3URO1eeRHe1B91jz5LptZvrdXp5/N4ewQBihFRTn4AKzWhy9TtA1+BPfE4l6hHeAcwWUfBOPRaT+22yld1oYs/+wZ8alpbmQ7T8qjL9V4OfUTBSL00B/26ERbQpCCSIyaGTZkiQ5/TcWy+oocAk/Vu20SnMzQQVBd0Z3F/5i/wZilGXYQlWDltt83T28+/XkBjJcch8ifgHP4G7PHHuANNBA3PZL2rRiGPuo6gNIVg8VN4M6/B191c5s1rqs6BjXmMdFfx5YffHoE1HrZIwkoMQQ49CJs87JF7IXL7GcAIIcBkvVvG0N3GQ4967gP4s1Q+/g5UdXaNrOluTY6fu7cQoENbyjQSsJITxsM++GWTJZLoM+XpfO06AkzWu2QCRaGPygyCxVPwrvwB/tJHUG7l2peGPepdMsyefSzFsOkc24ZIFnRanxyhn/shsmN7FpUoLZzJeqetsbbgZd541N78WwjKk7BEist/d9oe/Lw1CJCHTRIGNqzMIcjCvXD2PQsxeBes1ABniuzyXmGy3mkDUHoeFbysnIN74efwZ1+DIpU0IvGYizHtNJT8vG4g0BSBsiFSY8bDHn0McvR+iNRgNx7IY7aIAJN1i0Bt/zaT2xo0VhEsnoRHHvUsNbQ9HXrU3IJp+xjzCB1BQOti+1pLRJCHPfwA7PFntJaISOb57a8jILc3CBV1MVm3h9nW72624SpOwr34O3hTL4Yl5KQ9TCXMe1HnY+tw8ie7jUCYKWLZEH1HYY89Czn6CGThLlg2FWnxtZMIMFnvFNpE1G4Z/tIZ+HNvG1Gmlc9MwQtdXPCyU5bg57SFQFia7uQhc3focIjWxM6OGy2R23SVb+sxfPOmCDBZbwpRJ24Iwx+VObiX/wD3ws+0zKl+zdQeNedRdwJlHqNbCISl6dLWetjOgW9CFk5wI95uwb3BuEEQcBik25grasVVnIQ/+w682TcRLH4I5VfWhD2YrLttAx5/Owhc76BupUYgB+6Gve8ZyLHHYSVyoW7Ndsbnz7aCAJN1Kyht5x6SOnWL8Gffg3vh1whWPoVyl8J8Vj5Q3A60/NmdRKDZccbV4Q858TU4h74FkTtktLD56joCTNbdhLjZhXzhJPzZN3Xmh6rNhOEPEknmA8Vuws9jdxqBsHu6cCD6jkAW7odzgKocH+j0g3i8dRBgsu7WttCZH1XdhdydfBX+/NsISmcBP+xCvlY4/9ocQj3lG/XvuzVDHpcRuD0C6x56h1WOMgmRmYBz5AXY+7+oW4NZMsmIdhEBJuuugNsUZ7oCf/5DeJMvIlg9s0kX8tBr0YeOzNZdMQsP2gYC9OYn1xyAN89VrvdzpHi1HHoc9ih1mrmPRZ/aQHcrtzJZbwW1236GTs6pJdcS/Jl3dCdyLc5UmwOsxE2hj7DjCY0nEsYzIcEcDo903Co8YIsIhFIICNywqnaN89DMWtLppj5gObCoNdjA50w4ZOjzgJPmkvQWoW73NibrdhHb7H7ayH4d/uoFuGd/bOLUbmkdcabmgQ1tehtWcgRWehwiE+avbvYc/u+MQDcQCDwokkKoL0BVZ8LD8GaDZmqA0TxnCR0NISHS47D3f0P3ciRJVSvZ342Z7fkxmaw7vAWUV9Nxagp/uJO/Q7D8qdngN2h+hGEOkYRIj8HK7NPxP03WqSFYTqbDs+LhGIEWEVA+VKOotWuIrIPKFILyFajaIqBqYdciIuywwbDyYNlZ3RaMcrDt8cchcgdMCIXrB1oEvbXbmKxbw6nlu1RtGe7ll+BO/RmqdBqqfnP4o9nsVcJKFmBPfBn2vqcgMmOwEqS5wGXnLYPNN3YBAQrjkc66Z0ib3hCvvAp/8SOo2pTWX4eglNNmDNt0fIed0Y13E3f8A+TwvSakp2PefHUKASbrTiGpPZISguJluBd+A2+G2nKtAqqxRvcjDH0Ix5TuUs+7kYchCndrgXdlJRAECooySagnI58zdso6PE6LCFiWBduWEOQVk956bQH+4in4c+/Bm3sLqj4bSiSEJK3HNRtVZA7AnvgS7NFHIQbu0AUzfHUOASbrDmGpGwmUriBY+BjuxV/CW3gHlqADw7WFL6Ybh+X0wT7wLThHvmNi1AkT4yNjuK4L1/X0PxNh88UI7CQCQggkk0kkEtf3LaWgejPvwD33EwTUxNmjM5jgevz6mkJfBjJ3HHL8aTiHvqr1Q/jqHAJM1tvG0njLqr4E7+obcK++ajZ0dVqflt+Q2UEtk+wcRPYg7ANfgX3gC7CcHHwlUC5XUK3VNFn7nm88a07h27Z1eID2ENCetbSRSCaQzWSQSqUg4EOVLun97c+9AX/pY+11X3dEmuXoQofyqIejc/jbEIPHIXRoj/qI8rVdBJist4ugLn6pQZUm0bjwS3iXfwsV3HwQo/1mTd4ic1Afxtj7n4U9+iACCDQaDSwsLGJ1tWjImmKGfDECu4gAeddDQwX053JIOBKWX0awckHXDHiTv4PyyrfGrindDwFk/3Ej9jTyCET+cCinyvo32zUnk/U2EdThjyIVv3wE7+rLOqf6+ivimkMYKnYRNmT+HsgxIupHIAbuRMMLUK1WsLi4hHKlwrHqbdqDP94ZBGwpkc1m0deXRS6XRVIqBKWraFz+PbxLv4RqrNxaD6ALugLAGYDMG7Ene+JZox3C3vW2DcNkvR0IyatulODPfQj3yp/hL38EVbkUHiiuPQlvSkxKyMLDcPZ/DXLoXqBvP6q1BkrlMpaXl1GpVEExQ3oV5YsR2E0EaA9S3Lovm0WhMIh00kZwTeL3p1D1hfBgce1evV7kpcMh488iceS7WuyJzmk4lW97FmWy3ip+dPjn1xFUZuFeeRnu5d/ovFSq/Lq1kcAash4iPeBvQA59Dio9jnKlitViCcViEbVancl6q/bgz3UUgduTdVOPnUJ7RNZrCbsp9pQw4b59X4ZNpej9h7gyd5sWYrLeKoDUS7G6CH/pJPypl+FNvwLlVW6K4zUHv8mzPvB13TVaZfdpsi4WS1hlst6qJfhzXUBgY7J+Ee6F0LPWDZ5vJmvyrqkq14JIH4AcIsJ+DnL8YVgspbAtSzFZbxE+RV714mdwJ1+Bv/AegtIFQJFXvZ7saUjWQkAO3Ke9DTn6IKzcYVTrLodBtmgD/lj3ELiVrCWC8izcy7+Fe/7HYcyaQn3rheyIsCkaSKXoo3AOfQ/O0W/rzKcbU1m7N/9eHJnJum2rNoWaVnTnF/fCLxGsnoUKyjBVLBts3sDTm1f23w059gzsscdgDR5Hw/V12h5lg9ABI8es2zYIf6ALCFBRDGWE9PVlMDiQRyohEJSvonHxN/Au/Njo3ZCnvO5+pwkZB0WXok98Cc7Bb0D0H4ZID3dhtntjSCbrdu1M+c9+DUFpCt7Un+Fe/DFUZRoQqdvE5EwxDJXfir5jkMNPwJ54SsetG55CpVrF/Pw8SqUyk3W79uD7u4KAlBKpFJF1Fvn+fiRlgKA0Cffir+Be+AmUX4Ul05uSNXnSpMonRx7XsgrUGZ2vrSHAZN0ubiR/Wp2DP/c+vOnXdJGAaqya17sNpU3DogEia51n/SDs/c/pUMh1sl5AqVRism7XHnx/xxGggiwphU7dy/X1IdeXgWPVEayc1wfp3uVfgcKAliTBsY0yl5p7XsByBiD6j8E58jzsiadhURofywC3bTcm63YhC1z4y2fhnv8NvPl3oWrTQFBvYfNRiMSGlRrVnoZN+r/7HoPnQx8yzs8zWbdrCr6/8wgYTRoia4lcjoi6D7lsCrZfQrD0Kdwrf4A39UeooLEJWYdz05LBFSDRj+Td/wLn6Pe06JN1gwxD59fRiyMyWbdj1cA1GSBa/+MXCJZOQql6KGyzWW40kTUp7Y1A5O+Gc/CrOhRCFYzVahXTM3M6fY9j1u0YhO/tNAJNsrZtGwP5fvT355BOOpDuEvyFT+BNvQRv5s+h+l7qNp71GrImZ8bOwJ74Opz9X9LFYCIz0ump9/x4TNYtm5hadVVNye3MW3Anfw1VvACQWFNLr3T6eByWU4DIH4dz6OuwDzynGw9QfvXV6Wldbk6n8FwU07JR+MYOI9Aka8exURgsaLJOOgKiNgdv/gP4V1+FN/+GrjG4/QFjc2LNTKgERP4E5DAVhT0HOXg8jKBs5uR0eIExHo7JulXj0ethfRHe1TfhzbwJf/F906pLhH3qNh2nqfub052hSXGPlMk0WdfrmJ6euUbWmw7FNzACXUJgI7K2qtPwZ9/T0r9aUuGakNNmZEv7nrRupIldD9yFxNEXIMc477pdEzJZt4RYmK5Xvgr3/K/hzbyuY9VazGbdDtDrDUoHLhYgU1r3l2J3zpFvas+8Xq9jZmZOF8ZQ+h8Lo7ZkFL6pCwg0yTrhOCgUjGedoPPAyhS86bfgz7wGf+mjMAxCanqbkfUaD1spWNkJJO74R9gTz2hpYEtSKIWvVhBgsm4FJX1IUoO/cg6Nz36oRdh1AYxuHNrOZqXbbVjpMSSOEFl/B3CyOteaDhhXV1fh+axj3YpJ+J7uIHCNrBMJDJPqXn8/HKmA4kV4U6/Bm3sTwcqnRlZBizO1uP+15rUHK1Uw/RrHn4bIH4NIDXZnIT04KpN1K0alg8XKHPzFv8E99yP4C+9voQv5GpGb1DCcw8/DOfY9XdVF6XtUFEMHjK5HjQfYt27FLHxPdxAgwk5osh7SnrVt+cDKWbhXXoE//w6C0rmwbqANneomWVORzNBDkGNPwB5/EqJvojuL6MFRmaxbMKpyK/AXPjUVi6QBUjy7BbKmBxndBFIkc478AM4dL8By+tHwwGTdgh34lp1DwJB1AbkckbUHtXQS7qXfm16M1ashWa8nrbDRHK+3tLNS45DDDyFx7HnIQS6SadWqTNYtIGWa4P4xbIJ71shDWltJ7KfYdwNw+pA4/AKcYy/o18KGL7G4tITiaombD7RgD76l+whQqfnIsPGsRdCAv/Ah3PO/QLD8KVRjKRRraoesQ2eF/pBp01z32D9Ajtxn4tb6oJ6v2yHAZN3C/ggqM6h/+j/gTf72eqxap+u1GK9rPoNeBamLjJ2Cc+j7cI6+oHswulYKS0vLKBVLqDfq8KhShi9GYBcRoHZeY6MjmqyhezC+BffsfyJYPQ1FRS5aca9dsqaXS1LkA0TuDjhH/1434bDSQ6YbOl+3RYDJ+nbw6JZdFQSrF1E/9T905ZaWebzW9WIrZE0FAil9yOIc/i5E30H4dg7LK6s6Zl2t1uB5Huda8xd31xCg6sV0KomRkRFdxajcMryrr6Fx5ocIihSvbrada3P/a+fadJOx0uOwx78Ie+wJyMI9sJKmaTRfGyPAZH3b9w46WJyHT2W2Z/8D3uxfYNl9phBmS5cJg1h2CnLsi3AOfB1i4A74iSFN1PRDYk50yMjFMVsCmD+0TQRo3zm2RCaT0T0YSR+EFPa8K6+g/tl/141zjczpFrxqTdaUFeIDTg4y/znIsafhHHgWIju2zZn3/seZrG9j4+bBojfzNvzZv8BfOXWTZ93uBiGydg1ZjzwFe+JLEIUTUOkxVCoV3YRgZbWoG+gyWbeLLd/fCQQ2JOvJl1A/9X8jKF+GdVuFyc1m0TxolLASQ7DHnkTi2A8g+o+EcesteOubPbJH/juT9e3Iur6ieyu6ky9Blc5D1efCON1WN1SzY0wScuhh2GPPQo7cD+QOoVarabJeWl7RRTJM1j3yDYvZMgxZ28hk0qFnnYFqFOFO/hENTdaTsGR2a/Hqa1gYp4Vi1/bI40gc/ycICoXY6W2OGzOw25wuk/W6gIUVi9U5uBd+A/fy73SpOYJqh8g6ATlwL+TIk7DHHwPyd2hvmiRSFxYXtVYIk3WbO5lv7wgCtO8oE4TIenAwj2zK0aFA78pLaJz5VwTVqx0ia2rGAYiB+5A48gLE8H0QmVFW47uNFZms1wNHHyxSg4HLaJz/GbzLvzUpd+QKtFxevu7AunsGxfwEdYwZfgzOxNMQQ/dosi4Wy1hYWEC1VmOy7gj18CDtIkBknU6ndFfzfH8OqYQVNtp4Ge6FHyGozsISmW16wGv6NPYd1QeNcvRR3ZiAQoR8rY8Ak/V6uFAz3NoigqXTcC/9Ct70y2FPuTbKazf02ImsbYi+OyGHH4Fz4DmIoc8zWfM3dNcRoMpFaudFh4rUIaY/14ek7SNYvQzv6qtwL/0cqjqzSVekVpdhpBpIMlgOUl/SZ2DvexxWItfqAHvuPibrdUyu/AaC4mXTDebqS/AX3gaU7ECzz6ZHIWFljkAW7tfKexS31p51iTzrRa1vTbrWfDECO4kAkQHtO/KqdeOBXBYJ4SJYPqelUd0rv4Wqzm+xevfmlYTCZnYGIntQH7Y7h79utEK2kr+9k0Dt0rOYrNcja6+qy8u9qb/Cn38LQfG0SVXqSHeLwIg5UcntwAk4h78FOfZIGLMuY2FxSR828sUI7DQCt5B1XwYJq4Zg4SS86b9ox0Wf3VCtwbYJNdTKsQSsRAHO/q/oil6RHQ2/Z1s9xN9p1HbueUzWt2Ad6NNvb/ptfQIeLJ+Eqs8YsrY6URIbavsmBiH6j8M59rxuJEqFMKUSdTlf0A10+WIEdhqBJllTrJrU9jLpJBxVhj/3EfyZv8Kb/StUfWl7edY3LIpyrgPTAX3fl5Agss4dhOVk268O3mmwduF5TNY3gG5S6yhe7VHK3qVfQ1WmdBWjvrbtTdAgoayqzED0HUbizv8FzsEvgQxRLlcwMzunc675YgR2GgHag1S9ODgwgHy+Hylq5+WtwJ99X2u4m+bQnSTrZiprQhfHJA59H2LwTg6FbGB4Juu1wJDeQVBHUJ7RXrV76ZdGtIn+vWHrDnx/wrEsCSu9D8m7/zc4h7+pZVGJpOfmF1Aul3XTUvrhixHYKQSajXILhUHdfzFhS4j6nOmONPs6gqUPodzVDnrWzZZfNmThAdj7vgJ75H6I/sMAn9nc+s4fBLAUs4IBRqfsVRGUJuFe+h28Sz/Tugit9Zpr5ysVlp2nR5C85/+Ec/T7mpjpYJEOGImsXc9nsm4HUr63IwhQo9yhwiDy+TwcacEqX4F7+SXddECVTuvvhzm76ZDjooWdJET2qE5lpSbS9sh9a/R3OrKsnhiEPeu1Zgx8k7K3fBrelT/Au/onnW/dcbIO1fesZAGJe/4POEef1yGWaq3BZN0TX6v4LuJGsgZQugz34u/hzb8NVb5sVCO3oji5ISQUFhSwkqOQA5+DfeCrsPc/wcUx6+DFZH0DWbsIStPw5t6DN/0q/Pk3w8agiQ55EuHDdJuwCpDoR/LufzFkLROo1n2dDaI9a9djzzq+nBfbmVOpOQk4kWdtC2rndR7u+V/Bm38Xqjarw4SdObtpQnRTI+nD34Zz6CuwZIe/c7G1yPWJM1mvMaLOr165EPaaewPByt/CXnOdeu27maxzSNz5T3COfFerkNU8C8vLy1p5r9Fw9aEjX4zATiLgOA5GRoYxOJCHgA9/6ZTWsfbnP4ByV7bQIWaz2VMKHznXDkR6HA71Jj38TZMR0pFU2c2eH5//zmR9A1nXESyegnv5T/AW3oUqX7xWHt5Rk17zrHNwjv5XOIe+CSs1jIZKaF1r0gghfRAm646izoO1gAB1NR8bG8Hg4CDIefEX/gb39A/hL3wARSEQ2rsdyYpa41nrg3QFCgs6h6kpx/dgJfPc+fwmezFZryVrrwZ//iMt3uQvfwxVm9ti+6JNvhU6Zl3X7b2oYwzF6azsfrhW5pquNeVaU8cYrmRsgWH4lo4hcCtZf4zGqf8Jf/ED41VvtUPMbWdI3wcPVqIftu6g9H2I1BAsJ9OxdfXCQEzWN5B1Fd7se3DP/xzB8ikod7mLZE29GLNw9n8D9v4vaz1fz87rEMjqahGlclkXyka4USkAABDISURBVDBZ98LXLB5rIBEnapQ7OmrCIHS47s9/aMh66SPT8FlfncgEWfvFMymz+vtwrd3dSFgcEw/sdmKWTNY3k/XMO3DP/RTByikor9iF176wW4ZunJuBPf5lOBNfhBi8C0FySOdaUwOClZVVJuud+AbwMwz9WtAFMalkEsPDBS3iRGmr/twHaHz2r/CXP9mm4uRtgL7WmzQN5xA1kv47iAyT9c2IMVnfQtbkWRNZnzQFAB2P0dED6bWP2ntlIEefgz3+LMTQ56DSozrXWpP18opu78WeNbPpTiDQbDpA8qhUFJPLphHUluDPv4fGmX/XzouRW+iwV02LuxYWzMA59Dycoz9gsl7H6EzWt4RB3od7/hdGE8Rd6k4YhF4nm2Q9/CTk2FOQow9ApceZrHeCmfgZtyCwtukAVS/2panpwCy82Xfgnqeu5mcAy+nw4WJzGub7cC0McuR5Jmsm69t/S3WMjk6/L/4W/uJHULWrIVl3QsBp7bPDtkYyBVl4EHLkCd0xRvUd1C29KGZN7b1c1+Uu50ysO4IAvcFRh5i+bMaIOCUFgvIUfE3WP0VQPNshtb31lhMKOiUGwpg1ZYMMwnLSO7L2uDyEPeu1nrVPqXtn4F55Gf78OwiKZ8wJeMfKa9d6Eq7e/KL/HsjhR+Ec+AKsgTtQr1PHmCIWl5a1bCpfjMBOIEBknUmndOMB0rJOJ4TWdKdm0S7JLhTPdajpwM2rWSOVmhqBc/h7cI5+G1Yib5pT83UNASbrG8jaNB3wpt/SkpD+0ofdKYqhMIjWRHBgZQ5BDt2PBBUCFE4wWfOXc8cR0B1iNFmndYcYQ9YwBWIzb8Gd/BVU8UIXyZpON1MQ2f1wDn8XzqGvG6+6I5LEOw5n1x7IZL0WWpJHrczCX/gY3tQrWr8Xfhe0QfQzQ13r5DDEwAkk7vg7iOH7DVmXSlhaXEKdPeuubXwe+DoCmgR0O68M+nM5TdYpm6oXz8CfeRPu1O+hSpcBkexCzDrUBnEGIfLHYR/8BpyDX2BtEI5Zb/IVJdU9t4Rg9SLcyd/rRrn0986HQZpkLWA5eYj83Ugc/0fI0Yd1uh7FrOcXFnX8mi9GoNsINJsOEFHn8znd2TyBunFaZt7UOjmk696ZDjFrV9N8wxQQfUd0OFD3Yhy5n1X3mKw32/Zh84HqHNzLf4B74WdQ9XmTWqRTljqZttTsQZeGzN+JxPH/BnvfE/B9H6vFImZn55msNzMX//eOINAk64GBvG48kEomYAdleDPvwJt9A/7cW0bEqePZIM2DdqNn7Ux8GXL4AV0g1tmS9o7AtOuDcBjkFhMEUPUivKtvwL38OwSrp6Ea8wBkF2JoSvdjFLljSNzzz3Amnmay3vWvxN6bwNoOMYXCABIJB9JdhXv1NXjT1HTgA9OEo6NkTc4KZYH4sOw05NhzSBx9HiJ/VJedM1nfug+ZrNf5buoUvqXPNGH7c68jWD0JKKsLKmBGcUy39zrxL3AmnoFPqpTFMubm57WYE/eF2HvkudMrbpI1SaNS4wHHlrDqS3AnX9btvHSBGLXzsuwOkigRNW3+BER6n+lufuRbsKhysePZVzuNaHeex2S9Hq66D+OSbkLgXvqV7urclHHsrBlMzE5kDyBx9z/D3v8cFByUKjXdOLdaq8H3AybszoLOo92EAJGAbUsMDw9jZHgIwrKgKBR48UV4M29Alc5DeSsdbDoQxqqhINITOlYtx5+EPfogLKevg78QesvUTNbr2TMsfw3Ks/AmX4Z79SXTOLdB/efIu+hQkUzzNTA7oWPWzsRzCOwMKlUXS0vLqFSquuScveve+tJFbTWGrG2MjgxjWJM1EJSn4Z7/DbyZ16Cq1DS61CFtkDD8QSCQ3MLACdgTX4Mcvhcit49zq2+zOZisNwRHQTUq8BdOwpt9C97MS/p10JIZk8LUiesaWY8jcewfYU88B+XkUXMVlpdXUK5UdCofk3UnwOYxNkJgPbL2S1Nwz/5U1xtQvFr51c6Qtd7zVGhmQ6QmtNRC4uj3IPoPAaJL2iM9Ynom69sZMnARVBYQrJyDd/VleHPvQNUXAdq4VF21XRH2cONa6TEkjv0D7H3PAqkh3TFmZXUVpWJZh0KIrCkPli9GoBsI0P5yHFuHQYaHChDw4K9egnv2xyYMQh1iSLtD78Gt7sNm6IO6wiQhMvsghx+BPfoIxNC9EKnBbiytp8Zksm7BnKq+Cm/qdbjTf4G/+I5+LbQEedjU7msblybrBqz0KJzD/0V71lZ6BPXA1iXnlMJXLlc0WbP63jZw5o9uikCTrIcKA7D8GoLVC2ic/RH82TdNR3PyhrdN1q4meys5rKt2nSPPQxZOwLJTnQstbrrS+N7AZN2C7XRvxtJVBMtn4c29DX/pY6jKJOBV1njYW/A4mmSdGoZz8Hvas7b6DsC1UiiVK1hdXUWxWNLtvZisWzAU37IlBIQwTQeGCgUMDuZDsj6Hxmf/Bm/uTUC5JnOjba861P0IGlDUtosKwDJ0oPggbMqnHrwLIj1iiHq7b6lbWnm8PsRk3aq9FMWwV+HNfQSfYtjzb5iqLggzgt7MoYq7+YfNR26SdXIQ9sQ3YY8/AzFwDL6dQ7lSxcrKiiZsyghhst4cTr6jfQSuNR1IpVAYHEB/f06Ttb98Bu5n/9OQdav7+drjw++C/k5QQRn1bXQgskcgC/fB3v9FyKETsGSSKxXbMBmTdctgKcB3EVQXEJSvIlg5DX/pJPzlz6Bq04BXDNvTNbNFQhJfO/7N3kOTrBN52ONfghx7Wr8W+okBJuuW7cI3bgcB3XTAsUFNB/L5vO4QY/lVva8bJ/87/Lk3TH41OSXrer+h93wDUZtiF/0ZmdWpqSJ/p878EAN3QmT3QaQGzHjsUbdsPibrlqEKbyRvgaRUq/Pwl09pVbJg9axprkuHMKQvQvfoEnWj03tj77o1HrcmaxdWIgc5/DTssSd1EwI/UUClUtOeNR00Ugk6e9btGorvbwUB03fRQSaTQT7fj1w2A3gl+Eun0DhFZP0mYCVCD3i9A8amxGlY4WtJWBTWkLauTKSO5ZqkC/dDFo5rouZrawgwWW8FNyJZIuxGCaq2oJX6yNtW5HFXZk2qU4NO0Ov6PkUxP/06eHNoxJC6ZfdBFh6CHH0UcuxRqPQYarUalldWdL41k/VWjMSf2QwBnWUEIJVKaWlUCoFk00mo+hL8pU/hnv43+AvvmVTV26bVCVgyBdh9sBID+pBc9E1AZMZgpUZ0XNpKFWAl+sxhIl9bQoDJekuwrfmQ8o1SH6X4lWehqvSzoFuC6VN0v669Z6U97Juv0Cux00Z1bOC4juUhWdD51UTUi0tL3Dh3uzbiz6+LwFqyJlnUXC6HbCYJNFYRFC/BnXoFwcpZowmiyXqDi7xpO6udDiQGNDlTgYtuekvkbRPZbzNzim2oEw0sxVUX29gKpBwWQAWeCYP47rV/VqSFHTRP0jd6BIk5SXPYksiaDhkyqVt6LSwuY35+nsl6G9bhj26MwLpknU3DolCeX4WqzusO55sqTlLcmUIeuvaA9rIDSAqdOLCI5HVcuoUDdzbWbRFgsu7WBqG4dUAeNR20tHjRRtfl7EIT9MLiEubmmKxbRI9vaxOBZrEVtfOivou66UAqZQqw2tm/lgj3bYdkGNpcx165ncm6q5YOU5jaeobxQJis2wKNb94CAk2y7stmdX41HTJSvvX1atl29i97zlswQVsfYbJuC66du5nImprmNj1rLjffOez3ypN0Zaxl6Vj14OCATt9zHIelDSK6AZisI2oYIuulZSLrBe1l88UIdBqBpowBtfMiLetUKqnV9/iKJgJM1tG0i07XI+W9xcVF3Tg3CNp5JY3oonhakUKAyTpS5th0MkzWm0K0Ozc0ezEuLy2jWquzd707Zujpp14j6/5+41knybPmQ8KoGp3JOqKWIbIulcrau65WuQlBRM0U+2lRZSzFq0kaleLVXCkbXZMyWUfUNmSYcrmM5ZVV3TGmXq9HdKY8rTgjYEuJwcFBDA8bsuYruggwWUfUNmSYSoVkUovaw6YmBHRxVkhEDRbTaTFZx8dwTNYRtZUh66puQlAslfQ/08WvqRE1WAynRbUvtu3oHGvSsmbPOtpGZLKOqH2YrCNqmB6alpQCCSeBgYG8jltz2l60jctkHVH7kGFqtTpKpZKWSaX2XuxZR9RYMZ2WlBLJhKPJemCAyTrqZmSyjqiFKK2q0WhokiapVAqHkFwDh0EiarAYTovJOl5GY7KOqL2IrEl5j3StFxeXtXfNjXMjaqwYTmttO698f7/uEsM51tE2JJN1RO1DxEy51hQKWVhc1PnWTNYRNVYMp0VZRRSjzmTSuukAlZyTp81XdBFgso6obTYi64hOl6cVMwSIrJOJBLJZ6hDTh76+PibriNuQyTqiBjJkHehiGOoWs7y8bHo78sUIdAABTdbJJHJ9hqiz2Qyfh3QA124OwWTdTXS3OTaJN5HiXrG4imKxxGS9TTz549cRMF3NEzoMkk6nddNcPryO9g5hso62fXTfNdIGodg1e9YRN1aMpteMWVOzASqGoZxrro6NtgGZrKNtH03QFA4Jgjbag0V8TTy9aCBA5EzetGUJCMGdXqJhlY1nwWQddQuB+vEq9qpjYKe4TZHS94iw2aOOh+WYrCNup2ZWCHnXHAaJuLFiNj1K1aPwB8eq42E4JuuI26kZs65Wazrvmgk74gaLyfTIm04kE8ik06xjHRObMVlH3FCUDbKysqJT9+oNF57HseuImywW0yNvmnKshwqDOhuEqhc5HBJt0zFZR9s+OnWPiHppqUnW3Dw34iaLxfSIrCm/mqRRKX2PyTr6ZmOyjriN1pJ1w3V1ZghfjMB2EWDPersI7vznmax3HvO2nshk3RZcfHOLCDBZtwhUhG5jso6QMdabiiHrFR0GIRU+z+eYdcRNFovp6TBINovC0KA+ZKTMEI5ZR9t0TNbRto8m59WVVa1pTRkhRNicGxtxo8VgekTW/bk+DA8PIZVKcfpeDGzGZB1xI1G6Xqlc1s0HSsUyavU6e0ARt1nUp0fVio7taGnUoaGCFnTiK/oIMFlH3EZUvUgdY6jT+dLysu50zrnWETdaxKdHOtakskca1kTY3Cg34gYLp8dkHXE7NbVBKPyxWiyiXC7D93wEirNCIm66CE7PaIE4YdOBTCaDdDrFOtYRtNR6UyIusBS7apE2F5mnWXbuup72tOngkS9GoB0E6KxDl5jbEqS2Z0sZCjmxiFM7OO7WvUzWu4X8Fp/b7M1IsWy+GIH2EDCedVMPhDVB2kNvt+9mst5tC2zh+fwitAXQ+CNrECClPQYkjghwGCSOVuM5MwKMwJ5DgMl6z5mcF8wIMAJxRIDJOo5W4zkzAozAnkOAyXrPmZwXzAgwAnFEgMk6jlbjOTMCjMCeQ4DJes+ZnBfMCDACcUSAyTqOVuM5MwKMwJ5DgMl6z5mcF8wIMAJxRIDJOo5W4zkzAozAnkOAyXrPmZwXzAgwAnFEgMk6jlbjOTMCjMCeQ4DJes+ZnBfMCDACcUSAyTqOVuM5MwKMwJ5DgMl6z5mcF8wIMAJxRIDJOo5W4zkzAozAnkOAyXrPmZwXzAgwAnFEgMk6jlbjOTMCjMCeQ4DJes+ZnBfMCDACcUSAyTqOVuM5MwKMwJ5DgMl6z5mcF8wIMAJxRIDJOo5W4zkzAozAnkOAyXrPmZwXzAgwAnFE4P8HEXpJ843WnLcAAAAASUVORK5CYII=;" vertex="1" parent="1">
                    <mxGeometry x="680" y="120" width="122.86" height="110" as="geometry"/>
                </mxCell>
                <mxCell id="8" value="" style="endArrow=classic;html=1;strokeColor=#FFF024;exitX=1;exitY=0.5;exitDx=0;exitDy=0;shape=flexArrow;fillColor=#FFE11C;" edge="1" parent="1" source="6">
                    <mxGeometry width="50" height="50" relative="1" as="geometry">
                        <mxPoint x="430" y="280" as="sourcePoint"/>
                        <mxPoint x="660" y="195" as="targetPoint"/>
                    </mxGeometry>
                </mxCell>
                <mxCell id="12" value="" style="ellipse;whiteSpace=wrap;html=1;aspect=fixed;strokeColor=#FFE924;fillColor=#FFF23B;" vertex="1" parent="1">
                    <mxGeometry x="685" y="250" width="30" height="30" as="geometry"/>
                </mxCell>
                <mxCell id="13" value="&lt;font style=&quot;font-size: 18px;&quot;&gt;&lt;b&gt;2&lt;/b&gt;&lt;/font&gt;" style="text;html=1;strokeColor=none;fillColor=none;align=center;verticalAlign=middle;whiteSpace=wrap;rounded=0;" vertex="1" parent="1">
                    <mxGeometry x="670" y="250" width="60" height="30" as="geometry"/>
                </mxCell>
                <mxCell id="14" value="" style="endArrow=classic;html=1;strokeColor=#FFF024;entryX=1;entryY=0;entryDx=0;entryDy=0;shape=flexArrow;fillColor=#FFE921;" edge="1" parent="1" target="16">
                    <mxGeometry width="50" height="50" relative="1" as="geometry">
                        <mxPoint x="670" y="280" as="sourcePoint"/>
                        <mxPoint x="460" y="410" as="targetPoint"/>
                    </mxGeometry>
                </mxCell>
                <mxCell id="16" value="" style="rounded=1;whiteSpace=wrap;html=1;strokeColor=#FF1940;" vertex="1" parent="1">
                    <mxGeometry x="410" y="390" width="120" height="130" as="geometry"/>
                </mxCell>
                <mxCell id="17" value="" style="endArrow=none;html=1;strokeColor=#FF1940;exitX=0;exitY=0.25;exitDx=0;exitDy=0;entryX=1;entryY=0.25;entryDx=0;entryDy=0;" edge="1" parent="1" source="16" target="16">
                    <mxGeometry width="50" height="50" relative="1" as="geometry">
                        <mxPoint x="490" y="420" as="sourcePoint"/>
                        <mxPoint x="540" y="370" as="targetPoint"/>
                    </mxGeometry>
                </mxCell>
                <mxCell id="18" value="" style="ellipse;whiteSpace=wrap;html=1;aspect=fixed;strokeColor=#FF1940;" vertex="1" parent="1">
                    <mxGeometry x="420" y="400" width="10" height="10" as="geometry"/>
                </mxCell>
                <mxCell id="24" value="" style="ellipse;whiteSpace=wrap;html=1;aspect=fixed;strokeColor=#FF1940;" vertex="1" parent="1">
                    <mxGeometry x="440" y="400" width="10" height="10" as="geometry"/>
                </mxCell>
                <mxCell id="25" value="" style="ellipse;whiteSpace=wrap;html=1;aspect=fixed;strokeColor=#FF1940;" vertex="1" parent="1">
                    <mxGeometry x="460" y="400" width="10" height="10" as="geometry"/>
                </mxCell>
                <mxCell id="26" value="" style="endArrow=classic;html=1;strokeColor=#FFF024;exitX=0.14;exitY=0.06;exitDx=0;exitDy=0;exitPerimeter=0;fillColor=#FFF126;shape=flexArrow;" edge="1" parent="1" source="41">
                    <mxGeometry width="50" height="50" relative="1" as="geometry">
                        <mxPoint x="400" y="400" as="sourcePoint"/>
                        <mxPoint x="200" y="260" as="targetPoint"/>
                    </mxGeometry>
                </mxCell>
                <mxCell id="30" value="" style="width=5;rounded=1;whiteSpace=wrap;html=1;strokeColor=#000000;" vertex="1" parent="1">
                    <mxGeometry x="90.20999999999998" y="500" width="120" height="130" as="geometry"/>
                </mxCell>
                <mxCell id="31" value="" style="endArrow=none;html=1;strokeColor=#000000;exitX=0;exitY=0.25;exitDx=0;exitDy=0;entryX=1;entryY=0.25;entryDx=0;entryDy=0;shape=link;" edge="1" parent="1" source="30" target="30">
                    <mxGeometry width="50" height="50" relative="1" as="geometry">
                        <mxPoint x="170.20999999999998" y="530" as="sourcePoint"/>
                        <mxPoint x="220.20999999999998" y="480" as="targetPoint"/>
                    </mxGeometry>
                </mxCell>
                <mxCell id="32" value="" style="ellipse;whiteSpace=wrap;html=1;aspect=fixed;strokeColor=#000000;" vertex="1" parent="1">
                    <mxGeometry x="100.20999999999998" y="510" width="10" height="10" as="geometry"/>
                </mxCell>
                <mxCell id="33" value="" style="ellipse;whiteSpace=wrap;html=1;aspect=fixed;strokeColor=#000000;" vertex="1" parent="1">
                    <mxGeometry x="120.20999999999998" y="510" width="10" height="10" as="geometry"/>
                </mxCell>
                <mxCell id="34" value="" style="ellipse;whiteSpace=wrap;html=1;aspect=fixed;strokeColor=#000000;" vertex="1" parent="1">
                    <mxGeometry x="140.20999999999998" y="510" width="10" height="10" as="geometry"/>
                </mxCell>
                <mxCell id="35" value="" style="endArrow=classic;html=1;strokeColor=#FFF024;shape=flexArrow;fillColor=#FFF829;" edge="1" parent="1">
                    <mxGeometry width="50" height="50" relative="1" as="geometry">
                        <mxPoint x="140" y="320" as="sourcePoint"/>
                        <mxPoint x="140" y="490" as="targetPoint"/>
                    </mxGeometry>
                </mxCell>
                <mxCell id="40" value="" style="ellipse;whiteSpace=wrap;html=1;aspect=fixed;strokeColor=#FFE924;fillColor=#FFFF40;" vertex="1" parent="1">
                    <mxGeometry x="380" y="380" width="30" height="30" as="geometry"/>
                </mxCell>
                <mxCell id="41" value="&lt;font style=&quot;font-size: 18px;&quot;&gt;&lt;b&gt;3&lt;/b&gt;&lt;/font&gt;" style="text;html=1;strokeColor=none;fillColor=none;align=center;verticalAlign=middle;whiteSpace=wrap;rounded=0;" vertex="1" parent="1">
                    <mxGeometry x="365" y="380" width="60" height="30" as="geometry"/>
                </mxCell>
                <mxCell id="42" value="" style="ellipse;whiteSpace=wrap;html=1;aspect=fixed;strokeColor=#FFE924;fillColor=#FFF23B;" vertex="1" parent="1">
                    <mxGeometry x="125.20999999999998" y="280" width="30" height="30" as="geometry"/>
                </mxCell>
                <mxCell id="43" value="&lt;font style=&quot;font-size: 18px;&quot;&gt;&lt;b&gt;4&lt;/b&gt;&lt;/font&gt;" style="text;html=1;strokeColor=none;fillColor=none;align=center;verticalAlign=middle;whiteSpace=wrap;rounded=0;" vertex="1" parent="1">
                    <mxGeometry x="110.20999999999998" y="280" width="60" height="30" as="geometry"/>
                </mxCell>
                <mxCell id="45" value="Attacker send an email to the victim&amp;nbsp;" style="text;html=1;strokeColor=none;fillColor=none;align=center;verticalAlign=middle;whiteSpace=wrap;rounded=0;fontSize=18;" vertex="1" parent="1">
                    <mxGeometry x="240" y="110" width="170" height="30" as="geometry"/>
                </mxCell>
                <mxCell id="46" value="Victim clicks on the email&amp;nbsp; and goes to the phishing website" style="text;html=1;strokeColor=none;fillColor=none;align=center;verticalAlign=middle;whiteSpace=wrap;rounded=0;fontSize=18;" vertex="1" parent="1">
                    <mxGeometry x="691" y="300" width="170" height="30" as="geometry"/>
                </mxCell>
                <mxCell id="47" value="Attacker collects&lt;br&gt;victim's credentials" style="text;html=1;strokeColor=none;fillColor=none;align=center;verticalAlign=middle;whiteSpace=wrap;rounded=0;fontSize=18;" vertex="1" parent="1">
                    <mxGeometry x="340" y="290" width="170" height="30" as="geometry"/>
                </mxCell>
                <mxCell id="49" value="Legitimate Website" style="text;html=1;strokeColor=none;fillColor=none;align=center;verticalAlign=middle;whiteSpace=wrap;rounded=0;fontSize=18;" vertex="1" parent="1">
                    <mxGeometry x="60.20999999999998" y="660" width="170" height="30" as="geometry"/>
                </mxCell>
                <mxCell id="50" value="Attackers uses vicitim's credentials to access a website" style="text;html=1;strokeColor=none;fillColor=none;align=center;verticalAlign=middle;whiteSpace=wrap;rounded=0;fontSize=18;" vertex="1" parent="1">
                    <mxGeometry x="-44.79000000000002" y="380" width="170" height="30" as="geometry"/>
                </mxCell>
                <mxCell id="51" value="&lt;b&gt;Attacker&lt;/b&gt;" style="text;html=1;strokeColor=none;fillColor=none;align=center;verticalAlign=middle;whiteSpace=wrap;rounded=0;fontSize=18;" vertex="1" parent="1">
                    <mxGeometry x="105.31" y="240" width="79.79" height="20" as="geometry"/>
                </mxCell>
                <mxCell id="52" value="&lt;b&gt;Victim&lt;/b&gt;" style="text;html=1;strokeColor=none;fillColor=none;align=center;verticalAlign=middle;whiteSpace=wrap;rounded=0;fontSize=18;" vertex="1" parent="1">
                    <mxGeometry x="701.53" y="230" width="79.79" height="20" as="geometry"/>
                </mxCell>
            </root>
        </mxGraphModel>
    </diagram>
</mxfile>